%TF.GenerationSoftware,KiCad,Pcbnew,8.0.5*%
%TF.CreationDate,2024-10-10T12:36:06+02:00*%
%TF.ProjectId,MosTest_GanFet,4d6f7354-6573-4745-9f47-616e4665742e,rev?*%
%TF.SameCoordinates,Original*%
%TF.FileFunction,Soldermask,Bot*%
%TF.FilePolarity,Negative*%
%FSLAX46Y46*%
G04 Gerber Fmt 4.6, Leading zero omitted, Abs format (unit mm)*
G04 Created by KiCad (PCBNEW 8.0.5) date 2024-10-10 12:36:06*
%MOMM*%
%LPD*%
G01*
G04 APERTURE LIST*
G04 Aperture macros list*
%AMRoundRect*
0 Rectangle with rounded corners*
0 $1 Rounding radius*
0 $2 $3 $4 $5 $6 $7 $8 $9 X,Y pos of 4 corners*
0 Add a 4 corners polygon primitive as box body*
4,1,4,$2,$3,$4,$5,$6,$7,$8,$9,$2,$3,0*
0 Add four circle primitives for the rounded corners*
1,1,$1+$1,$2,$3*
1,1,$1+$1,$4,$5*
1,1,$1+$1,$6,$7*
1,1,$1+$1,$8,$9*
0 Add four rect primitives between the rounded corners*
20,1,$1+$1,$2,$3,$4,$5,0*
20,1,$1+$1,$4,$5,$6,$7,0*
20,1,$1+$1,$6,$7,$8,$9,0*
20,1,$1+$1,$8,$9,$2,$3,0*%
G04 Aperture macros list end*
%ADD10C,0.350000*%
%ADD11C,2.500000*%
%ADD12C,2.900000*%
%ADD13C,5.000000*%
%ADD14C,4.700000*%
%ADD15C,7.500000*%
%ADD16R,1.000000X1.000000*%
%ADD17R,2.200000X1.050000*%
%ADD18R,1.050000X2.200000*%
%ADD19RoundRect,0.250000X0.250000X0.475000X-0.250000X0.475000X-0.250000X-0.475000X0.250000X-0.475000X0*%
%ADD20RoundRect,0.250000X-0.262500X-0.450000X0.262500X-0.450000X0.262500X0.450000X-0.262500X0.450000X0*%
%ADD21RoundRect,0.250000X2.450000X-0.650000X2.450000X0.650000X-2.450000X0.650000X-2.450000X-0.650000X0*%
%ADD22RoundRect,0.250000X-0.250000X-0.475000X0.250000X-0.475000X0.250000X0.475000X-0.250000X0.475000X0*%
G04 APERTURE END LIST*
D10*
X123795000Y-44730000D02*
G75*
G02*
X123445000Y-44730000I-175000J0D01*
G01*
X123445000Y-44730000D02*
G75*
G02*
X123795000Y-44730000I175000J0D01*
G01*
X126925000Y-44700000D02*
G75*
G02*
X126575000Y-44700000I-175000J0D01*
G01*
X126575000Y-44700000D02*
G75*
G02*
X126925000Y-44700000I175000J0D01*
G01*
D11*
%TO.C,EN1*%
X119000000Y-24400000D03*
%TD*%
D12*
%TO.C,GND1*%
X133400000Y-24300000D03*
D13*
X133400000Y-24300000D03*
%TD*%
D14*
%TO.C,H5*%
X88525000Y-26550000D03*
D15*
X88525000Y-26550000D03*
%TD*%
D12*
%TO.C,VDD30*%
X144700000Y-24400000D03*
D13*
X144700000Y-24400000D03*
%TD*%
D14*
%TO.C,H6*%
X88470000Y-35780000D03*
D15*
X88470000Y-35780000D03*
%TD*%
D14*
%TO.C,H8*%
X98250000Y-26400000D03*
D15*
X98250000Y-26400000D03*
%TD*%
D14*
%TO.C,H7*%
X98050000Y-36270000D03*
D15*
X98050000Y-36270000D03*
%TD*%
D11*
%TO.C,VDD10*%
X125400000Y-24500000D03*
%TD*%
D16*
%TO.C,PWM_IN1*%
X122000000Y-37975000D03*
D17*
X123500000Y-39450000D03*
D16*
X125000000Y-37975000D03*
D17*
X123500000Y-36500000D03*
%TD*%
D16*
%TO.C,Post_Filter1*%
X141775000Y-37800000D03*
D18*
X143250000Y-36300000D03*
D16*
X141775000Y-34800000D03*
D18*
X140300000Y-36300000D03*
%TD*%
D19*
%TO.C,C2*%
X131150000Y-44400000D03*
X129250000Y-44400000D03*
%TD*%
D20*
%TO.C,R3*%
X123687500Y-46200000D03*
X125512500Y-46200000D03*
%TD*%
D21*
%TO.C,C11*%
X132630000Y-41800000D03*
X132630000Y-36700000D03*
%TD*%
D16*
%TO.C,Pre_Filter1*%
X138310000Y-43300000D03*
D18*
X139785000Y-41800000D03*
D16*
X138310000Y-40300000D03*
D18*
X136835000Y-41800000D03*
%TD*%
D22*
%TO.C,C12*%
X133000000Y-44400000D03*
X134900000Y-44400000D03*
%TD*%
M02*
