%TF.GenerationSoftware,KiCad,Pcbnew,8.0.5*%
%TF.CreationDate,2024-10-10T12:36:06+02:00*%
%TF.ProjectId,MosTest_GanFet,4d6f7354-6573-4745-9f47-616e4665742e,rev?*%
%TF.SameCoordinates,Original*%
%TF.FileFunction,Copper,L3,Inr*%
%TF.FilePolarity,Positive*%
%FSLAX46Y46*%
G04 Gerber Fmt 4.6, Leading zero omitted, Abs format (unit mm)*
G04 Created by KiCad (PCBNEW 8.0.5) date 2024-10-10 12:36:06*
%MOMM*%
%LPD*%
G01*
G04 APERTURE LIST*
%TA.AperFunction,ComponentPad*%
%ADD10C,2.500000*%
%TD*%
%TA.AperFunction,ComponentPad*%
%ADD11C,2.900000*%
%TD*%
%TA.AperFunction,ComponentPad*%
%ADD12C,4.700000*%
%TD*%
%TA.AperFunction,ComponentPad*%
%ADD13C,0.500000*%
%TD*%
%TA.AperFunction,ViaPad*%
%ADD14C,0.600000*%
%TD*%
%TA.AperFunction,ViaPad*%
%ADD15C,0.500000*%
%TD*%
%TA.AperFunction,ViaPad*%
%ADD16C,1.000000*%
%TD*%
%TA.AperFunction,ViaPad*%
%ADD17C,2.000000*%
%TD*%
G04 APERTURE END LIST*
D10*
%TO.N,/EN1*%
%TO.C,EN1*%
X119000000Y-24400000D03*
%TD*%
D11*
%TO.N,GND*%
%TO.C,GND1*%
X133400000Y-24300000D03*
%TD*%
D12*
%TO.N,GND*%
%TO.C,H5*%
X88525000Y-26550000D03*
%TD*%
D11*
%TO.N,/VDD30*%
%TO.C,VDD30*%
X144700000Y-24400000D03*
%TD*%
D12*
%TO.N,GND*%
%TO.C,H6*%
X88470000Y-35780000D03*
%TD*%
%TO.N,GND*%
%TO.C,H8*%
X98250000Y-26400000D03*
%TD*%
D13*
%TO.N,GND*%
%TO.C,U1*%
X123962500Y-41400000D03*
X123962500Y-42600000D03*
%TO.N,/HS1*%
X125687500Y-41400000D03*
X125687500Y-42600000D03*
%TD*%
D12*
%TO.N,GND*%
%TO.C,H7*%
X98050000Y-36270000D03*
%TD*%
D10*
%TO.N,/VDD10*%
%TO.C,VDD10*%
X125400000Y-24500000D03*
%TD*%
D14*
%TO.N,GND*%
X140275000Y-37100000D03*
X132630000Y-36700000D03*
D15*
X121060000Y-45590000D03*
X121060000Y-46680000D03*
D14*
X120500000Y-40500000D03*
X126882804Y-38372438D03*
X143275000Y-37100000D03*
X130620000Y-38270000D03*
X123700000Y-38800000D03*
D15*
X121010000Y-47220000D03*
D16*
X146445000Y-32950000D03*
D14*
X132970000Y-38490000D03*
X117200000Y-42500000D03*
X139860000Y-41820000D03*
D15*
X121040000Y-46150000D03*
D16*
X147545000Y-34150000D03*
D14*
X123500000Y-35800000D03*
D15*
X121570000Y-47180000D03*
D14*
X120290000Y-39670000D03*
D15*
X122080000Y-47180000D03*
D16*
X145145000Y-34150000D03*
D14*
X127590000Y-40580000D03*
X117100000Y-44000000D03*
D16*
X150145000Y-34150000D03*
X152545000Y-34150000D03*
D14*
X120100000Y-42500000D03*
X135600000Y-44600000D03*
X124400000Y-38900000D03*
X124590000Y-44690000D03*
X134600000Y-36655000D03*
X130600000Y-36655000D03*
D16*
X151445000Y-32950000D03*
D14*
X128630000Y-43570000D03*
X136830000Y-41850000D03*
D15*
%TO.N,/Q2D*%
X123070000Y-46160000D03*
X123074000Y-46716000D03*
X123088000Y-45603000D03*
D14*
%TO.N,/BST1*%
X128410000Y-40390000D03*
X130745376Y-40400000D03*
%TO.N,/HS1*%
X125462500Y-44500000D03*
D17*
X137500000Y-45255000D03*
D15*
X127140000Y-46780000D03*
X127950000Y-47240000D03*
X127140000Y-46180000D03*
X125990000Y-45660000D03*
X127140000Y-45600000D03*
X125990000Y-46670000D03*
X125990000Y-46160000D03*
X126850000Y-47340000D03*
X127420000Y-47220000D03*
%TO.N,/VDD30*%
X130340000Y-41170000D03*
X131370000Y-44380000D03*
X133260000Y-41240000D03*
X128550000Y-46730000D03*
X133260000Y-44770000D03*
X133230000Y-44200000D03*
X128540000Y-45590000D03*
X132760000Y-44584000D03*
X132390000Y-41210000D03*
X134030000Y-41240000D03*
X131010000Y-41160000D03*
X134880000Y-41210000D03*
X131390000Y-44910000D03*
X128410000Y-46120000D03*
X130894000Y-44006000D03*
X132757000Y-43962000D03*
X130881000Y-44660000D03*
D14*
%TO.N,/VDD10*%
X121717477Y-41697053D03*
X125400000Y-39000000D03*
%TO.N,/PWM1*%
X122000000Y-37975000D03*
D15*
%TO.N,/LO1*%
X123614239Y-44730662D03*
D14*
%TO.N,/RL1*%
X141775000Y-38500000D03*
%TO.N,/Pre_Filter1*%
X138310000Y-43300000D03*
D15*
%TO.N,/HO1*%
X126750000Y-44700000D03*
%TD*%
%TA.AperFunction,Conductor*%
%TO.N,GND*%
G36*
X135652173Y-44309010D02*
G01*
X135679237Y-44315187D01*
X135715620Y-44327918D01*
X135740636Y-44339966D01*
X135773266Y-44360469D01*
X135794975Y-44377781D01*
X135822845Y-44405651D01*
X135838079Y-44424162D01*
X135852880Y-44446186D01*
X135861761Y-44458562D01*
X135880646Y-44483241D01*
X135986501Y-44580689D01*
X135986507Y-44580693D01*
X135986508Y-44580694D01*
X136012614Y-44598603D01*
X136044117Y-44620214D01*
X136059425Y-44627769D01*
X136110829Y-44675090D01*
X136128489Y-44742691D01*
X136106798Y-44809108D01*
X136052642Y-44853255D01*
X135993179Y-44862441D01*
X135891502Y-44853081D01*
X135821725Y-44856644D01*
X135820598Y-44856812D01*
X135818602Y-44857257D01*
X135680544Y-44884353D01*
X135680539Y-44884355D01*
X135679228Y-44884814D01*
X135676872Y-44885351D01*
X135676274Y-44885514D01*
X135676267Y-44885489D01*
X135652171Y-44890987D01*
X135613880Y-44895301D01*
X135586116Y-44895301D01*
X135547825Y-44890987D01*
X135520768Y-44884814D01*
X135519470Y-44884360D01*
X135519471Y-44884357D01*
X135519453Y-44884354D01*
X135484382Y-44872082D01*
X135459364Y-44860034D01*
X135426731Y-44839529D01*
X135405023Y-44822217D01*
X135377780Y-44794974D01*
X135360467Y-44773264D01*
X135347771Y-44753058D01*
X135347769Y-44753053D01*
X135339969Y-44740642D01*
X135327918Y-44715620D01*
X135315187Y-44679238D01*
X135309011Y-44652175D01*
X135304696Y-44613870D01*
X135304697Y-44586111D01*
X135309010Y-44547825D01*
X135315186Y-44520761D01*
X135327919Y-44484373D01*
X135339966Y-44459361D01*
X135360469Y-44426731D01*
X135377777Y-44405026D01*
X135405026Y-44377777D01*
X135426731Y-44360469D01*
X135459361Y-44339966D01*
X135484373Y-44327919D01*
X135520761Y-44315186D01*
X135547822Y-44309010D01*
X135586118Y-44304696D01*
X135613880Y-44304696D01*
X135652173Y-44309010D01*
G37*
%TD.AperFunction*%
%TA.AperFunction,Conductor*%
G36*
X128682173Y-43279010D02*
G01*
X128709237Y-43285187D01*
X128745620Y-43297918D01*
X128770636Y-43309966D01*
X128803266Y-43330469D01*
X128824975Y-43347781D01*
X128852219Y-43375025D01*
X128869532Y-43396735D01*
X128890032Y-43429361D01*
X128902080Y-43454379D01*
X128914809Y-43490758D01*
X128920987Y-43517828D01*
X128925301Y-43556117D01*
X128925301Y-43583883D01*
X128920987Y-43622172D01*
X128914809Y-43649241D01*
X128902082Y-43685615D01*
X128890033Y-43710636D01*
X128869529Y-43743267D01*
X128852217Y-43764975D01*
X128824975Y-43792217D01*
X128803266Y-43809529D01*
X128770636Y-43830032D01*
X128745618Y-43842081D01*
X128709243Y-43854809D01*
X128682172Y-43860987D01*
X128643882Y-43865301D01*
X128616116Y-43865301D01*
X128577826Y-43860987D01*
X128550766Y-43854812D01*
X128545829Y-43853085D01*
X128545817Y-43853076D01*
X128545816Y-43853081D01*
X128514376Y-43842079D01*
X128489361Y-43830032D01*
X128456732Y-43809530D01*
X128435023Y-43792217D01*
X128407780Y-43764974D01*
X128390469Y-43743268D01*
X128369963Y-43710634D01*
X128357917Y-43685619D01*
X128345189Y-43649243D01*
X128339011Y-43622175D01*
X128334696Y-43583870D01*
X128334697Y-43556111D01*
X128339010Y-43517829D01*
X128339011Y-43517828D01*
X128339010Y-43517825D01*
X128345188Y-43490758D01*
X128357919Y-43454373D01*
X128369966Y-43429361D01*
X128390469Y-43396731D01*
X128407779Y-43375025D01*
X128435026Y-43347777D01*
X128456731Y-43330469D01*
X128489361Y-43309966D01*
X128514373Y-43297919D01*
X128550761Y-43285186D01*
X128577822Y-43279010D01*
X128616118Y-43274696D01*
X128643880Y-43274696D01*
X128682173Y-43279010D01*
G37*
%TD.AperFunction*%
%TA.AperFunction,Conductor*%
G36*
X136882173Y-41559010D02*
G01*
X136909237Y-41565187D01*
X136945620Y-41577918D01*
X136970636Y-41589966D01*
X137003266Y-41610469D01*
X137024975Y-41627781D01*
X137052217Y-41655023D01*
X137069530Y-41676733D01*
X137090033Y-41709364D01*
X137102080Y-41734380D01*
X137114808Y-41770754D01*
X137120987Y-41797824D01*
X137123485Y-41819992D01*
X137123485Y-41819999D01*
X137123486Y-41819999D01*
X137125302Y-41836122D01*
X137125301Y-41863885D01*
X137120987Y-41902173D01*
X137114809Y-41929243D01*
X137102081Y-41965618D01*
X137090032Y-41990636D01*
X137069529Y-42023266D01*
X137052217Y-42044975D01*
X137024975Y-42072217D01*
X137003266Y-42089529D01*
X136970636Y-42110032D01*
X136945618Y-42122081D01*
X136909243Y-42134809D01*
X136882172Y-42140987D01*
X136843882Y-42145301D01*
X136816116Y-42145301D01*
X136777826Y-42140987D01*
X136750756Y-42134809D01*
X136716632Y-42122869D01*
X136716629Y-42122868D01*
X136714380Y-42122081D01*
X136689366Y-42110035D01*
X136672201Y-42099250D01*
X136672200Y-42099249D01*
X136656735Y-42089532D01*
X136635024Y-42072218D01*
X136607783Y-42044977D01*
X136590475Y-42023275D01*
X136569960Y-41990627D01*
X136557917Y-41965618D01*
X136545187Y-41929238D01*
X136539011Y-41902173D01*
X136534696Y-41863870D01*
X136534697Y-41836111D01*
X136534948Y-41833883D01*
X136539011Y-41797824D01*
X136545186Y-41770761D01*
X136557919Y-41734373D01*
X136569966Y-41709361D01*
X136590469Y-41676731D01*
X136607777Y-41655026D01*
X136635026Y-41627777D01*
X136656731Y-41610469D01*
X136689361Y-41589966D01*
X136714373Y-41577919D01*
X136750761Y-41565186D01*
X136777822Y-41559010D01*
X136816118Y-41554696D01*
X136843880Y-41554696D01*
X136882173Y-41559010D01*
G37*
%TD.AperFunction*%
%TA.AperFunction,Conductor*%
G36*
X139912173Y-41529010D02*
G01*
X139939239Y-41535188D01*
X139975620Y-41547918D01*
X140000630Y-41559961D01*
X140033272Y-41580472D01*
X140054975Y-41597781D01*
X140082216Y-41625022D01*
X140099528Y-41646730D01*
X140113483Y-41668939D01*
X140113485Y-41668942D01*
X140120034Y-41679365D01*
X140132080Y-41704379D01*
X140144808Y-41740752D01*
X140150987Y-41767826D01*
X140155301Y-41806118D01*
X140155301Y-41833883D01*
X140150987Y-41872172D01*
X140144809Y-41899243D01*
X140132081Y-41935618D01*
X140120032Y-41960636D01*
X140099529Y-41993266D01*
X140082217Y-42014975D01*
X140054975Y-42042217D01*
X140033266Y-42059529D01*
X140000636Y-42080032D01*
X139975618Y-42092081D01*
X139939243Y-42104809D01*
X139912172Y-42110987D01*
X139873882Y-42115301D01*
X139846116Y-42115301D01*
X139807826Y-42110987D01*
X139780755Y-42104809D01*
X139744380Y-42092081D01*
X139719362Y-42080032D01*
X139686732Y-42059529D01*
X139665023Y-42042217D01*
X139637781Y-42014975D01*
X139620473Y-41993273D01*
X139599961Y-41960630D01*
X139587919Y-41935624D01*
X139575187Y-41899238D01*
X139569011Y-41872175D01*
X139564696Y-41833870D01*
X139564697Y-41806111D01*
X139567195Y-41783940D01*
X139569010Y-41767825D01*
X139575186Y-41740761D01*
X139587919Y-41704373D01*
X139599966Y-41679361D01*
X139620469Y-41646731D01*
X139637777Y-41625026D01*
X139665026Y-41597777D01*
X139686731Y-41580469D01*
X139719361Y-41559966D01*
X139744373Y-41547919D01*
X139780761Y-41535186D01*
X139807822Y-41529010D01*
X139846118Y-41524696D01*
X139873880Y-41524696D01*
X139912173Y-41529010D01*
G37*
%TD.AperFunction*%
%TA.AperFunction,Conductor*%
G36*
X140327173Y-36809010D02*
G01*
X140354237Y-36815187D01*
X140390620Y-36827918D01*
X140415636Y-36839966D01*
X140448266Y-36860469D01*
X140469975Y-36877781D01*
X140497216Y-36905022D01*
X140514528Y-36926731D01*
X140535031Y-36959361D01*
X140547079Y-36984378D01*
X140559808Y-37020755D01*
X140565987Y-37047828D01*
X140570301Y-37086120D01*
X140570302Y-37113881D01*
X140568189Y-37132641D01*
X140568187Y-37132656D01*
X140565985Y-37152185D01*
X140559808Y-37179244D01*
X140547081Y-37215617D01*
X140535032Y-37240636D01*
X140514529Y-37273266D01*
X140497217Y-37294975D01*
X140469975Y-37322217D01*
X140448266Y-37339529D01*
X140415636Y-37360032D01*
X140390618Y-37372081D01*
X140354243Y-37384809D01*
X140327172Y-37390987D01*
X140288882Y-37395301D01*
X140261116Y-37395301D01*
X140222826Y-37390987D01*
X140195755Y-37384809D01*
X140159380Y-37372081D01*
X140134362Y-37360032D01*
X140101732Y-37339529D01*
X140080023Y-37322217D01*
X140052778Y-37294972D01*
X140035466Y-37273264D01*
X140014964Y-37240636D01*
X140002920Y-37215627D01*
X139990187Y-37179238D01*
X139984011Y-37152175D01*
X139979696Y-37113870D01*
X139979697Y-37086111D01*
X139984010Y-37047829D01*
X139984011Y-37047828D01*
X139984010Y-37047825D01*
X139990186Y-37020761D01*
X140002919Y-36984373D01*
X140014966Y-36959361D01*
X140035469Y-36926731D01*
X140052777Y-36905026D01*
X140080026Y-36877777D01*
X140101731Y-36860469D01*
X140134361Y-36839966D01*
X140159373Y-36827919D01*
X140195761Y-36815186D01*
X140222822Y-36809010D01*
X140261118Y-36804696D01*
X140288880Y-36804696D01*
X140327173Y-36809010D01*
G37*
%TD.AperFunction*%
%TA.AperFunction,Conductor*%
G36*
X143327173Y-36809010D02*
G01*
X143354237Y-36815187D01*
X143390620Y-36827918D01*
X143415636Y-36839966D01*
X143448266Y-36860469D01*
X143469975Y-36877781D01*
X143497216Y-36905022D01*
X143514528Y-36926731D01*
X143535031Y-36959361D01*
X143547080Y-36984379D01*
X143559809Y-37020757D01*
X143565987Y-37047827D01*
X143570301Y-37086114D01*
X143570302Y-37113874D01*
X143568189Y-37132638D01*
X143568187Y-37132656D01*
X143565985Y-37152185D01*
X143559808Y-37179244D01*
X143547081Y-37215617D01*
X143535032Y-37240636D01*
X143514529Y-37273266D01*
X143497217Y-37294975D01*
X143469975Y-37322217D01*
X143448266Y-37339529D01*
X143415636Y-37360032D01*
X143390618Y-37372081D01*
X143354243Y-37384809D01*
X143327172Y-37390987D01*
X143288882Y-37395301D01*
X143261116Y-37395301D01*
X143222826Y-37390987D01*
X143195755Y-37384809D01*
X143159380Y-37372081D01*
X143134362Y-37360032D01*
X143101732Y-37339529D01*
X143080023Y-37322217D01*
X143052778Y-37294972D01*
X143035466Y-37273264D01*
X143014964Y-37240636D01*
X143002920Y-37215627D01*
X142990187Y-37179238D01*
X142984011Y-37152175D01*
X142979696Y-37113870D01*
X142979697Y-37086111D01*
X142984010Y-37047829D01*
X142984011Y-37047828D01*
X142984010Y-37047825D01*
X142990186Y-37020761D01*
X143002919Y-36984373D01*
X143014966Y-36959361D01*
X143035469Y-36926731D01*
X143052777Y-36905026D01*
X143080026Y-36877777D01*
X143101731Y-36860469D01*
X143134361Y-36839966D01*
X143159373Y-36827919D01*
X143195761Y-36815186D01*
X143222822Y-36809010D01*
X143261118Y-36804696D01*
X143288880Y-36804696D01*
X143327173Y-36809010D01*
G37*
%TD.AperFunction*%
%TA.AperFunction,Conductor*%
G36*
X145673521Y-33646545D02*
G01*
X145708636Y-33706950D01*
X145705519Y-33776750D01*
X145705519Y-33776751D01*
X145659276Y-33911655D01*
X145647308Y-33974760D01*
X145646833Y-33976763D01*
X145646256Y-33980303D01*
X145646256Y-33980305D01*
X145640019Y-34120000D01*
X145639838Y-34124044D01*
X145639838Y-34124053D01*
X145641197Y-34137847D01*
X145641197Y-34162155D01*
X145634033Y-34234884D01*
X145629291Y-34258722D01*
X145608078Y-34328655D01*
X145598775Y-34351114D01*
X145564327Y-34415562D01*
X145550822Y-34435775D01*
X145504457Y-34492270D01*
X145487270Y-34509457D01*
X145430775Y-34555822D01*
X145410562Y-34569327D01*
X145346114Y-34603775D01*
X145323655Y-34613078D01*
X145253722Y-34634291D01*
X145229884Y-34639033D01*
X145157155Y-34646197D01*
X145132845Y-34646197D01*
X145060118Y-34639034D01*
X145036276Y-34634291D01*
X144966337Y-34613075D01*
X144943880Y-34603773D01*
X144879436Y-34569327D01*
X144859224Y-34555822D01*
X144802728Y-34509457D01*
X144785540Y-34492269D01*
X144739176Y-34435775D01*
X144725672Y-34415566D01*
X144705179Y-34377226D01*
X144691222Y-34351113D01*
X144681921Y-34328657D01*
X144660706Y-34258722D01*
X144655963Y-34234878D01*
X144648801Y-34162149D01*
X144648801Y-34137844D01*
X144655963Y-34065118D01*
X144660706Y-34041275D01*
X144679202Y-33980305D01*
X144681921Y-33971338D01*
X144691222Y-33948884D01*
X144707061Y-33919251D01*
X144725675Y-33884426D01*
X144739173Y-33864225D01*
X144785543Y-33807724D01*
X144802724Y-33790543D01*
X144859225Y-33744173D01*
X144879426Y-33730675D01*
X144943885Y-33696221D01*
X144966340Y-33686921D01*
X144973286Y-33684814D01*
X145036276Y-33665705D01*
X145060114Y-33660963D01*
X145132854Y-33653800D01*
X145157141Y-33653800D01*
X145261992Y-33664127D01*
X145275447Y-33665271D01*
X145282069Y-33665745D01*
X145295609Y-33666532D01*
X145438796Y-33652429D01*
X145506646Y-33635755D01*
X145541794Y-33621562D01*
X145611323Y-33614714D01*
X145673521Y-33646545D01*
G37*
%TD.AperFunction*%
%TA.AperFunction,Conductor*%
G36*
X160297539Y-16520185D02*
G01*
X160343294Y-16572989D01*
X160354500Y-16624500D01*
X160354500Y-50779500D01*
X160334815Y-50846539D01*
X160282011Y-50892294D01*
X160230500Y-50903500D01*
X78624500Y-50903500D01*
X78557461Y-50883815D01*
X78511706Y-50831011D01*
X78500500Y-50779500D01*
X78500500Y-46159999D01*
X122514750Y-46159999D01*
X122514750Y-46160000D01*
X122533669Y-46303706D01*
X122533669Y-46303708D01*
X122533670Y-46303709D01*
X122533670Y-46303710D01*
X122571639Y-46395375D01*
X122579107Y-46464845D01*
X122571639Y-46490278D01*
X122537670Y-46572289D01*
X122529244Y-46636291D01*
X122518750Y-46716000D01*
X122522686Y-46745900D01*
X122537670Y-46859708D01*
X122537671Y-46859712D01*
X122593137Y-46993622D01*
X122593138Y-46993624D01*
X122593139Y-46993625D01*
X122681379Y-47108621D01*
X122796375Y-47196861D01*
X122930291Y-47252330D01*
X123057280Y-47269048D01*
X123073999Y-47271250D01*
X123074000Y-47271250D01*
X123074001Y-47271250D01*
X123088977Y-47269278D01*
X123217709Y-47252330D01*
X123351625Y-47196861D01*
X123466621Y-47108621D01*
X123554861Y-46993625D01*
X123610330Y-46859709D01*
X123629250Y-46716000D01*
X123610330Y-46572291D01*
X123572359Y-46480621D01*
X123564891Y-46411153D01*
X123572356Y-46385729D01*
X123606330Y-46303709D01*
X123625250Y-46160000D01*
X123606330Y-46016291D01*
X123579152Y-45950678D01*
X123571684Y-45881212D01*
X123579150Y-45855783D01*
X123624330Y-45746709D01*
X123643250Y-45603000D01*
X123624330Y-45459291D01*
X123617547Y-45442915D01*
X123610078Y-45373446D01*
X123641353Y-45310967D01*
X123701442Y-45275315D01*
X123715913Y-45272526D01*
X123757948Y-45266992D01*
X123891864Y-45211523D01*
X124006860Y-45123283D01*
X124095100Y-45008287D01*
X124150569Y-44874371D01*
X124169489Y-44730662D01*
X124150569Y-44586953D01*
X124102620Y-44471192D01*
X124095101Y-44453039D01*
X124095100Y-44453038D01*
X124095100Y-44453037D01*
X124006860Y-44338041D01*
X123891864Y-44249801D01*
X123891863Y-44249800D01*
X123891861Y-44249799D01*
X123757951Y-44194333D01*
X123757949Y-44194332D01*
X123757948Y-44194332D01*
X123668191Y-44182515D01*
X123614240Y-44175412D01*
X123614238Y-44175412D01*
X123470530Y-44194332D01*
X123470526Y-44194333D01*
X123336616Y-44249799D01*
X123221618Y-44338041D01*
X123133376Y-44453039D01*
X123077910Y-44586949D01*
X123077909Y-44586953D01*
X123068719Y-44656760D01*
X123058989Y-44730662D01*
X123076021Y-44860034D01*
X123077909Y-44874370D01*
X123077910Y-44874374D01*
X123084692Y-44890748D01*
X123092159Y-44960217D01*
X123060883Y-45022696D01*
X123000793Y-45058347D01*
X122986317Y-45061137D01*
X122944291Y-45066670D01*
X122944287Y-45066671D01*
X122810377Y-45122137D01*
X122695379Y-45210379D01*
X122607137Y-45325377D01*
X122551671Y-45459287D01*
X122551670Y-45459291D01*
X122532750Y-45602999D01*
X122532750Y-45603000D01*
X122551669Y-45746707D01*
X122578847Y-45812321D01*
X122586314Y-45881790D01*
X122578846Y-45907224D01*
X122533671Y-46016287D01*
X122533670Y-46016291D01*
X122514750Y-46159999D01*
X78500500Y-46159999D01*
X78500500Y-43069014D01*
X123670260Y-43069014D01*
X123670260Y-43069015D01*
X123685131Y-43080426D01*
X123818917Y-43135841D01*
X123818921Y-43135842D01*
X123962499Y-43154746D01*
X123962501Y-43154746D01*
X124106078Y-43135842D01*
X124106079Y-43135842D01*
X124239874Y-43080422D01*
X124239880Y-43080419D01*
X124254738Y-43069017D01*
X124254738Y-43069015D01*
X123962501Y-42776777D01*
X123962500Y-42776777D01*
X123670260Y-43069014D01*
X78500500Y-43069014D01*
X78500500Y-42599999D01*
X123407754Y-42599999D01*
X123407754Y-42600000D01*
X123426657Y-42743578D01*
X123426658Y-42743582D01*
X123482075Y-42877373D01*
X123493482Y-42892238D01*
X123493483Y-42892238D01*
X123785723Y-42600000D01*
X123760859Y-42575136D01*
X123837500Y-42575136D01*
X123837500Y-42624864D01*
X123856530Y-42670807D01*
X123891693Y-42705970D01*
X123937636Y-42725000D01*
X123987364Y-42725000D01*
X124033307Y-42705970D01*
X124068470Y-42670807D01*
X124087500Y-42624864D01*
X124087500Y-42599999D01*
X124139277Y-42599999D01*
X124139277Y-42600000D01*
X124431515Y-42892238D01*
X124431517Y-42892238D01*
X124442919Y-42877380D01*
X124442922Y-42877374D01*
X124498342Y-42743579D01*
X124498342Y-42743578D01*
X124517246Y-42600000D01*
X124517246Y-42599999D01*
X124498342Y-42456421D01*
X124498341Y-42456417D01*
X124442926Y-42322631D01*
X124442926Y-42322630D01*
X124431515Y-42307760D01*
X124431514Y-42307760D01*
X124139277Y-42599999D01*
X124087500Y-42599999D01*
X124087500Y-42575136D01*
X124068470Y-42529193D01*
X124033307Y-42494030D01*
X123987364Y-42475000D01*
X123937636Y-42475000D01*
X123891693Y-42494030D01*
X123856530Y-42529193D01*
X123837500Y-42575136D01*
X123760859Y-42575136D01*
X123493482Y-42307759D01*
X123482080Y-42322621D01*
X123482075Y-42322629D01*
X123426657Y-42456420D01*
X123426657Y-42456421D01*
X123407754Y-42599999D01*
X78500500Y-42599999D01*
X78500500Y-41697051D01*
X121111795Y-41697051D01*
X121111795Y-41697054D01*
X121132432Y-41853813D01*
X121132433Y-41853815D01*
X121190195Y-41993266D01*
X121192941Y-41999894D01*
X121289195Y-42125335D01*
X121414636Y-42221589D01*
X121560715Y-42282097D01*
X121639096Y-42292416D01*
X121717476Y-42302735D01*
X121717477Y-42302735D01*
X121717478Y-42302735D01*
X121769731Y-42295855D01*
X121874239Y-42282097D01*
X122020318Y-42221589D01*
X122138400Y-42130982D01*
X123670259Y-42130982D01*
X123962500Y-42423223D01*
X123962501Y-42423223D01*
X124254738Y-42130983D01*
X124254738Y-42130982D01*
X124239873Y-42119575D01*
X124227762Y-42114559D01*
X124173360Y-42070717D01*
X124151296Y-42004423D01*
X124168576Y-41936724D01*
X124219714Y-41889114D01*
X124227769Y-41885436D01*
X124239876Y-41880421D01*
X124239880Y-41880419D01*
X124254738Y-41869017D01*
X124254738Y-41869015D01*
X123962501Y-41576777D01*
X123962500Y-41576777D01*
X123670260Y-41869014D01*
X123670260Y-41869015D01*
X123685128Y-41880424D01*
X123697233Y-41885438D01*
X123751637Y-41929279D01*
X123773702Y-41995573D01*
X123756423Y-42063272D01*
X123705287Y-42110883D01*
X123697237Y-42114560D01*
X123685129Y-42119575D01*
X123685121Y-42119580D01*
X123670259Y-42130982D01*
X122138400Y-42130982D01*
X122145759Y-42125335D01*
X122242013Y-41999894D01*
X122302521Y-41853815D01*
X122323159Y-41697053D01*
X122322387Y-41691192D01*
X122308082Y-41582532D01*
X122302521Y-41540291D01*
X122244410Y-41399999D01*
X123407754Y-41399999D01*
X123407754Y-41400000D01*
X123426657Y-41543578D01*
X123426658Y-41543582D01*
X123482075Y-41677373D01*
X123493482Y-41692238D01*
X123493483Y-41692238D01*
X123785723Y-41400000D01*
X123760859Y-41375136D01*
X123837500Y-41375136D01*
X123837500Y-41424864D01*
X123856530Y-41470807D01*
X123891693Y-41505970D01*
X123937636Y-41525000D01*
X123987364Y-41525000D01*
X124033307Y-41505970D01*
X124068470Y-41470807D01*
X124087500Y-41424864D01*
X124087500Y-41399999D01*
X124139277Y-41399999D01*
X124139277Y-41400000D01*
X124431515Y-41692238D01*
X124431517Y-41692238D01*
X124442919Y-41677380D01*
X124442922Y-41677374D01*
X124498342Y-41543579D01*
X124498342Y-41543578D01*
X124517246Y-41400000D01*
X124517246Y-41399999D01*
X124498342Y-41256421D01*
X124498341Y-41256417D01*
X124442926Y-41122631D01*
X124442926Y-41122630D01*
X124431515Y-41107760D01*
X124431514Y-41107760D01*
X124139277Y-41399999D01*
X124087500Y-41399999D01*
X124087500Y-41375136D01*
X124068470Y-41329193D01*
X124033307Y-41294030D01*
X123987364Y-41275000D01*
X123937636Y-41275000D01*
X123891693Y-41294030D01*
X123856530Y-41329193D01*
X123837500Y-41375136D01*
X123760859Y-41375136D01*
X123493482Y-41107759D01*
X123482080Y-41122621D01*
X123482075Y-41122629D01*
X123426657Y-41256420D01*
X123426657Y-41256421D01*
X123407754Y-41399999D01*
X122244410Y-41399999D01*
X122242013Y-41394212D01*
X122145759Y-41268771D01*
X122020318Y-41172517D01*
X122013039Y-41169502D01*
X121874239Y-41112009D01*
X121874237Y-41112008D01*
X121717478Y-41091371D01*
X121717476Y-41091371D01*
X121560716Y-41112008D01*
X121560714Y-41112009D01*
X121414637Y-41172516D01*
X121289195Y-41268771D01*
X121192940Y-41394213D01*
X121132433Y-41540290D01*
X121132432Y-41540292D01*
X121111795Y-41697051D01*
X78500500Y-41697051D01*
X78500500Y-40930982D01*
X123670259Y-40930982D01*
X123962500Y-41223223D01*
X123962501Y-41223223D01*
X124254738Y-40930983D01*
X124254738Y-40930982D01*
X124239872Y-40919575D01*
X124239873Y-40919575D01*
X124106082Y-40864158D01*
X124106078Y-40864157D01*
X123962501Y-40845254D01*
X123962499Y-40845254D01*
X123818921Y-40864157D01*
X123818920Y-40864157D01*
X123685129Y-40919575D01*
X123685121Y-40919580D01*
X123670259Y-40930982D01*
X78500500Y-40930982D01*
X78500500Y-39921786D01*
X124694500Y-39921786D01*
X124694500Y-40600702D01*
X124696699Y-40646056D01*
X124696872Y-40649617D01*
X124699190Y-40673469D01*
X124706284Y-40721937D01*
X124706284Y-40721938D01*
X124750209Y-40847467D01*
X124753805Y-40857744D01*
X124786032Y-40919737D01*
X124792956Y-40933057D01*
X124800792Y-40940315D01*
X124869890Y-41036654D01*
X124983289Y-41125210D01*
X125043917Y-41159939D01*
X125043920Y-41159940D01*
X125068042Y-41169502D01*
X125123110Y-41212504D01*
X125146188Y-41278453D01*
X125145288Y-41300961D01*
X125132250Y-41399997D01*
X125132250Y-41400000D01*
X125146201Y-41505970D01*
X125151170Y-41543708D01*
X125151171Y-41543712D01*
X125206637Y-41677622D01*
X125206638Y-41677624D01*
X125206639Y-41677625D01*
X125294879Y-41792621D01*
X125409875Y-41880861D01*
X125420928Y-41885439D01*
X125475331Y-41929281D01*
X125497395Y-41995575D01*
X125480115Y-42063274D01*
X125428978Y-42110884D01*
X125420933Y-42114558D01*
X125419141Y-42115301D01*
X125409875Y-42119139D01*
X125294879Y-42207379D01*
X125206637Y-42322377D01*
X125151171Y-42456287D01*
X125151170Y-42456291D01*
X125132250Y-42599999D01*
X125132250Y-42600000D01*
X125144530Y-42693274D01*
X125133765Y-42762310D01*
X125087385Y-42814566D01*
X125070231Y-42822277D01*
X125070562Y-42823001D01*
X125062492Y-42826686D01*
X124941462Y-42904468D01*
X124941451Y-42904476D01*
X124888659Y-42950220D01*
X124794433Y-43058961D01*
X124794430Y-43058965D01*
X124734664Y-43189831D01*
X124714976Y-43256879D01*
X124694500Y-43399298D01*
X124694500Y-43585260D01*
X124712852Y-43720225D01*
X124712854Y-43720232D01*
X124730536Y-43784048D01*
X124742433Y-43811767D01*
X124784261Y-43909218D01*
X124784266Y-43909226D01*
X124875116Y-44020795D01*
X124875120Y-44020799D01*
X124909815Y-44052772D01*
X124945774Y-44112678D01*
X124943637Y-44182515D01*
X124940345Y-44191409D01*
X124877457Y-44343234D01*
X124877455Y-44343239D01*
X124856818Y-44499998D01*
X124856818Y-44500001D01*
X124877455Y-44656760D01*
X124877456Y-44656762D01*
X124937964Y-44802841D01*
X125034218Y-44928282D01*
X125159659Y-45024536D01*
X125305738Y-45085044D01*
X125384119Y-45095363D01*
X125462499Y-45105682D01*
X125470006Y-45105682D01*
X125537045Y-45125367D01*
X125582800Y-45178171D01*
X125592744Y-45247329D01*
X125568382Y-45305168D01*
X125509139Y-45382374D01*
X125509138Y-45382376D01*
X125453671Y-45516287D01*
X125453670Y-45516291D01*
X125434750Y-45659999D01*
X125434750Y-45660000D01*
X125453670Y-45803710D01*
X125478041Y-45862549D01*
X125485508Y-45932019D01*
X125478041Y-45957451D01*
X125453670Y-46016289D01*
X125434750Y-46159999D01*
X125434750Y-46160000D01*
X125453670Y-46303710D01*
X125480112Y-46367549D01*
X125487579Y-46437019D01*
X125480112Y-46462450D01*
X125450561Y-46533798D01*
X125449240Y-46533250D01*
X125417441Y-46585403D01*
X125354589Y-46615922D01*
X125334047Y-46617636D01*
X125269707Y-46617636D01*
X125243718Y-46621373D01*
X125200545Y-46627581D01*
X125200540Y-46627582D01*
X125200536Y-46627583D01*
X125062498Y-46668115D01*
X125062492Y-46668118D01*
X124941462Y-46745900D01*
X124941451Y-46745908D01*
X124888659Y-46791652D01*
X124794433Y-46900393D01*
X124794430Y-46900397D01*
X124734664Y-47031263D01*
X124714976Y-47098311D01*
X124694500Y-47240730D01*
X124694500Y-49876065D01*
X124706021Y-49983368D01*
X124706025Y-49983397D01*
X124717198Y-50034825D01*
X124717201Y-50034836D01*
X124751246Y-50137263D01*
X124751248Y-50137266D01*
X124828961Y-50258333D01*
X124828967Y-50258341D01*
X124828969Y-50258344D01*
X124874696Y-50311173D01*
X124874699Y-50311176D01*
X124983386Y-50405455D01*
X125114233Y-50465294D01*
X125181262Y-50485014D01*
X125181264Y-50485014D01*
X125181270Y-50485016D01*
X125304169Y-50502752D01*
X125323664Y-50505566D01*
X143811914Y-50515447D01*
X143811914Y-50515446D01*
X143811918Y-50515447D01*
X143831237Y-50514522D01*
X143860719Y-50513112D01*
X143884553Y-50510813D01*
X143932909Y-50503775D01*
X144068759Y-50456382D01*
X144130782Y-50424213D01*
X144130785Y-50424211D01*
X144247780Y-50340463D01*
X144336441Y-50227145D01*
X144371226Y-50166550D01*
X144424369Y-50032848D01*
X144436237Y-49983397D01*
X147935039Y-35404208D01*
X147935040Y-35404199D01*
X147935042Y-35404193D01*
X147948998Y-35287073D01*
X147949094Y-35229603D01*
X147935531Y-35112444D01*
X147919990Y-35072961D01*
X147882835Y-34978562D01*
X147848253Y-34917852D01*
X147848251Y-34917849D01*
X147759974Y-34804240D01*
X147759973Y-34804239D01*
X147643262Y-34720100D01*
X147643261Y-34720099D01*
X147643259Y-34720098D01*
X147609273Y-34702325D01*
X147565672Y-34679525D01*
X147560313Y-34679621D01*
X147540607Y-34672371D01*
X147540334Y-34672243D01*
X147501444Y-34654061D01*
X147501439Y-34654059D01*
X147501438Y-34654059D01*
X147495438Y-34652238D01*
X147495090Y-34652134D01*
X147366340Y-34613077D01*
X147343888Y-34603777D01*
X147279433Y-34569325D01*
X147259224Y-34555822D01*
X147202728Y-34509457D01*
X147185540Y-34492269D01*
X147139176Y-34435775D01*
X147125672Y-34415566D01*
X147105179Y-34377226D01*
X147091222Y-34351113D01*
X147081921Y-34328657D01*
X147060706Y-34258722D01*
X147055963Y-34234878D01*
X147048801Y-34162149D01*
X147048801Y-34142712D01*
X147048791Y-34142711D01*
X147048679Y-34142713D01*
X147048678Y-34142706D01*
X147048501Y-34142699D01*
X147048649Y-34139385D01*
X147048164Y-34085105D01*
X147047684Y-34031323D01*
X147041581Y-33978962D01*
X147017667Y-33873572D01*
X146952117Y-33745490D01*
X146951187Y-33744176D01*
X146911759Y-33688457D01*
X146812785Y-33584035D01*
X146688398Y-33511725D01*
X146628198Y-33487415D01*
X146626204Y-33486516D01*
X146623603Y-33485559D01*
X146483884Y-33451224D01*
X146483876Y-33451223D01*
X146365193Y-33439534D01*
X146327984Y-33435870D01*
X146319372Y-33435138D01*
X146314431Y-33434718D01*
X146307902Y-33434252D01*
X146294383Y-33433466D01*
X146151198Y-33447570D01*
X146083345Y-33464246D01*
X146083340Y-33464247D01*
X146048208Y-33478434D01*
X145978675Y-33485282D01*
X145916477Y-33453451D01*
X145881363Y-33393046D01*
X145884479Y-33323249D01*
X145930723Y-33188342D01*
X145939036Y-33144512D01*
X145943741Y-33119703D01*
X145943741Y-33119700D01*
X145943742Y-33119696D01*
X145950161Y-32975961D01*
X145948801Y-32962148D01*
X145948801Y-32937843D01*
X145955963Y-32865118D01*
X145960706Y-32841275D01*
X145981921Y-32771340D01*
X145991222Y-32748884D01*
X145991224Y-32748880D01*
X146025675Y-32684426D01*
X146039175Y-32664224D01*
X146085543Y-32607724D01*
X146102724Y-32590543D01*
X146159225Y-32544173D01*
X146179426Y-32530675D01*
X146243885Y-32496221D01*
X146266340Y-32486921D01*
X146336276Y-32465705D01*
X146360114Y-32460963D01*
X146432855Y-32453800D01*
X146457143Y-32453800D01*
X146529881Y-32460963D01*
X146553722Y-32465706D01*
X146623657Y-32486921D01*
X146646113Y-32496222D01*
X146672226Y-32510179D01*
X146710566Y-32530672D01*
X146730775Y-32544176D01*
X146787269Y-32590540D01*
X146804457Y-32607728D01*
X146850822Y-32664224D01*
X146864327Y-32684436D01*
X146898773Y-32748880D01*
X146908075Y-32771337D01*
X146929291Y-32841276D01*
X146934034Y-32865118D01*
X146941197Y-32937845D01*
X146941199Y-32957276D01*
X146941498Y-32957290D01*
X146941349Y-32960611D01*
X146942315Y-33068681D01*
X146942315Y-33068689D01*
X146948416Y-33121031D01*
X146948417Y-33121035D01*
X146969487Y-33213888D01*
X146972332Y-33226427D01*
X147037882Y-33354509D01*
X147078241Y-33411543D01*
X147155080Y-33492611D01*
X147177217Y-33515966D01*
X147301606Y-33588277D01*
X147361801Y-33612583D01*
X147363791Y-33613481D01*
X147366394Y-33614438D01*
X147506117Y-33648775D01*
X147629864Y-33660963D01*
X147629885Y-33660965D01*
X147653720Y-33665705D01*
X147665829Y-33669379D01*
X147786881Y-33690493D01*
X147846645Y-33693534D01*
X147969224Y-33684814D01*
X148105074Y-33637421D01*
X148167097Y-33605252D01*
X148167100Y-33605250D01*
X148284095Y-33521502D01*
X148372756Y-33408184D01*
X148407541Y-33347589D01*
X148460684Y-33213887D01*
X148466815Y-33188342D01*
X149477311Y-28977696D01*
X151254840Y-21570901D01*
X151259776Y-21548011D01*
X151261938Y-21536721D01*
X151265814Y-21513583D01*
X151265813Y-21369703D01*
X151255869Y-21300545D01*
X151215334Y-21162496D01*
X151137546Y-21041457D01*
X151137541Y-21041451D01*
X151091797Y-20988659D01*
X151091793Y-20988656D01*
X151091791Y-20988653D01*
X150983057Y-20894433D01*
X150983054Y-20894431D01*
X150983052Y-20894430D01*
X150852186Y-20834664D01*
X150852181Y-20834662D01*
X150852180Y-20834662D01*
X150785141Y-20814977D01*
X150785143Y-20814977D01*
X150785138Y-20814976D01*
X150737665Y-20808150D01*
X150642721Y-20794500D01*
X139290813Y-20794500D01*
X139260044Y-20795437D01*
X139260029Y-20795437D01*
X139260026Y-20795438D01*
X139244989Y-20796355D01*
X139244986Y-20796355D01*
X139244974Y-20796356D01*
X139214309Y-20799166D01*
X139214306Y-20799166D01*
X139214303Y-20799167D01*
X139075443Y-20836797D01*
X139075440Y-20836798D01*
X139075437Y-20836799D01*
X139023375Y-20859267D01*
X139011289Y-20864484D01*
X138888652Y-20939710D01*
X138888650Y-20939712D01*
X138792167Y-21046447D01*
X138753167Y-21104420D01*
X138753166Y-21104421D01*
X138753164Y-21104427D01*
X138690663Y-21234023D01*
X137872027Y-23820167D01*
X137736774Y-24247444D01*
X137688484Y-24399997D01*
X137688484Y-24399998D01*
X134319501Y-35042917D01*
X134318919Y-35044707D01*
X134152972Y-35542548D01*
X134147886Y-35558703D01*
X134145547Y-35566591D01*
X134141038Y-35582782D01*
X134124929Y-35725747D01*
X134124929Y-35725752D01*
X134127065Y-35795589D01*
X134127370Y-35797790D01*
X134127832Y-35799963D01*
X134151889Y-35937315D01*
X134215635Y-36066303D01*
X134215640Y-36066312D01*
X134255189Y-36123898D01*
X134255190Y-36123899D01*
X134255191Y-36123900D01*
X134352693Y-36229702D01*
X134352695Y-36229703D01*
X134352694Y-36229703D01*
X134419826Y-36269999D01*
X134476056Y-36303751D01*
X134540469Y-36330818D01*
X134540470Y-36330818D01*
X134540998Y-36331040D01*
X134543842Y-36331697D01*
X134638520Y-36356377D01*
X134648196Y-36359325D01*
X134715619Y-36382917D01*
X134740635Y-36394965D01*
X134773266Y-36415468D01*
X134794974Y-36432780D01*
X134822217Y-36460023D01*
X134839529Y-36481732D01*
X134860032Y-36514362D01*
X134872081Y-36539380D01*
X134884809Y-36575755D01*
X134890987Y-36602826D01*
X134895301Y-36641116D01*
X134895301Y-36668881D01*
X134890987Y-36707173D01*
X134884808Y-36734246D01*
X134872081Y-36770617D01*
X134860035Y-36795632D01*
X134839533Y-36828262D01*
X134822219Y-36849973D01*
X134794975Y-36877217D01*
X134773266Y-36894529D01*
X134740636Y-36915032D01*
X134715618Y-36927081D01*
X134679243Y-36939809D01*
X134652172Y-36945987D01*
X134613882Y-36950301D01*
X134586116Y-36950301D01*
X134547827Y-36945987D01*
X134520756Y-36939809D01*
X134470500Y-36922224D01*
X134456706Y-36916186D01*
X134453531Y-36914823D01*
X134317035Y-36869325D01*
X134252307Y-36857616D01*
X134250152Y-36857152D01*
X134248281Y-36856887D01*
X134104497Y-36851687D01*
X134104495Y-36851687D01*
X133965074Y-36887205D01*
X133965062Y-36887209D01*
X133900506Y-36913915D01*
X133818406Y-36962578D01*
X133776737Y-36987276D01*
X133678646Y-37092536D01*
X133673461Y-37099996D01*
X133673458Y-37100001D01*
X133640045Y-37148076D01*
X133639068Y-37149428D01*
X133638770Y-37149910D01*
X133574309Y-37278541D01*
X133574308Y-37278544D01*
X133286401Y-38142264D01*
X133263231Y-38249256D01*
X133257649Y-38302335D01*
X133257648Y-38302355D01*
X133258055Y-38411804D01*
X133265301Y-38476111D01*
X133265301Y-38503877D01*
X133260986Y-38542175D01*
X133254808Y-38569246D01*
X133242081Y-38605618D01*
X133230033Y-38630635D01*
X133209533Y-38663261D01*
X133192220Y-38684971D01*
X133167221Y-38709969D01*
X133167216Y-38709974D01*
X133094654Y-38801660D01*
X133094648Y-38801668D01*
X133064698Y-38850129D01*
X133064695Y-38850136D01*
X133015151Y-38956014D01*
X133015145Y-38956028D01*
X132963918Y-39109712D01*
X132924044Y-39167087D01*
X132859480Y-39193795D01*
X132846281Y-39194500D01*
X131474990Y-39194500D01*
X131342521Y-39212166D01*
X131279802Y-39229197D01*
X131279798Y-39229198D01*
X131156589Y-39280961D01*
X131156587Y-39280962D01*
X131156586Y-39280963D01*
X131044088Y-39370662D01*
X131044086Y-39370663D01*
X131044086Y-39370664D01*
X130996216Y-39421548D01*
X130996213Y-39421551D01*
X130996213Y-39421552D01*
X130913548Y-39539303D01*
X130913547Y-39539305D01*
X130913546Y-39539307D01*
X130867401Y-39675577D01*
X130867399Y-39675586D01*
X130866886Y-39678350D01*
X130866460Y-39679189D01*
X130866284Y-39679865D01*
X130866137Y-39679826D01*
X130835281Y-39740663D01*
X130775004Y-39775998D01*
X130705193Y-39773135D01*
X130648013Y-39732984D01*
X130625997Y-39690624D01*
X130621301Y-39674630D01*
X130588375Y-39562496D01*
X130510587Y-39441457D01*
X130498026Y-39426961D01*
X130464838Y-39388659D01*
X130464834Y-39388656D01*
X130464832Y-39388653D01*
X130356098Y-39294433D01*
X130356095Y-39294431D01*
X130356093Y-39294430D01*
X130225227Y-39234664D01*
X130225222Y-39234662D01*
X130225221Y-39234662D01*
X130162337Y-39216197D01*
X130158179Y-39214976D01*
X130092339Y-39205510D01*
X130015762Y-39194500D01*
X129146213Y-39194500D01*
X129124195Y-39196810D01*
X129041286Y-39205509D01*
X128990927Y-39216195D01*
X128990918Y-39216197D01*
X128890557Y-39248751D01*
X128768733Y-39325301D01*
X128715470Y-39370511D01*
X128715461Y-39370519D01*
X128620142Y-39478283D01*
X128620140Y-39478286D01*
X128559040Y-39608546D01*
X128559037Y-39608553D01*
X128538901Y-39674630D01*
X128538677Y-39675348D01*
X128538082Y-39679211D01*
X128536123Y-39683387D01*
X128535745Y-39684575D01*
X128535589Y-39684525D01*
X128508413Y-39742469D01*
X128449254Y-39779644D01*
X128415530Y-39784318D01*
X128409999Y-39784318D01*
X128253239Y-39804955D01*
X128253237Y-39804956D01*
X128107160Y-39865463D01*
X128033757Y-39921787D01*
X127981718Y-39961718D01*
X127912720Y-40051639D01*
X127885462Y-40087162D01*
X127885057Y-40088140D01*
X127884494Y-40088838D01*
X127881401Y-40094196D01*
X127880564Y-40093713D01*
X127841211Y-40142539D01*
X127824542Y-40148085D01*
X127828175Y-40153738D01*
X127828175Y-40223608D01*
X127825517Y-40231143D01*
X127824955Y-40233239D01*
X127804318Y-40389998D01*
X127804318Y-40390001D01*
X127824955Y-40546760D01*
X127824957Y-40546765D01*
X127861796Y-40635704D01*
X127869265Y-40705174D01*
X127837989Y-40767653D01*
X127813207Y-40788150D01*
X127730636Y-40840033D01*
X127705618Y-40852081D01*
X127669243Y-40864809D01*
X127642172Y-40870987D01*
X127603882Y-40875301D01*
X127576116Y-40875301D01*
X127537826Y-40870987D01*
X127510755Y-40864809D01*
X127474380Y-40852081D01*
X127449362Y-40840032D01*
X127416732Y-40819529D01*
X127395023Y-40802217D01*
X127367782Y-40774976D01*
X127350467Y-40753264D01*
X127338234Y-40733794D01*
X127338230Y-40733790D01*
X127333809Y-40726755D01*
X127329967Y-40720640D01*
X127317919Y-40695622D01*
X127305190Y-40659245D01*
X127299011Y-40632175D01*
X127294696Y-40593870D01*
X127294697Y-40566111D01*
X127296877Y-40546762D01*
X127299010Y-40527825D01*
X127305186Y-40500761D01*
X127317919Y-40464373D01*
X127329966Y-40439361D01*
X127350469Y-40406731D01*
X127367777Y-40385026D01*
X127404265Y-40348538D01*
X127418390Y-40336393D01*
X127450541Y-40312709D01*
X127478282Y-40288918D01*
X127531235Y-40236235D01*
X127604884Y-40121632D01*
X127656186Y-40077179D01*
X127647212Y-40027411D01*
X127651521Y-40005750D01*
X127678583Y-39913583D01*
X127678582Y-39769703D01*
X127668638Y-39700545D01*
X127628103Y-39562496D01*
X127550315Y-39441457D01*
X127537754Y-39426961D01*
X127504566Y-39388659D01*
X127504562Y-39388656D01*
X127504560Y-39388653D01*
X127395826Y-39294433D01*
X127395823Y-39294431D01*
X127395821Y-39294430D01*
X127264955Y-39234664D01*
X127264950Y-39234662D01*
X127264949Y-39234662D01*
X127202065Y-39216197D01*
X127197907Y-39214976D01*
X127132067Y-39205510D01*
X127055490Y-39194500D01*
X127055488Y-39194500D01*
X126121470Y-39194500D01*
X126054431Y-39174815D01*
X126008676Y-39122011D01*
X125998531Y-39054314D01*
X126005682Y-38999999D01*
X126005682Y-38999998D01*
X125985044Y-38843239D01*
X125985044Y-38843238D01*
X125924536Y-38697159D01*
X125828282Y-38571718D01*
X125702841Y-38475464D01*
X125604773Y-38434843D01*
X125556762Y-38414956D01*
X125556760Y-38414955D01*
X125400001Y-38394318D01*
X125399999Y-38394318D01*
X125243239Y-38414955D01*
X125243237Y-38414956D01*
X125097160Y-38475463D01*
X124971718Y-38571718D01*
X124875463Y-38697160D01*
X124814956Y-38843237D01*
X124814955Y-38843239D01*
X124794318Y-38999998D01*
X124794318Y-39000001D01*
X124814955Y-39156760D01*
X124814956Y-39156762D01*
X124875464Y-39302842D01*
X124889214Y-39320761D01*
X124914408Y-39385930D01*
X124900369Y-39454375D01*
X124884550Y-39477450D01*
X124794435Y-39581446D01*
X124794430Y-39581454D01*
X124734664Y-39712320D01*
X124714976Y-39779368D01*
X124710808Y-39808357D01*
X124694500Y-39921786D01*
X78500500Y-39921786D01*
X78500500Y-35780000D01*
X85815156Y-35780000D01*
X85834512Y-36100000D01*
X85892303Y-36415354D01*
X85987671Y-36721402D01*
X85987675Y-36721413D01*
X86119250Y-37013763D01*
X86119251Y-37013765D01*
X86285105Y-37288122D01*
X86482820Y-37540485D01*
X86507778Y-37565443D01*
X86861331Y-37211890D01*
X87038108Y-37388667D01*
X86684555Y-37742220D01*
X86684555Y-37742222D01*
X86709509Y-37767176D01*
X86961877Y-37964894D01*
X87236234Y-38130748D01*
X87236236Y-38130749D01*
X87528586Y-38262324D01*
X87528597Y-38262328D01*
X87834645Y-38357696D01*
X88149999Y-38415487D01*
X88470000Y-38434843D01*
X88790000Y-38415487D01*
X89105354Y-38357696D01*
X89411402Y-38262328D01*
X89411413Y-38262324D01*
X89703763Y-38130749D01*
X89703765Y-38130748D01*
X89978122Y-37964894D01*
X90230481Y-37767183D01*
X90255443Y-37742220D01*
X89901891Y-37388668D01*
X90078668Y-37211891D01*
X90432220Y-37565443D01*
X90457183Y-37540481D01*
X90654894Y-37288122D01*
X90820748Y-37013765D01*
X90820749Y-37013763D01*
X90952324Y-36721413D01*
X90952328Y-36721402D01*
X91047696Y-36415354D01*
X91074333Y-36270000D01*
X95395156Y-36270000D01*
X95414512Y-36590000D01*
X95472303Y-36905354D01*
X95567671Y-37211402D01*
X95567675Y-37211413D01*
X95699250Y-37503763D01*
X95699251Y-37503765D01*
X95865105Y-37778122D01*
X96062820Y-38030485D01*
X96087778Y-38055443D01*
X96441331Y-37701890D01*
X96618108Y-37878667D01*
X96264555Y-38232220D01*
X96264555Y-38232222D01*
X96289509Y-38257176D01*
X96541877Y-38454894D01*
X96816234Y-38620748D01*
X96816236Y-38620749D01*
X97108586Y-38752324D01*
X97108597Y-38752328D01*
X97414645Y-38847696D01*
X97729999Y-38905487D01*
X98050000Y-38924843D01*
X98370000Y-38905487D01*
X98685354Y-38847696D01*
X98991402Y-38752328D01*
X98991413Y-38752324D01*
X99283763Y-38620749D01*
X99283765Y-38620748D01*
X99558122Y-38454894D01*
X99810481Y-38257183D01*
X99835443Y-38232220D01*
X99481891Y-37878668D01*
X99658668Y-37701891D01*
X100012220Y-38055443D01*
X100037183Y-38030481D01*
X100080651Y-37974998D01*
X121394318Y-37974998D01*
X121394318Y-37975001D01*
X121414955Y-38131760D01*
X121414956Y-38131762D01*
X121469036Y-38262324D01*
X121475464Y-38277841D01*
X121571718Y-38403282D01*
X121697159Y-38499536D01*
X121843238Y-38560044D01*
X121921619Y-38570363D01*
X121999999Y-38580682D01*
X122000000Y-38580682D01*
X122000001Y-38580682D01*
X122052254Y-38573802D01*
X122156762Y-38560044D01*
X122302841Y-38499536D01*
X122428282Y-38403282D01*
X122524536Y-38277841D01*
X122585044Y-38131762D01*
X122605682Y-37975000D01*
X122585044Y-37818238D01*
X122524536Y-37672159D01*
X122428282Y-37546718D01*
X122302841Y-37450464D01*
X122156762Y-37389956D01*
X122156760Y-37389955D01*
X122000001Y-37369318D01*
X121999999Y-37369318D01*
X121843239Y-37389955D01*
X121843237Y-37389956D01*
X121697160Y-37450463D01*
X121571718Y-37546718D01*
X121475463Y-37672160D01*
X121414956Y-37818237D01*
X121414955Y-37818239D01*
X121394318Y-37974998D01*
X100080651Y-37974998D01*
X100234894Y-37778122D01*
X100400748Y-37503765D01*
X100400749Y-37503763D01*
X100532324Y-37211413D01*
X100532328Y-37211402D01*
X100627696Y-36905354D01*
X100685487Y-36590000D01*
X100704843Y-36270000D01*
X100685487Y-35949999D01*
X100627696Y-35634645D01*
X100532328Y-35328597D01*
X100532324Y-35328586D01*
X100400749Y-35036236D01*
X100400748Y-35036234D01*
X100234894Y-34761877D01*
X100037179Y-34509514D01*
X100012221Y-34484555D01*
X100012220Y-34484555D01*
X99658667Y-34838108D01*
X99481891Y-34661332D01*
X99835444Y-34307779D01*
X99835444Y-34307777D01*
X99810490Y-34282823D01*
X99558122Y-34085105D01*
X99283765Y-33919251D01*
X99283763Y-33919250D01*
X98991413Y-33787675D01*
X98991402Y-33787671D01*
X98685354Y-33692303D01*
X98370000Y-33634512D01*
X98050000Y-33615156D01*
X97729999Y-33634512D01*
X97414645Y-33692303D01*
X97108597Y-33787671D01*
X97108586Y-33787675D01*
X96816236Y-33919250D01*
X96816234Y-33919251D01*
X96541877Y-34085105D01*
X96289514Y-34282820D01*
X96264555Y-34307779D01*
X96618108Y-34661332D01*
X96441332Y-34838108D01*
X96087779Y-34484555D01*
X96062820Y-34509514D01*
X95865105Y-34761877D01*
X95699251Y-35036234D01*
X95699250Y-35036236D01*
X95567675Y-35328586D01*
X95567671Y-35328597D01*
X95472303Y-35634645D01*
X95414512Y-35949999D01*
X95395156Y-36270000D01*
X91074333Y-36270000D01*
X91105487Y-36100000D01*
X91124843Y-35780000D01*
X91105487Y-35459999D01*
X91047696Y-35144645D01*
X90952328Y-34838597D01*
X90952324Y-34838586D01*
X90820749Y-34546236D01*
X90820748Y-34546234D01*
X90654894Y-34271877D01*
X90457179Y-34019514D01*
X90432221Y-33994555D01*
X90432220Y-33994555D01*
X90078667Y-34348108D01*
X89901891Y-34171332D01*
X90255444Y-33817779D01*
X90255444Y-33817777D01*
X90230490Y-33792823D01*
X89978122Y-33595105D01*
X89703765Y-33429251D01*
X89703763Y-33429250D01*
X89411413Y-33297675D01*
X89411402Y-33297671D01*
X89105354Y-33202303D01*
X88790000Y-33144512D01*
X88470000Y-33125156D01*
X88149999Y-33144512D01*
X87834645Y-33202303D01*
X87528597Y-33297671D01*
X87528586Y-33297675D01*
X87236236Y-33429250D01*
X87236234Y-33429251D01*
X86961877Y-33595105D01*
X86709514Y-33792820D01*
X86684555Y-33817779D01*
X87038108Y-34171332D01*
X86861332Y-34348108D01*
X86507779Y-33994555D01*
X86482820Y-34019514D01*
X86285105Y-34271877D01*
X86119251Y-34546234D01*
X86119250Y-34546236D01*
X85987675Y-34838586D01*
X85987671Y-34838597D01*
X85892303Y-35144645D01*
X85834512Y-35459999D01*
X85815156Y-35780000D01*
X78500500Y-35780000D01*
X78500500Y-26550000D01*
X85870156Y-26550000D01*
X85889512Y-26870000D01*
X85947303Y-27185354D01*
X86042671Y-27491402D01*
X86042675Y-27491413D01*
X86174250Y-27783763D01*
X86174251Y-27783765D01*
X86340105Y-28058122D01*
X86537820Y-28310485D01*
X86562778Y-28335443D01*
X86916331Y-27981890D01*
X87093108Y-28158667D01*
X86739555Y-28512220D01*
X86764514Y-28537179D01*
X87016877Y-28734894D01*
X87291234Y-28900748D01*
X87291236Y-28900749D01*
X87583586Y-29032324D01*
X87583597Y-29032328D01*
X87889645Y-29127696D01*
X88204999Y-29185487D01*
X88525000Y-29204843D01*
X88845000Y-29185487D01*
X89160354Y-29127696D01*
X89466402Y-29032328D01*
X89466413Y-29032324D01*
X89758763Y-28900749D01*
X89758765Y-28900748D01*
X90033122Y-28734894D01*
X90285481Y-28537183D01*
X90310443Y-28512220D01*
X89956891Y-28158668D01*
X90133668Y-27981891D01*
X90487220Y-28335443D01*
X90512183Y-28310481D01*
X90709894Y-28058122D01*
X90875748Y-27783765D01*
X90875749Y-27783763D01*
X91007324Y-27491413D01*
X91007328Y-27491402D01*
X91102696Y-27185354D01*
X91160487Y-26870000D01*
X91179843Y-26550000D01*
X91170770Y-26400000D01*
X95595156Y-26400000D01*
X95614512Y-26720000D01*
X95672303Y-27035354D01*
X95767671Y-27341402D01*
X95767675Y-27341413D01*
X95899250Y-27633763D01*
X95899251Y-27633765D01*
X96065105Y-27908122D01*
X96262820Y-28160485D01*
X96287778Y-28185443D01*
X96641331Y-27831890D01*
X96818108Y-28008667D01*
X96464555Y-28362220D01*
X96464555Y-28362222D01*
X96489509Y-28387176D01*
X96741877Y-28584894D01*
X97016234Y-28750748D01*
X97016236Y-28750749D01*
X97308586Y-28882324D01*
X97308597Y-28882328D01*
X97614645Y-28977696D01*
X97929999Y-29035487D01*
X98250000Y-29054843D01*
X98570000Y-29035487D01*
X98885354Y-28977696D01*
X99191402Y-28882328D01*
X99191413Y-28882324D01*
X99483763Y-28750749D01*
X99483765Y-28750748D01*
X99758122Y-28584894D01*
X100010481Y-28387183D01*
X100035443Y-28362220D01*
X99681891Y-28008668D01*
X99858668Y-27831891D01*
X100212220Y-28185443D01*
X100237183Y-28160481D01*
X100434894Y-27908122D01*
X100600748Y-27633765D01*
X100600749Y-27633763D01*
X100732324Y-27341413D01*
X100732328Y-27341402D01*
X100827696Y-27035354D01*
X100885487Y-26720000D01*
X100904843Y-26400000D01*
X100885487Y-26079999D01*
X100827696Y-25764645D01*
X100732328Y-25458597D01*
X100732324Y-25458586D01*
X100600749Y-25166236D01*
X100600748Y-25166234D01*
X100434894Y-24891877D01*
X100237179Y-24639514D01*
X100212221Y-24614555D01*
X100212220Y-24614555D01*
X99858667Y-24968108D01*
X99681890Y-24791331D01*
X100035444Y-24437778D01*
X100010485Y-24412820D01*
X99994118Y-24399997D01*
X117444706Y-24399997D01*
X117463853Y-24643297D01*
X117463853Y-24643300D01*
X117463854Y-24643302D01*
X117487862Y-24743302D01*
X117520830Y-24880619D01*
X117614222Y-25106089D01*
X117741737Y-25314173D01*
X117741738Y-25314176D01*
X117774864Y-25352961D01*
X117900241Y-25499759D01*
X118017325Y-25599758D01*
X118085823Y-25658261D01*
X118085826Y-25658262D01*
X118293910Y-25785777D01*
X118519381Y-25879169D01*
X118519378Y-25879169D01*
X118519384Y-25879170D01*
X118519388Y-25879172D01*
X118756698Y-25936146D01*
X119000000Y-25955294D01*
X119243302Y-25936146D01*
X119480612Y-25879172D01*
X119706089Y-25785777D01*
X119914179Y-25658259D01*
X120099759Y-25499759D01*
X120258259Y-25314179D01*
X120385777Y-25106089D01*
X120479172Y-24880612D01*
X120536146Y-24643302D01*
X120547424Y-24500000D01*
X123844706Y-24500000D01*
X123863853Y-24743297D01*
X123863853Y-24743300D01*
X123863854Y-24743302D01*
X123914713Y-24955143D01*
X123920830Y-24980619D01*
X124014222Y-25206089D01*
X124141737Y-25414173D01*
X124141738Y-25414176D01*
X124169806Y-25447039D01*
X124300241Y-25599759D01*
X124443897Y-25722453D01*
X124485823Y-25758261D01*
X124485826Y-25758262D01*
X124693910Y-25885777D01*
X124919381Y-25979169D01*
X124919378Y-25979169D01*
X124919384Y-25979170D01*
X124919388Y-25979172D01*
X125156698Y-26036146D01*
X125400000Y-26055294D01*
X125643302Y-26036146D01*
X125880612Y-25979172D01*
X126106089Y-25885777D01*
X126314179Y-25758259D01*
X126499759Y-25599759D01*
X126658259Y-25414179D01*
X126785777Y-25206089D01*
X126879172Y-24980612D01*
X126936146Y-24743302D01*
X126955294Y-24500000D01*
X126939553Y-24299995D01*
X131645093Y-24299995D01*
X131645093Y-24300004D01*
X131664692Y-24561545D01*
X131664693Y-24561550D01*
X131723058Y-24817270D01*
X131818883Y-25061426D01*
X131818882Y-25061426D01*
X131950030Y-25288577D01*
X132076302Y-25446919D01*
X132076303Y-25446919D01*
X132430709Y-25092512D01*
X132446554Y-25114320D01*
X132585680Y-25253446D01*
X132607486Y-25269289D01*
X132253392Y-25623383D01*
X132305835Y-25672043D01*
X132522546Y-25819793D01*
X132522550Y-25819795D01*
X132758854Y-25933594D01*
X132758858Y-25933595D01*
X133009494Y-26010907D01*
X133009500Y-26010909D01*
X133268848Y-26049999D01*
X133268857Y-26050000D01*
X133531143Y-26050000D01*
X133531151Y-26049999D01*
X133790499Y-26010909D01*
X133790505Y-26010907D01*
X134041143Y-25933595D01*
X134277445Y-25819798D01*
X134277454Y-25819793D01*
X134494168Y-25672041D01*
X134546607Y-25623384D01*
X134192512Y-25269289D01*
X134214320Y-25253446D01*
X134353446Y-25114320D01*
X134369289Y-25092512D01*
X134723696Y-25446919D01*
X134849971Y-25288573D01*
X134981116Y-25061426D01*
X135076941Y-24817270D01*
X135135306Y-24561550D01*
X135135307Y-24561545D01*
X135154907Y-24300004D01*
X135154907Y-24299995D01*
X135135307Y-24038454D01*
X135135306Y-24038449D01*
X135076941Y-23782729D01*
X134981116Y-23538573D01*
X134981117Y-23538573D01*
X134849969Y-23311422D01*
X134723696Y-23153079D01*
X134369289Y-23507486D01*
X134353446Y-23485680D01*
X134214320Y-23346554D01*
X134192512Y-23330709D01*
X134546607Y-22976615D01*
X134494164Y-22927956D01*
X134277454Y-22780206D01*
X134277445Y-22780201D01*
X134041142Y-22666404D01*
X134041144Y-22666404D01*
X133790505Y-22589092D01*
X133790499Y-22589090D01*
X133531151Y-22550000D01*
X133268848Y-22550000D01*
X133009500Y-22589090D01*
X133009494Y-22589092D01*
X132758858Y-22666404D01*
X132758854Y-22666405D01*
X132522550Y-22780204D01*
X132522546Y-22780206D01*
X132305835Y-22927956D01*
X132253391Y-22976615D01*
X132607486Y-23330710D01*
X132585680Y-23346554D01*
X132446554Y-23485680D01*
X132430710Y-23507487D01*
X132076302Y-23153079D01*
X131950027Y-23311426D01*
X131818883Y-23538573D01*
X131723058Y-23782729D01*
X131664693Y-24038449D01*
X131664692Y-24038454D01*
X131645093Y-24299995D01*
X126939553Y-24299995D01*
X126936146Y-24256698D01*
X126879172Y-24019388D01*
X126879169Y-24019380D01*
X126785777Y-23793910D01*
X126658262Y-23585826D01*
X126658261Y-23585823D01*
X126572855Y-23485826D01*
X126499759Y-23400241D01*
X126377063Y-23295449D01*
X126314176Y-23241738D01*
X126314173Y-23241737D01*
X126106089Y-23114222D01*
X125880618Y-23020830D01*
X125880621Y-23020830D01*
X125774992Y-22995470D01*
X125643302Y-22963854D01*
X125643300Y-22963853D01*
X125643297Y-22963853D01*
X125400000Y-22944706D01*
X125156702Y-22963853D01*
X125156698Y-22963854D01*
X124946900Y-23014223D01*
X124919380Y-23020830D01*
X124693910Y-23114222D01*
X124485826Y-23241737D01*
X124485823Y-23241738D01*
X124300241Y-23400241D01*
X124141738Y-23585823D01*
X124141737Y-23585826D01*
X124014222Y-23793910D01*
X123920830Y-24019380D01*
X123863853Y-24256702D01*
X123844706Y-24500000D01*
X120547424Y-24500000D01*
X120555294Y-24400000D01*
X120555166Y-24398377D01*
X120543288Y-24247444D01*
X120536146Y-24156698D01*
X120479172Y-23919388D01*
X120479169Y-23919380D01*
X120385777Y-23693910D01*
X120258262Y-23485826D01*
X120258261Y-23485823D01*
X120185167Y-23400241D01*
X120099759Y-23300241D01*
X119977063Y-23195449D01*
X119914176Y-23141738D01*
X119914173Y-23141737D01*
X119706089Y-23014222D01*
X119480618Y-22920830D01*
X119480621Y-22920830D01*
X119374992Y-22895470D01*
X119243302Y-22863854D01*
X119243300Y-22863853D01*
X119243297Y-22863853D01*
X119000000Y-22844706D01*
X118756702Y-22863853D01*
X118519380Y-22920830D01*
X118293910Y-23014222D01*
X118085826Y-23141737D01*
X118085823Y-23141738D01*
X117900241Y-23300241D01*
X117741738Y-23485823D01*
X117741737Y-23485826D01*
X117614222Y-23693910D01*
X117520830Y-23919380D01*
X117463853Y-24156702D01*
X117444706Y-24399997D01*
X99994118Y-24399997D01*
X99758122Y-24215105D01*
X99483765Y-24049251D01*
X99483763Y-24049250D01*
X99191413Y-23917675D01*
X99191402Y-23917671D01*
X98885354Y-23822303D01*
X98570000Y-23764512D01*
X98250000Y-23745156D01*
X97929999Y-23764512D01*
X97614645Y-23822303D01*
X97308597Y-23917671D01*
X97308586Y-23917675D01*
X97016236Y-24049250D01*
X97016234Y-24049251D01*
X96741877Y-24215105D01*
X96489514Y-24412820D01*
X96464555Y-24437779D01*
X96818108Y-24791332D01*
X96641332Y-24968108D01*
X96287779Y-24614555D01*
X96262820Y-24639514D01*
X96065105Y-24891877D01*
X95899251Y-25166234D01*
X95899250Y-25166236D01*
X95767675Y-25458586D01*
X95767671Y-25458597D01*
X95672303Y-25764645D01*
X95614512Y-26079999D01*
X95595156Y-26400000D01*
X91170770Y-26400000D01*
X91160487Y-26229999D01*
X91102696Y-25914645D01*
X91007328Y-25608597D01*
X91007324Y-25608586D01*
X90875749Y-25316236D01*
X90875748Y-25316234D01*
X90709894Y-25041877D01*
X90512179Y-24789514D01*
X90487221Y-24764555D01*
X90487220Y-24764555D01*
X90133667Y-25118108D01*
X89956891Y-24941332D01*
X90310444Y-24587779D01*
X90310444Y-24587777D01*
X90285490Y-24562823D01*
X90033122Y-24365105D01*
X89758765Y-24199251D01*
X89758763Y-24199250D01*
X89466413Y-24067675D01*
X89466402Y-24067671D01*
X89160354Y-23972303D01*
X88845000Y-23914512D01*
X88525000Y-23895156D01*
X88204999Y-23914512D01*
X87889645Y-23972303D01*
X87583597Y-24067671D01*
X87583586Y-24067675D01*
X87291236Y-24199250D01*
X87291234Y-24199251D01*
X87016877Y-24365105D01*
X86764514Y-24562820D01*
X86739555Y-24587779D01*
X87093108Y-24941332D01*
X86916332Y-25118108D01*
X86562779Y-24764555D01*
X86537820Y-24789514D01*
X86340105Y-25041877D01*
X86174251Y-25316234D01*
X86174250Y-25316236D01*
X86042675Y-25608586D01*
X86042671Y-25608597D01*
X85947303Y-25914645D01*
X85889512Y-26229999D01*
X85870156Y-26550000D01*
X78500500Y-26550000D01*
X78500500Y-16624500D01*
X78520185Y-16557461D01*
X78572989Y-16511706D01*
X78624500Y-16500500D01*
X160230500Y-16500500D01*
X160297539Y-16520185D01*
G37*
%TD.AperFunction*%
%TD*%
%TA.AperFunction,Conductor*%
%TO.N,/VDD30*%
G36*
X150709760Y-21319685D02*
G01*
X150755515Y-21372489D01*
X150765459Y-21441647D01*
X150763297Y-21452937D01*
X147969141Y-33095923D01*
X147934356Y-33156518D01*
X147872333Y-33188687D01*
X147812569Y-33185646D01*
X147741133Y-33163976D01*
X147555665Y-33145709D01*
X147490878Y-33119548D01*
X147450519Y-33062514D01*
X147444416Y-33010154D01*
X147450341Y-32950000D01*
X147431024Y-32753868D01*
X147373814Y-32565273D01*
X147373811Y-32565269D01*
X147373811Y-32565266D01*
X147280913Y-32391467D01*
X147280909Y-32391460D01*
X147155883Y-32239116D01*
X147003539Y-32114090D01*
X147003532Y-32114086D01*
X146829733Y-32021188D01*
X146829727Y-32021186D01*
X146641132Y-31963976D01*
X146641129Y-31963975D01*
X146445000Y-31944659D01*
X146248870Y-31963975D01*
X146060266Y-32021188D01*
X145886467Y-32114086D01*
X145886460Y-32114090D01*
X145734116Y-32239116D01*
X145609090Y-32391460D01*
X145609086Y-32391467D01*
X145516188Y-32565266D01*
X145458975Y-32753870D01*
X145439659Y-32950000D01*
X145447095Y-33025505D01*
X145434076Y-33094151D01*
X145386010Y-33144861D01*
X145318160Y-33161535D01*
X145311538Y-33161061D01*
X145145000Y-33144659D01*
X144948870Y-33163975D01*
X144760266Y-33221188D01*
X144586467Y-33314086D01*
X144586460Y-33314090D01*
X144434116Y-33439116D01*
X144309090Y-33591460D01*
X144309086Y-33591467D01*
X144216188Y-33765266D01*
X144158975Y-33953870D01*
X144139659Y-34150000D01*
X144158975Y-34346129D01*
X144216188Y-34534733D01*
X144309086Y-34708532D01*
X144309090Y-34708539D01*
X144434116Y-34860883D01*
X144586460Y-34985909D01*
X144586467Y-34985913D01*
X144760266Y-35078811D01*
X144760269Y-35078811D01*
X144760273Y-35078814D01*
X144948868Y-35136024D01*
X145145000Y-35155341D01*
X145341132Y-35136024D01*
X145529727Y-35078814D01*
X145703538Y-34985910D01*
X145855883Y-34860883D01*
X145980910Y-34708538D01*
X146073814Y-34534727D01*
X146131024Y-34346132D01*
X146150341Y-34150000D01*
X146142904Y-34074493D01*
X146155923Y-34005850D01*
X146203987Y-33955139D01*
X146271838Y-33938464D01*
X146278438Y-33938936D01*
X146434335Y-33954290D01*
X146499121Y-33980451D01*
X146539480Y-34037485D01*
X146545583Y-34089846D01*
X146539659Y-34149998D01*
X146539659Y-34149999D01*
X146558975Y-34346129D01*
X146616188Y-34534733D01*
X146709086Y-34708532D01*
X146709090Y-34708539D01*
X146834116Y-34860883D01*
X146986460Y-34985909D01*
X146986467Y-34985913D01*
X147160266Y-35078811D01*
X147160269Y-35078811D01*
X147160273Y-35078814D01*
X147348868Y-35136024D01*
X147348870Y-35136024D01*
X147354698Y-35137792D01*
X147354212Y-35139391D01*
X147409013Y-35168048D01*
X147443595Y-35228759D01*
X147443499Y-35286229D01*
X143932826Y-49914884D01*
X143898041Y-49975479D01*
X143836018Y-50007648D01*
X143812184Y-50009947D01*
X125323934Y-50000066D01*
X125256905Y-49980346D01*
X125211178Y-49927517D01*
X125200000Y-49876066D01*
X125200000Y-47240729D01*
X125219685Y-47173690D01*
X125272489Y-47127935D01*
X125341647Y-47117991D01*
X125405203Y-47147016D01*
X125411681Y-47153048D01*
X125519109Y-47260476D01*
X125519115Y-47260481D01*
X125662302Y-47350452D01*
X125662305Y-47350454D01*
X125662309Y-47350455D01*
X125662310Y-47350456D01*
X125734913Y-47375860D01*
X125821943Y-47406314D01*
X125989997Y-47425249D01*
X125996728Y-47425249D01*
X126063767Y-47444934D01*
X126109522Y-47497738D01*
X126113770Y-47508295D01*
X126169544Y-47667691D01*
X126169547Y-47667697D01*
X126259518Y-47810884D01*
X126259523Y-47810890D01*
X126379109Y-47930476D01*
X126379115Y-47930481D01*
X126522302Y-48020452D01*
X126522305Y-48020454D01*
X126522309Y-48020455D01*
X126522310Y-48020456D01*
X126594913Y-48045860D01*
X126681943Y-48076314D01*
X126849997Y-48095249D01*
X126850000Y-48095249D01*
X126850003Y-48095249D01*
X126950835Y-48083887D01*
X127018059Y-48076313D01*
X127177690Y-48020456D01*
X127238801Y-47982056D01*
X127306037Y-47963056D01*
X127318653Y-47963829D01*
X127366164Y-47969183D01*
X127419998Y-47975249D01*
X127420000Y-47975249D01*
X127420003Y-47975249D01*
X127588055Y-47956314D01*
X127588057Y-47956313D01*
X127588059Y-47956313D01*
X127615465Y-47946722D01*
X127685243Y-47943160D01*
X127697375Y-47946723D01*
X127781939Y-47976313D01*
X127949997Y-47995249D01*
X127950000Y-47995249D01*
X127950003Y-47995249D01*
X128118056Y-47976314D01*
X128121100Y-47975249D01*
X128277690Y-47920456D01*
X128277692Y-47920454D01*
X128277694Y-47920454D01*
X128277697Y-47920452D01*
X128420884Y-47830481D01*
X128420885Y-47830480D01*
X128420890Y-47830477D01*
X128540477Y-47710890D01*
X128630452Y-47567697D01*
X128630454Y-47567694D01*
X128630454Y-47567692D01*
X128630456Y-47567690D01*
X128686313Y-47408059D01*
X128686313Y-47408058D01*
X128686314Y-47408056D01*
X128705249Y-47240002D01*
X128705249Y-47239997D01*
X128686314Y-47071943D01*
X128630454Y-46912305D01*
X128630452Y-46912302D01*
X128540481Y-46769115D01*
X128540476Y-46769109D01*
X128420890Y-46649523D01*
X128420884Y-46649518D01*
X128277697Y-46559547D01*
X128277694Y-46559545D01*
X128118056Y-46503685D01*
X127985248Y-46488722D01*
X127920834Y-46461655D01*
X127881279Y-46404061D01*
X127875912Y-46351618D01*
X127895249Y-46180002D01*
X127895249Y-46179997D01*
X127876314Y-46011946D01*
X127876313Y-46011944D01*
X127876313Y-46011941D01*
X127847973Y-45930952D01*
X127844413Y-45861176D01*
X127847974Y-45849046D01*
X127876313Y-45768059D01*
X127879038Y-45743881D01*
X127895249Y-45600002D01*
X127895249Y-45599997D01*
X127876314Y-45431943D01*
X127820454Y-45272305D01*
X127820452Y-45272302D01*
X127730481Y-45129115D01*
X127730476Y-45129109D01*
X127610890Y-45009523D01*
X127610884Y-45009518D01*
X127545636Y-44968520D01*
X127499345Y-44916186D01*
X127488388Y-44849643D01*
X127505249Y-44700002D01*
X127505249Y-44699997D01*
X127493982Y-44599996D01*
X134794435Y-44599996D01*
X134794435Y-44600003D01*
X134814630Y-44779249D01*
X134814631Y-44779254D01*
X134874211Y-44949523D01*
X134910439Y-45007179D01*
X134970184Y-45102262D01*
X135097738Y-45229816D01*
X135250478Y-45325789D01*
X135352500Y-45361488D01*
X135420745Y-45385368D01*
X135420750Y-45385369D01*
X135599996Y-45405565D01*
X135600000Y-45405565D01*
X135600004Y-45405565D01*
X135779249Y-45385369D01*
X135779250Y-45385368D01*
X135779255Y-45385368D01*
X135847500Y-45361487D01*
X135917276Y-45357925D01*
X135977904Y-45392653D01*
X136010132Y-45454646D01*
X136012030Y-45468289D01*
X136014890Y-45502812D01*
X136014892Y-45502824D01*
X136075936Y-45743881D01*
X136175826Y-45971606D01*
X136311833Y-46179782D01*
X136311836Y-46179785D01*
X136480256Y-46362738D01*
X136676491Y-46515474D01*
X136895190Y-46633828D01*
X137130386Y-46714571D01*
X137375665Y-46755500D01*
X137624335Y-46755500D01*
X137869614Y-46714571D01*
X138104810Y-46633828D01*
X138323509Y-46515474D01*
X138519744Y-46362738D01*
X138688164Y-46179785D01*
X138824173Y-45971607D01*
X138924063Y-45743881D01*
X138985108Y-45502821D01*
X138985109Y-45502812D01*
X139005643Y-45255005D01*
X139005643Y-45254994D01*
X138985109Y-45007187D01*
X138985107Y-45007175D01*
X138924063Y-44766118D01*
X138824173Y-44538393D01*
X138688166Y-44330217D01*
X138656472Y-44295788D01*
X138596939Y-44231118D01*
X138566018Y-44168466D01*
X138573878Y-44099039D01*
X138618025Y-44044884D01*
X138647218Y-44030095D01*
X138659519Y-44025790D01*
X138659518Y-44025790D01*
X138659522Y-44025789D01*
X138812262Y-43929816D01*
X138939816Y-43802262D01*
X139035789Y-43649522D01*
X139095368Y-43479255D01*
X139109340Y-43355249D01*
X139115565Y-43300003D01*
X139115565Y-43299996D01*
X139095369Y-43120750D01*
X139095368Y-43120745D01*
X139035788Y-42950476D01*
X138939815Y-42797737D01*
X138812262Y-42670184D01*
X138659523Y-42574211D01*
X138489254Y-42514631D01*
X138489249Y-42514630D01*
X138310004Y-42494435D01*
X138309996Y-42494435D01*
X138130750Y-42514630D01*
X138130745Y-42514631D01*
X137960476Y-42574211D01*
X137807737Y-42670184D01*
X137680184Y-42797737D01*
X137584211Y-42950476D01*
X137524631Y-43120745D01*
X137524630Y-43120750D01*
X137504435Y-43299996D01*
X137504435Y-43300003D01*
X137524630Y-43479249D01*
X137524632Y-43479257D01*
X137563224Y-43589546D01*
X137566785Y-43659324D01*
X137532056Y-43719952D01*
X137470063Y-43752179D01*
X137446182Y-43754500D01*
X137375665Y-43754500D01*
X137130383Y-43795429D01*
X136895197Y-43876169D01*
X136895188Y-43876172D01*
X136676493Y-43994524D01*
X136480256Y-44147261D01*
X136459801Y-44169482D01*
X136399913Y-44205472D01*
X136330075Y-44203371D01*
X136272459Y-44163846D01*
X136263578Y-44151470D01*
X136229815Y-44097737D01*
X136102262Y-43970184D01*
X135949523Y-43874211D01*
X135779254Y-43814631D01*
X135779249Y-43814630D01*
X135600004Y-43794435D01*
X135599996Y-43794435D01*
X135420750Y-43814630D01*
X135420745Y-43814631D01*
X135250476Y-43874211D01*
X135097737Y-43970184D01*
X134970184Y-44097737D01*
X134874211Y-44250476D01*
X134814631Y-44420745D01*
X134814630Y-44420750D01*
X134794435Y-44599996D01*
X127493982Y-44599996D01*
X127486314Y-44531943D01*
X127430454Y-44372305D01*
X127430452Y-44372302D01*
X127340481Y-44229115D01*
X127340476Y-44229109D01*
X127220890Y-44109523D01*
X127220884Y-44109518D01*
X127077697Y-44019547D01*
X127077694Y-44019545D01*
X126918056Y-43963685D01*
X126750003Y-43944751D01*
X126749997Y-43944751D01*
X126581943Y-43963685D01*
X126422307Y-44019545D01*
X126300540Y-44096057D01*
X126233303Y-44115057D01*
X126166468Y-44094689D01*
X126129574Y-44057034D01*
X126092318Y-43997740D01*
X125964762Y-43870184D01*
X125812023Y-43774211D01*
X125641754Y-43714631D01*
X125641749Y-43714630D01*
X125462504Y-43694435D01*
X125462496Y-43694435D01*
X125337883Y-43708475D01*
X125269061Y-43696420D01*
X125217682Y-43649071D01*
X125200000Y-43585255D01*
X125200000Y-43569996D01*
X127824435Y-43569996D01*
X127824435Y-43570003D01*
X127844630Y-43749249D01*
X127844631Y-43749254D01*
X127904211Y-43919523D01*
X127973689Y-44030095D01*
X128000184Y-44072262D01*
X128127738Y-44199816D01*
X128280478Y-44295789D01*
X128378862Y-44330215D01*
X128450745Y-44355368D01*
X128450750Y-44355369D01*
X128629996Y-44375565D01*
X128630000Y-44375565D01*
X128630004Y-44375565D01*
X128809249Y-44355369D01*
X128809252Y-44355368D01*
X128809255Y-44355368D01*
X128979522Y-44295789D01*
X129132262Y-44199816D01*
X129259816Y-44072262D01*
X129355789Y-43919522D01*
X129415368Y-43749255D01*
X129419269Y-43714631D01*
X129435565Y-43570003D01*
X129435565Y-43569996D01*
X129415369Y-43390750D01*
X129415368Y-43390745D01*
X129396321Y-43336313D01*
X129355789Y-43220478D01*
X129336937Y-43190476D01*
X129293126Y-43120750D01*
X129259816Y-43067738D01*
X129132262Y-42940184D01*
X129112378Y-42927690D01*
X128979523Y-42844211D01*
X128809254Y-42784631D01*
X128809249Y-42784630D01*
X128630004Y-42764435D01*
X128629996Y-42764435D01*
X128450750Y-42784630D01*
X128450745Y-42784631D01*
X128280476Y-42844211D01*
X128127737Y-42940184D01*
X128000184Y-43067737D01*
X127904211Y-43220476D01*
X127844631Y-43390745D01*
X127844630Y-43390750D01*
X127824435Y-43569996D01*
X125200000Y-43569996D01*
X125200000Y-43399297D01*
X125219685Y-43332258D01*
X125272489Y-43286503D01*
X125341647Y-43276559D01*
X125364952Y-43282255D01*
X125411696Y-43298611D01*
X125519439Y-43336313D01*
X125687497Y-43355249D01*
X125687500Y-43355249D01*
X125687503Y-43355249D01*
X125855556Y-43336314D01*
X125855559Y-43336313D01*
X126015190Y-43280456D01*
X126015192Y-43280454D01*
X126015194Y-43280454D01*
X126015197Y-43280452D01*
X126158384Y-43190481D01*
X126158385Y-43190480D01*
X126158390Y-43190477D01*
X126277977Y-43070890D01*
X126279958Y-43067737D01*
X126367952Y-42927697D01*
X126367954Y-42927694D01*
X126367954Y-42927692D01*
X126367956Y-42927690D01*
X126423813Y-42768059D01*
X126423813Y-42768058D01*
X126423814Y-42768056D01*
X126442749Y-42600002D01*
X126442749Y-42599997D01*
X126423814Y-42431943D01*
X126367954Y-42272305D01*
X126367952Y-42272302D01*
X126277981Y-42129115D01*
X126277976Y-42129109D01*
X126236548Y-42087681D01*
X126203063Y-42026358D01*
X126208047Y-41956666D01*
X126236548Y-41912319D01*
X126277977Y-41870890D01*
X126291106Y-41849996D01*
X136024435Y-41849996D01*
X136024435Y-41850003D01*
X136044630Y-42029249D01*
X136044631Y-42029254D01*
X136104211Y-42199523D01*
X136181334Y-42322262D01*
X136200184Y-42352262D01*
X136327738Y-42479816D01*
X136418080Y-42536582D01*
X136477966Y-42574211D01*
X136480478Y-42575789D01*
X136549675Y-42600002D01*
X136650745Y-42635368D01*
X136650750Y-42635369D01*
X136829996Y-42655565D01*
X136830000Y-42655565D01*
X136830004Y-42655565D01*
X137009249Y-42635369D01*
X137009252Y-42635368D01*
X137009255Y-42635368D01*
X137179522Y-42575789D01*
X137332262Y-42479816D01*
X137459816Y-42352262D01*
X137555789Y-42199522D01*
X137615368Y-42029255D01*
X137615369Y-42029249D01*
X137635565Y-41850003D01*
X137635565Y-41849996D01*
X137632185Y-41819996D01*
X139054435Y-41819996D01*
X139054435Y-41820003D01*
X139074630Y-41999249D01*
X139074631Y-41999254D01*
X139134211Y-42169523D01*
X139198792Y-42272302D01*
X139230184Y-42322262D01*
X139357738Y-42449816D01*
X139510478Y-42545789D01*
X139665396Y-42599997D01*
X139680745Y-42605368D01*
X139680750Y-42605369D01*
X139859996Y-42625565D01*
X139860000Y-42625565D01*
X139860004Y-42625565D01*
X140039249Y-42605369D01*
X140039252Y-42605368D01*
X140039255Y-42605368D01*
X140209522Y-42545789D01*
X140362262Y-42449816D01*
X140489816Y-42322262D01*
X140585789Y-42169522D01*
X140645368Y-41999255D01*
X140650167Y-41956666D01*
X140665565Y-41820003D01*
X140665565Y-41819996D01*
X140645369Y-41640750D01*
X140645368Y-41640745D01*
X140585788Y-41470476D01*
X140541503Y-41399997D01*
X140489816Y-41317738D01*
X140362262Y-41190184D01*
X140338684Y-41175369D01*
X140209523Y-41094211D01*
X140039254Y-41034631D01*
X140039249Y-41034630D01*
X139860004Y-41014435D01*
X139859996Y-41014435D01*
X139680750Y-41034630D01*
X139680745Y-41034631D01*
X139510476Y-41094211D01*
X139357737Y-41190184D01*
X139230184Y-41317737D01*
X139134211Y-41470476D01*
X139074631Y-41640745D01*
X139074630Y-41640750D01*
X139054435Y-41819996D01*
X137632185Y-41819996D01*
X137615369Y-41670750D01*
X137615368Y-41670745D01*
X137604872Y-41640750D01*
X137555789Y-41500478D01*
X137536937Y-41470476D01*
X137492654Y-41400000D01*
X137459816Y-41347738D01*
X137332262Y-41220184D01*
X137179523Y-41124211D01*
X137009254Y-41064631D01*
X137009249Y-41064630D01*
X136830004Y-41044435D01*
X136829996Y-41044435D01*
X136650750Y-41064630D01*
X136650745Y-41064631D01*
X136480476Y-41124211D01*
X136327737Y-41220184D01*
X136200184Y-41347737D01*
X136104211Y-41500476D01*
X136044631Y-41670745D01*
X136044630Y-41670750D01*
X136024435Y-41849996D01*
X126291106Y-41849996D01*
X126309952Y-41820003D01*
X126367952Y-41727697D01*
X126367954Y-41727694D01*
X126367954Y-41727692D01*
X126367956Y-41727690D01*
X126423813Y-41568059D01*
X126423813Y-41568058D01*
X126423814Y-41568056D01*
X126442749Y-41400002D01*
X126442749Y-41399997D01*
X126423814Y-41231943D01*
X126383170Y-41115789D01*
X126367956Y-41072310D01*
X126367955Y-41072309D01*
X126367954Y-41072305D01*
X126367952Y-41072302D01*
X126277981Y-40929115D01*
X126277976Y-40929109D01*
X126158390Y-40809523D01*
X126158384Y-40809518D01*
X126015197Y-40719547D01*
X126015194Y-40719545D01*
X125855556Y-40663685D01*
X125687503Y-40644751D01*
X125687497Y-40644751D01*
X125519443Y-40663685D01*
X125394200Y-40707510D01*
X125364953Y-40717744D01*
X125295176Y-40721305D01*
X125234548Y-40686576D01*
X125202321Y-40624583D01*
X125200000Y-40600702D01*
X125200000Y-39921786D01*
X125219685Y-39854747D01*
X125272489Y-39808992D01*
X125337882Y-39798566D01*
X125371897Y-39802398D01*
X125399998Y-39805565D01*
X125400000Y-39805565D01*
X125400004Y-39805565D01*
X125579249Y-39785369D01*
X125579252Y-39785368D01*
X125579255Y-39785368D01*
X125749522Y-39725789D01*
X125760315Y-39719006D01*
X125826289Y-39700000D01*
X127055490Y-39700000D01*
X127122529Y-39719685D01*
X127168284Y-39772489D01*
X127178228Y-39841647D01*
X127149203Y-39905203D01*
X127121462Y-39928994D01*
X127087737Y-39950184D01*
X126960184Y-40077737D01*
X126864211Y-40230476D01*
X126804631Y-40400745D01*
X126804630Y-40400750D01*
X126784435Y-40579996D01*
X126784435Y-40580003D01*
X126804630Y-40759249D01*
X126804631Y-40759254D01*
X126864211Y-40929523D01*
X126927229Y-41029815D01*
X126960184Y-41082262D01*
X127087738Y-41209816D01*
X127240478Y-41305789D01*
X127410745Y-41365368D01*
X127410750Y-41365369D01*
X127589996Y-41385565D01*
X127590000Y-41385565D01*
X127590004Y-41385565D01*
X127769249Y-41365369D01*
X127769252Y-41365368D01*
X127769255Y-41365368D01*
X127939522Y-41305789D01*
X128092262Y-41209816D01*
X128098580Y-41203498D01*
X128159902Y-41170010D01*
X128223937Y-41173933D01*
X128223963Y-41173820D01*
X128224652Y-41173977D01*
X128227220Y-41174134D01*
X128230745Y-41175368D01*
X128230751Y-41175368D01*
X128230752Y-41175369D01*
X128409996Y-41195565D01*
X128410000Y-41195565D01*
X128410004Y-41195565D01*
X128589249Y-41175369D01*
X128589252Y-41175368D01*
X128589255Y-41175368D01*
X128759522Y-41115789D01*
X128912262Y-41019816D01*
X129039816Y-40892262D01*
X129135789Y-40739522D01*
X129195368Y-40569255D01*
X129214354Y-40400750D01*
X129215565Y-40390003D01*
X129215565Y-40389996D01*
X129195369Y-40210750D01*
X129195368Y-40210745D01*
X129135788Y-40040475D01*
X129046099Y-39897738D01*
X129041219Y-39889972D01*
X129022219Y-39822736D01*
X129042586Y-39755901D01*
X129095854Y-39710686D01*
X129146213Y-39700000D01*
X130015762Y-39700000D01*
X130082801Y-39719685D01*
X130128556Y-39772489D01*
X130138500Y-39841647D01*
X130117330Y-39890626D01*
X130119265Y-39891842D01*
X130115560Y-39897737D01*
X130115560Y-39897738D01*
X130100450Y-39921786D01*
X130019587Y-40050476D01*
X129960007Y-40220745D01*
X129960006Y-40220750D01*
X129939811Y-40399996D01*
X129939811Y-40400003D01*
X129960006Y-40579249D01*
X129960007Y-40579254D01*
X130019587Y-40749523D01*
X130057285Y-40809518D01*
X130115560Y-40902262D01*
X130243114Y-41029816D01*
X130310730Y-41072302D01*
X130393342Y-41124211D01*
X130395854Y-41125789D01*
X130566121Y-41185368D01*
X130566126Y-41185369D01*
X130745372Y-41205565D01*
X130745376Y-41205565D01*
X130745380Y-41205565D01*
X130924625Y-41185369D01*
X130924628Y-41185368D01*
X130924631Y-41185368D01*
X131094898Y-41125789D01*
X131247638Y-41029816D01*
X131375192Y-40902262D01*
X131471165Y-40749522D01*
X131530744Y-40579255D01*
X131531871Y-40569254D01*
X131550941Y-40400003D01*
X131550941Y-40399996D01*
X131530745Y-40220750D01*
X131530744Y-40220745D01*
X131527245Y-40210745D01*
X131471165Y-40050478D01*
X131375192Y-39897738D01*
X131375191Y-39897737D01*
X131371487Y-39891842D01*
X131373625Y-39890498D01*
X131351633Y-39836615D01*
X131364396Y-39767921D01*
X131412271Y-39717031D01*
X131474990Y-39700000D01*
X133299999Y-39700000D01*
X133300000Y-39700000D01*
X133494705Y-39115883D01*
X133524656Y-39067421D01*
X133599816Y-38992262D01*
X133695789Y-38839522D01*
X133755368Y-38669255D01*
X133774438Y-38500003D01*
X133774439Y-38499996D01*
X140969435Y-38499996D01*
X140969435Y-38500003D01*
X140989630Y-38679249D01*
X140989631Y-38679254D01*
X141049211Y-38849523D01*
X141080928Y-38900000D01*
X141145184Y-39002262D01*
X141272738Y-39129816D01*
X141425478Y-39225789D01*
X141567167Y-39275368D01*
X141595745Y-39285368D01*
X141595750Y-39285369D01*
X141774996Y-39305565D01*
X141775000Y-39305565D01*
X141775004Y-39305565D01*
X141954249Y-39285369D01*
X141954252Y-39285368D01*
X141954255Y-39285368D01*
X142124522Y-39225789D01*
X142277262Y-39129816D01*
X142404816Y-39002262D01*
X142500789Y-38849522D01*
X142560368Y-38679255D01*
X142561495Y-38669254D01*
X142580565Y-38500003D01*
X142580565Y-38499996D01*
X142560369Y-38320750D01*
X142560368Y-38320745D01*
X142556869Y-38310745D01*
X142500789Y-38150478D01*
X142478265Y-38114632D01*
X142404815Y-37997737D01*
X142277262Y-37870184D01*
X142124523Y-37774211D01*
X141954254Y-37714631D01*
X141954249Y-37714630D01*
X141775004Y-37694435D01*
X141774996Y-37694435D01*
X141595750Y-37714630D01*
X141595745Y-37714631D01*
X141425476Y-37774211D01*
X141272737Y-37870184D01*
X141145184Y-37997737D01*
X141049211Y-38150476D01*
X140989631Y-38320745D01*
X140989630Y-38320750D01*
X140969435Y-38499996D01*
X133774439Y-38499996D01*
X133775565Y-38490003D01*
X133775565Y-38489998D01*
X133770974Y-38449255D01*
X133760377Y-38355206D01*
X133765959Y-38302122D01*
X134053867Y-37438398D01*
X134093741Y-37381025D01*
X134158304Y-37354316D01*
X134227058Y-37366753D01*
X134237476Y-37372619D01*
X134250478Y-37380789D01*
X134379081Y-37425789D01*
X134420745Y-37440368D01*
X134420750Y-37440369D01*
X134599996Y-37460565D01*
X134600000Y-37460565D01*
X134600004Y-37460565D01*
X134779249Y-37440369D01*
X134779252Y-37440368D01*
X134779255Y-37440368D01*
X134949522Y-37380789D01*
X135102262Y-37284816D01*
X135229816Y-37157262D01*
X135265799Y-37099996D01*
X139469435Y-37099996D01*
X139469435Y-37100003D01*
X139489630Y-37279249D01*
X139489631Y-37279254D01*
X139549211Y-37449523D01*
X139635638Y-37587070D01*
X139645184Y-37602262D01*
X139772738Y-37729816D01*
X139925478Y-37825789D01*
X140052329Y-37870176D01*
X140095745Y-37885368D01*
X140095750Y-37885369D01*
X140274996Y-37905565D01*
X140275000Y-37905565D01*
X140275004Y-37905565D01*
X140454249Y-37885369D01*
X140454252Y-37885368D01*
X140454255Y-37885368D01*
X140624522Y-37825789D01*
X140777262Y-37729816D01*
X140904816Y-37602262D01*
X141000789Y-37449522D01*
X141060368Y-37279255D01*
X141069043Y-37202262D01*
X141080565Y-37100003D01*
X141080565Y-37099996D01*
X142469435Y-37099996D01*
X142469435Y-37100003D01*
X142489630Y-37279249D01*
X142489631Y-37279254D01*
X142549211Y-37449523D01*
X142635638Y-37587070D01*
X142645184Y-37602262D01*
X142772738Y-37729816D01*
X142925478Y-37825789D01*
X143052329Y-37870176D01*
X143095745Y-37885368D01*
X143095750Y-37885369D01*
X143274996Y-37905565D01*
X143275000Y-37905565D01*
X143275004Y-37905565D01*
X143454249Y-37885369D01*
X143454252Y-37885368D01*
X143454255Y-37885368D01*
X143624522Y-37825789D01*
X143777262Y-37729816D01*
X143904816Y-37602262D01*
X144000789Y-37449522D01*
X144060368Y-37279255D01*
X144069043Y-37202262D01*
X144080565Y-37100003D01*
X144080565Y-37099996D01*
X144060369Y-36920750D01*
X144060368Y-36920745D01*
X144000788Y-36750476D01*
X143940796Y-36655000D01*
X143904816Y-36597738D01*
X143777262Y-36470184D01*
X143624523Y-36374211D01*
X143454254Y-36314631D01*
X143454249Y-36314630D01*
X143275004Y-36294435D01*
X143274996Y-36294435D01*
X143095750Y-36314630D01*
X143095745Y-36314631D01*
X142925476Y-36374211D01*
X142772737Y-36470184D01*
X142645184Y-36597737D01*
X142549211Y-36750476D01*
X142489631Y-36920745D01*
X142489630Y-36920750D01*
X142469435Y-37099996D01*
X141080565Y-37099996D01*
X141060369Y-36920750D01*
X141060368Y-36920745D01*
X141000788Y-36750476D01*
X140940796Y-36655000D01*
X140904816Y-36597738D01*
X140777262Y-36470184D01*
X140624523Y-36374211D01*
X140454254Y-36314631D01*
X140454249Y-36314630D01*
X140275004Y-36294435D01*
X140274996Y-36294435D01*
X140095750Y-36314630D01*
X140095745Y-36314631D01*
X139925476Y-36374211D01*
X139772737Y-36470184D01*
X139645184Y-36597737D01*
X139549211Y-36750476D01*
X139489631Y-36920745D01*
X139489630Y-36920750D01*
X139469435Y-37099996D01*
X135265799Y-37099996D01*
X135325789Y-37004522D01*
X135385368Y-36834255D01*
X135385369Y-36834249D01*
X135405565Y-36655003D01*
X135405565Y-36654996D01*
X135385369Y-36475750D01*
X135385368Y-36475745D01*
X135328992Y-36314632D01*
X135325789Y-36305478D01*
X135229816Y-36152738D01*
X135102262Y-36025184D01*
X134949523Y-35929211D01*
X134779252Y-35869631D01*
X134736298Y-35864791D01*
X134671885Y-35837724D01*
X134632330Y-35780129D01*
X134630193Y-35710292D01*
X134632537Y-35702386D01*
X134800000Y-35200000D01*
X138218705Y-24399998D01*
X142745019Y-24399998D01*
X142745019Y-24400001D01*
X142764918Y-24678223D01*
X142764919Y-24678230D01*
X142824207Y-24950774D01*
X142921689Y-25212134D01*
X143055361Y-25456938D01*
X143155602Y-25590843D01*
X143656320Y-25090125D01*
X143746554Y-25214320D01*
X143885680Y-25353446D01*
X144009873Y-25443678D01*
X143509155Y-25944396D01*
X143643061Y-26044637D01*
X143643061Y-26044638D01*
X143887865Y-26178310D01*
X144149225Y-26275792D01*
X144421769Y-26335080D01*
X144421776Y-26335081D01*
X144699999Y-26354981D01*
X144700001Y-26354981D01*
X144978223Y-26335081D01*
X144978230Y-26335080D01*
X145250774Y-26275792D01*
X145512134Y-26178310D01*
X145756942Y-26044635D01*
X145890842Y-25944396D01*
X145890843Y-25944396D01*
X145390126Y-25443678D01*
X145514320Y-25353446D01*
X145653446Y-25214320D01*
X145743679Y-25090126D01*
X146244396Y-25590843D01*
X146244396Y-25590842D01*
X146344635Y-25456942D01*
X146478310Y-25212134D01*
X146575792Y-24950774D01*
X146635080Y-24678230D01*
X146635081Y-24678223D01*
X146654981Y-24400001D01*
X146654981Y-24399998D01*
X146635081Y-24121776D01*
X146635080Y-24121769D01*
X146575792Y-23849225D01*
X146478310Y-23587865D01*
X146344638Y-23343061D01*
X146244396Y-23209155D01*
X145743678Y-23709873D01*
X145653446Y-23585680D01*
X145514320Y-23446554D01*
X145390125Y-23356320D01*
X145890843Y-22855602D01*
X145756938Y-22755362D01*
X145756938Y-22755361D01*
X145512134Y-22621689D01*
X145250774Y-22524207D01*
X144978230Y-22464919D01*
X144978223Y-22464918D01*
X144700001Y-22445019D01*
X144699999Y-22445019D01*
X144421776Y-22464918D01*
X144421769Y-22464919D01*
X144149225Y-22524207D01*
X143887865Y-22621689D01*
X143643061Y-22755361D01*
X143643054Y-22755366D01*
X143509156Y-22855601D01*
X143509155Y-22855602D01*
X144009874Y-23356320D01*
X143885680Y-23446554D01*
X143746554Y-23585680D01*
X143656320Y-23709873D01*
X143155602Y-23209155D01*
X143155601Y-23209156D01*
X143055366Y-23343054D01*
X143055361Y-23343061D01*
X142921689Y-23587865D01*
X142824207Y-23849225D01*
X142764919Y-24121769D01*
X142764918Y-24121776D01*
X142745019Y-24399998D01*
X138218705Y-24399998D01*
X139172594Y-21386577D01*
X139211593Y-21328605D01*
X139275743Y-21300919D01*
X139290813Y-21300000D01*
X150642721Y-21300000D01*
X150709760Y-21319685D01*
G37*
%TD.AperFunction*%
%TD*%
M02*
