%TF.GenerationSoftware,KiCad,Pcbnew,8.0.5*%
%TF.CreationDate,2024-10-10T12:36:06+02:00*%
%TF.ProjectId,MosTest_GanFet,4d6f7354-6573-4745-9f47-616e4665742e,rev?*%
%TF.SameCoordinates,Original*%
%TF.FileFunction,Legend,Bot*%
%TF.FilePolarity,Positive*%
%FSLAX46Y46*%
G04 Gerber Fmt 4.6, Leading zero omitted, Abs format (unit mm)*
G04 Created by KiCad (PCBNEW 8.0.5) date 2024-10-10 12:36:06*
%MOMM*%
%LPD*%
G01*
G04 APERTURE LIST*
%ADD10C,0.150000*%
%ADD11C,0.120000*%
G04 APERTURE END LIST*
D10*
X117624819Y-39793333D02*
X117148628Y-39460000D01*
X117624819Y-39221905D02*
X116624819Y-39221905D01*
X116624819Y-39221905D02*
X116624819Y-39602857D01*
X116624819Y-39602857D02*
X116672438Y-39698095D01*
X116672438Y-39698095D02*
X116720057Y-39745714D01*
X116720057Y-39745714D02*
X116815295Y-39793333D01*
X116815295Y-39793333D02*
X116958152Y-39793333D01*
X116958152Y-39793333D02*
X117053390Y-39745714D01*
X117053390Y-39745714D02*
X117101009Y-39698095D01*
X117101009Y-39698095D02*
X117148628Y-39602857D01*
X117148628Y-39602857D02*
X117148628Y-39221905D01*
X116624819Y-40650476D02*
X116624819Y-40460000D01*
X116624819Y-40460000D02*
X116672438Y-40364762D01*
X116672438Y-40364762D02*
X116720057Y-40317143D01*
X116720057Y-40317143D02*
X116862914Y-40221905D01*
X116862914Y-40221905D02*
X117053390Y-40174286D01*
X117053390Y-40174286D02*
X117434342Y-40174286D01*
X117434342Y-40174286D02*
X117529580Y-40221905D01*
X117529580Y-40221905D02*
X117577200Y-40269524D01*
X117577200Y-40269524D02*
X117624819Y-40364762D01*
X117624819Y-40364762D02*
X117624819Y-40555238D01*
X117624819Y-40555238D02*
X117577200Y-40650476D01*
X117577200Y-40650476D02*
X117529580Y-40698095D01*
X117529580Y-40698095D02*
X117434342Y-40745714D01*
X117434342Y-40745714D02*
X117196247Y-40745714D01*
X117196247Y-40745714D02*
X117101009Y-40698095D01*
X117101009Y-40698095D02*
X117053390Y-40650476D01*
X117053390Y-40650476D02*
X117005771Y-40555238D01*
X117005771Y-40555238D02*
X117005771Y-40364762D01*
X117005771Y-40364762D02*
X117053390Y-40269524D01*
X117053390Y-40269524D02*
X117101009Y-40221905D01*
X117101009Y-40221905D02*
X117196247Y-40174286D01*
X142641666Y-38985819D02*
X143117856Y-38985819D01*
X143117856Y-38985819D02*
X143117856Y-37985819D01*
X141832142Y-37985819D02*
X142308332Y-37985819D01*
X142308332Y-37985819D02*
X142355951Y-38462009D01*
X142355951Y-38462009D02*
X142308332Y-38414390D01*
X142308332Y-38414390D02*
X142213094Y-38366771D01*
X142213094Y-38366771D02*
X141974999Y-38366771D01*
X141974999Y-38366771D02*
X141879761Y-38414390D01*
X141879761Y-38414390D02*
X141832142Y-38462009D01*
X141832142Y-38462009D02*
X141784523Y-38557247D01*
X141784523Y-38557247D02*
X141784523Y-38795342D01*
X141784523Y-38795342D02*
X141832142Y-38890580D01*
X141832142Y-38890580D02*
X141879761Y-38938200D01*
X141879761Y-38938200D02*
X141974999Y-38985819D01*
X141974999Y-38985819D02*
X142213094Y-38985819D01*
X142213094Y-38985819D02*
X142308332Y-38938200D01*
X142308332Y-38938200D02*
X142355951Y-38890580D01*
X126523808Y-35054819D02*
X126523808Y-34054819D01*
X126523808Y-34054819D02*
X126142856Y-34054819D01*
X126142856Y-34054819D02*
X126047618Y-34102438D01*
X126047618Y-34102438D02*
X125999999Y-34150057D01*
X125999999Y-34150057D02*
X125952380Y-34245295D01*
X125952380Y-34245295D02*
X125952380Y-34388152D01*
X125952380Y-34388152D02*
X125999999Y-34483390D01*
X125999999Y-34483390D02*
X126047618Y-34531009D01*
X126047618Y-34531009D02*
X126142856Y-34578628D01*
X126142856Y-34578628D02*
X126523808Y-34578628D01*
X125619046Y-34054819D02*
X125380951Y-35054819D01*
X125380951Y-35054819D02*
X125190475Y-34340533D01*
X125190475Y-34340533D02*
X124999999Y-35054819D01*
X124999999Y-35054819D02*
X124761904Y-34054819D01*
X124380951Y-35054819D02*
X124380951Y-34054819D01*
X124380951Y-34054819D02*
X124047618Y-34769104D01*
X124047618Y-34769104D02*
X123714285Y-34054819D01*
X123714285Y-34054819D02*
X123714285Y-35054819D01*
X123476190Y-35150057D02*
X122714285Y-35150057D01*
X122476189Y-35054819D02*
X122476189Y-34054819D01*
X121999999Y-35054819D02*
X121999999Y-34054819D01*
X121999999Y-34054819D02*
X121428571Y-35054819D01*
X121428571Y-35054819D02*
X121428571Y-34054819D01*
X120428571Y-35054819D02*
X120999999Y-35054819D01*
X120714285Y-35054819D02*
X120714285Y-34054819D01*
X120714285Y-34054819D02*
X120809523Y-34197676D01*
X120809523Y-34197676D02*
X120904761Y-34292914D01*
X120904761Y-34292914D02*
X120999999Y-34340533D01*
X145889286Y-33154819D02*
X145889286Y-32154819D01*
X145889286Y-32154819D02*
X145508334Y-32154819D01*
X145508334Y-32154819D02*
X145413096Y-32202438D01*
X145413096Y-32202438D02*
X145365477Y-32250057D01*
X145365477Y-32250057D02*
X145317858Y-32345295D01*
X145317858Y-32345295D02*
X145317858Y-32488152D01*
X145317858Y-32488152D02*
X145365477Y-32583390D01*
X145365477Y-32583390D02*
X145413096Y-32631009D01*
X145413096Y-32631009D02*
X145508334Y-32678628D01*
X145508334Y-32678628D02*
X145889286Y-32678628D01*
X144746429Y-33154819D02*
X144841667Y-33107200D01*
X144841667Y-33107200D02*
X144889286Y-33059580D01*
X144889286Y-33059580D02*
X144936905Y-32964342D01*
X144936905Y-32964342D02*
X144936905Y-32678628D01*
X144936905Y-32678628D02*
X144889286Y-32583390D01*
X144889286Y-32583390D02*
X144841667Y-32535771D01*
X144841667Y-32535771D02*
X144746429Y-32488152D01*
X144746429Y-32488152D02*
X144603572Y-32488152D01*
X144603572Y-32488152D02*
X144508334Y-32535771D01*
X144508334Y-32535771D02*
X144460715Y-32583390D01*
X144460715Y-32583390D02*
X144413096Y-32678628D01*
X144413096Y-32678628D02*
X144413096Y-32964342D01*
X144413096Y-32964342D02*
X144460715Y-33059580D01*
X144460715Y-33059580D02*
X144508334Y-33107200D01*
X144508334Y-33107200D02*
X144603572Y-33154819D01*
X144603572Y-33154819D02*
X144746429Y-33154819D01*
X144032143Y-33107200D02*
X143936905Y-33154819D01*
X143936905Y-33154819D02*
X143746429Y-33154819D01*
X143746429Y-33154819D02*
X143651191Y-33107200D01*
X143651191Y-33107200D02*
X143603572Y-33011961D01*
X143603572Y-33011961D02*
X143603572Y-32964342D01*
X143603572Y-32964342D02*
X143651191Y-32869104D01*
X143651191Y-32869104D02*
X143746429Y-32821485D01*
X143746429Y-32821485D02*
X143889286Y-32821485D01*
X143889286Y-32821485D02*
X143984524Y-32773866D01*
X143984524Y-32773866D02*
X144032143Y-32678628D01*
X144032143Y-32678628D02*
X144032143Y-32631009D01*
X144032143Y-32631009D02*
X143984524Y-32535771D01*
X143984524Y-32535771D02*
X143889286Y-32488152D01*
X143889286Y-32488152D02*
X143746429Y-32488152D01*
X143746429Y-32488152D02*
X143651191Y-32535771D01*
X143317857Y-32488152D02*
X142936905Y-32488152D01*
X143175000Y-32154819D02*
X143175000Y-33011961D01*
X143175000Y-33011961D02*
X143127381Y-33107200D01*
X143127381Y-33107200D02*
X143032143Y-33154819D01*
X143032143Y-33154819D02*
X142936905Y-33154819D01*
X142841667Y-33250057D02*
X142079762Y-33250057D01*
X141508333Y-32631009D02*
X141841666Y-32631009D01*
X141841666Y-33154819D02*
X141841666Y-32154819D01*
X141841666Y-32154819D02*
X141365476Y-32154819D01*
X140984523Y-33154819D02*
X140984523Y-32488152D01*
X140984523Y-32154819D02*
X141032142Y-32202438D01*
X141032142Y-32202438D02*
X140984523Y-32250057D01*
X140984523Y-32250057D02*
X140936904Y-32202438D01*
X140936904Y-32202438D02*
X140984523Y-32154819D01*
X140984523Y-32154819D02*
X140984523Y-32250057D01*
X140365476Y-33154819D02*
X140460714Y-33107200D01*
X140460714Y-33107200D02*
X140508333Y-33011961D01*
X140508333Y-33011961D02*
X140508333Y-32154819D01*
X140127380Y-32488152D02*
X139746428Y-32488152D01*
X139984523Y-32154819D02*
X139984523Y-33011961D01*
X139984523Y-33011961D02*
X139936904Y-33107200D01*
X139936904Y-33107200D02*
X139841666Y-33154819D01*
X139841666Y-33154819D02*
X139746428Y-33154819D01*
X139032142Y-33107200D02*
X139127380Y-33154819D01*
X139127380Y-33154819D02*
X139317856Y-33154819D01*
X139317856Y-33154819D02*
X139413094Y-33107200D01*
X139413094Y-33107200D02*
X139460713Y-33011961D01*
X139460713Y-33011961D02*
X139460713Y-32631009D01*
X139460713Y-32631009D02*
X139413094Y-32535771D01*
X139413094Y-32535771D02*
X139317856Y-32488152D01*
X139317856Y-32488152D02*
X139127380Y-32488152D01*
X139127380Y-32488152D02*
X139032142Y-32535771D01*
X139032142Y-32535771D02*
X138984523Y-32631009D01*
X138984523Y-32631009D02*
X138984523Y-32726247D01*
X138984523Y-32726247D02*
X139460713Y-32821485D01*
X138555951Y-33154819D02*
X138555951Y-32488152D01*
X138555951Y-32678628D02*
X138508332Y-32583390D01*
X138508332Y-32583390D02*
X138460713Y-32535771D01*
X138460713Y-32535771D02*
X138365475Y-32488152D01*
X138365475Y-32488152D02*
X138270237Y-32488152D01*
X137413094Y-33154819D02*
X137984522Y-33154819D01*
X137698808Y-33154819D02*
X137698808Y-32154819D01*
X137698808Y-32154819D02*
X137794046Y-32297676D01*
X137794046Y-32297676D02*
X137889284Y-32392914D01*
X137889284Y-32392914D02*
X137984522Y-32440533D01*
X130724666Y-46381580D02*
X130772285Y-46429200D01*
X130772285Y-46429200D02*
X130915142Y-46476819D01*
X130915142Y-46476819D02*
X131010380Y-46476819D01*
X131010380Y-46476819D02*
X131153237Y-46429200D01*
X131153237Y-46429200D02*
X131248475Y-46333961D01*
X131248475Y-46333961D02*
X131296094Y-46238723D01*
X131296094Y-46238723D02*
X131343713Y-46048247D01*
X131343713Y-46048247D02*
X131343713Y-45905390D01*
X131343713Y-45905390D02*
X131296094Y-45714914D01*
X131296094Y-45714914D02*
X131248475Y-45619676D01*
X131248475Y-45619676D02*
X131153237Y-45524438D01*
X131153237Y-45524438D02*
X131010380Y-45476819D01*
X131010380Y-45476819D02*
X130915142Y-45476819D01*
X130915142Y-45476819D02*
X130772285Y-45524438D01*
X130772285Y-45524438D02*
X130724666Y-45572057D01*
X130343713Y-45572057D02*
X130296094Y-45524438D01*
X130296094Y-45524438D02*
X130200856Y-45476819D01*
X130200856Y-45476819D02*
X129962761Y-45476819D01*
X129962761Y-45476819D02*
X129867523Y-45524438D01*
X129867523Y-45524438D02*
X129819904Y-45572057D01*
X129819904Y-45572057D02*
X129772285Y-45667295D01*
X129772285Y-45667295D02*
X129772285Y-45762533D01*
X129772285Y-45762533D02*
X129819904Y-45905390D01*
X129819904Y-45905390D02*
X130391332Y-46476819D01*
X130391332Y-46476819D02*
X129772285Y-46476819D01*
X125179166Y-45154819D02*
X125512499Y-44678628D01*
X125750594Y-45154819D02*
X125750594Y-44154819D01*
X125750594Y-44154819D02*
X125369642Y-44154819D01*
X125369642Y-44154819D02*
X125274404Y-44202438D01*
X125274404Y-44202438D02*
X125226785Y-44250057D01*
X125226785Y-44250057D02*
X125179166Y-44345295D01*
X125179166Y-44345295D02*
X125179166Y-44488152D01*
X125179166Y-44488152D02*
X125226785Y-44583390D01*
X125226785Y-44583390D02*
X125274404Y-44631009D01*
X125274404Y-44631009D02*
X125369642Y-44678628D01*
X125369642Y-44678628D02*
X125750594Y-44678628D01*
X124845832Y-44154819D02*
X124226785Y-44154819D01*
X124226785Y-44154819D02*
X124560118Y-44535771D01*
X124560118Y-44535771D02*
X124417261Y-44535771D01*
X124417261Y-44535771D02*
X124322023Y-44583390D01*
X124322023Y-44583390D02*
X124274404Y-44631009D01*
X124274404Y-44631009D02*
X124226785Y-44726247D01*
X124226785Y-44726247D02*
X124226785Y-44964342D01*
X124226785Y-44964342D02*
X124274404Y-45059580D01*
X124274404Y-45059580D02*
X124322023Y-45107200D01*
X124322023Y-45107200D02*
X124417261Y-45154819D01*
X124417261Y-45154819D02*
X124702975Y-45154819D01*
X124702975Y-45154819D02*
X124798213Y-45107200D01*
X124798213Y-45107200D02*
X124845832Y-45059580D01*
X136639580Y-38607142D02*
X136687200Y-38559523D01*
X136687200Y-38559523D02*
X136734819Y-38416666D01*
X136734819Y-38416666D02*
X136734819Y-38321428D01*
X136734819Y-38321428D02*
X136687200Y-38178571D01*
X136687200Y-38178571D02*
X136591961Y-38083333D01*
X136591961Y-38083333D02*
X136496723Y-38035714D01*
X136496723Y-38035714D02*
X136306247Y-37988095D01*
X136306247Y-37988095D02*
X136163390Y-37988095D01*
X136163390Y-37988095D02*
X135972914Y-38035714D01*
X135972914Y-38035714D02*
X135877676Y-38083333D01*
X135877676Y-38083333D02*
X135782438Y-38178571D01*
X135782438Y-38178571D02*
X135734819Y-38321428D01*
X135734819Y-38321428D02*
X135734819Y-38416666D01*
X135734819Y-38416666D02*
X135782438Y-38559523D01*
X135782438Y-38559523D02*
X135830057Y-38607142D01*
X136734819Y-39559523D02*
X136734819Y-38988095D01*
X136734819Y-39273809D02*
X135734819Y-39273809D01*
X135734819Y-39273809D02*
X135877676Y-39178571D01*
X135877676Y-39178571D02*
X135972914Y-39083333D01*
X135972914Y-39083333D02*
X136020533Y-38988095D01*
X136734819Y-40511904D02*
X136734819Y-39940476D01*
X136734819Y-40226190D02*
X135734819Y-40226190D01*
X135734819Y-40226190D02*
X135877676Y-40130952D01*
X135877676Y-40130952D02*
X135972914Y-40035714D01*
X135972914Y-40035714D02*
X136020533Y-39940476D01*
X142264819Y-38390475D02*
X141264819Y-38390475D01*
X141264819Y-38390475D02*
X141264819Y-38771427D01*
X141264819Y-38771427D02*
X141312438Y-38866665D01*
X141312438Y-38866665D02*
X141360057Y-38914284D01*
X141360057Y-38914284D02*
X141455295Y-38961903D01*
X141455295Y-38961903D02*
X141598152Y-38961903D01*
X141598152Y-38961903D02*
X141693390Y-38914284D01*
X141693390Y-38914284D02*
X141741009Y-38866665D01*
X141741009Y-38866665D02*
X141788628Y-38771427D01*
X141788628Y-38771427D02*
X141788628Y-38390475D01*
X142264819Y-39390475D02*
X141598152Y-39390475D01*
X141788628Y-39390475D02*
X141693390Y-39438094D01*
X141693390Y-39438094D02*
X141645771Y-39485713D01*
X141645771Y-39485713D02*
X141598152Y-39580951D01*
X141598152Y-39580951D02*
X141598152Y-39676189D01*
X142217200Y-40390475D02*
X142264819Y-40295237D01*
X142264819Y-40295237D02*
X142264819Y-40104761D01*
X142264819Y-40104761D02*
X142217200Y-40009523D01*
X142217200Y-40009523D02*
X142121961Y-39961904D01*
X142121961Y-39961904D02*
X141741009Y-39961904D01*
X141741009Y-39961904D02*
X141645771Y-40009523D01*
X141645771Y-40009523D02*
X141598152Y-40104761D01*
X141598152Y-40104761D02*
X141598152Y-40295237D01*
X141598152Y-40295237D02*
X141645771Y-40390475D01*
X141645771Y-40390475D02*
X141741009Y-40438094D01*
X141741009Y-40438094D02*
X141836247Y-40438094D01*
X141836247Y-40438094D02*
X141931485Y-39961904D01*
X142360057Y-40628571D02*
X142360057Y-41390475D01*
X141741009Y-41961904D02*
X141741009Y-41628571D01*
X142264819Y-41628571D02*
X141264819Y-41628571D01*
X141264819Y-41628571D02*
X141264819Y-42104761D01*
X142264819Y-42485714D02*
X141598152Y-42485714D01*
X141264819Y-42485714D02*
X141312438Y-42438095D01*
X141312438Y-42438095D02*
X141360057Y-42485714D01*
X141360057Y-42485714D02*
X141312438Y-42533333D01*
X141312438Y-42533333D02*
X141264819Y-42485714D01*
X141264819Y-42485714D02*
X141360057Y-42485714D01*
X142264819Y-43104761D02*
X142217200Y-43009523D01*
X142217200Y-43009523D02*
X142121961Y-42961904D01*
X142121961Y-42961904D02*
X141264819Y-42961904D01*
X141598152Y-43342857D02*
X141598152Y-43723809D01*
X141264819Y-43485714D02*
X142121961Y-43485714D01*
X142121961Y-43485714D02*
X142217200Y-43533333D01*
X142217200Y-43533333D02*
X142264819Y-43628571D01*
X142264819Y-43628571D02*
X142264819Y-43723809D01*
X142217200Y-44438095D02*
X142264819Y-44342857D01*
X142264819Y-44342857D02*
X142264819Y-44152381D01*
X142264819Y-44152381D02*
X142217200Y-44057143D01*
X142217200Y-44057143D02*
X142121961Y-44009524D01*
X142121961Y-44009524D02*
X141741009Y-44009524D01*
X141741009Y-44009524D02*
X141645771Y-44057143D01*
X141645771Y-44057143D02*
X141598152Y-44152381D01*
X141598152Y-44152381D02*
X141598152Y-44342857D01*
X141598152Y-44342857D02*
X141645771Y-44438095D01*
X141645771Y-44438095D02*
X141741009Y-44485714D01*
X141741009Y-44485714D02*
X141836247Y-44485714D01*
X141836247Y-44485714D02*
X141931485Y-44009524D01*
X142264819Y-44914286D02*
X141598152Y-44914286D01*
X141788628Y-44914286D02*
X141693390Y-44961905D01*
X141693390Y-44961905D02*
X141645771Y-45009524D01*
X141645771Y-45009524D02*
X141598152Y-45104762D01*
X141598152Y-45104762D02*
X141598152Y-45200000D01*
X142264819Y-46057143D02*
X142264819Y-45485715D01*
X142264819Y-45771429D02*
X141264819Y-45771429D01*
X141264819Y-45771429D02*
X141407676Y-45676191D01*
X141407676Y-45676191D02*
X141502914Y-45580953D01*
X141502914Y-45580953D02*
X141550533Y-45485715D01*
X134592857Y-46439580D02*
X134640476Y-46487200D01*
X134640476Y-46487200D02*
X134783333Y-46534819D01*
X134783333Y-46534819D02*
X134878571Y-46534819D01*
X134878571Y-46534819D02*
X135021428Y-46487200D01*
X135021428Y-46487200D02*
X135116666Y-46391961D01*
X135116666Y-46391961D02*
X135164285Y-46296723D01*
X135164285Y-46296723D02*
X135211904Y-46106247D01*
X135211904Y-46106247D02*
X135211904Y-45963390D01*
X135211904Y-45963390D02*
X135164285Y-45772914D01*
X135164285Y-45772914D02*
X135116666Y-45677676D01*
X135116666Y-45677676D02*
X135021428Y-45582438D01*
X135021428Y-45582438D02*
X134878571Y-45534819D01*
X134878571Y-45534819D02*
X134783333Y-45534819D01*
X134783333Y-45534819D02*
X134640476Y-45582438D01*
X134640476Y-45582438D02*
X134592857Y-45630057D01*
X133640476Y-46534819D02*
X134211904Y-46534819D01*
X133926190Y-46534819D02*
X133926190Y-45534819D01*
X133926190Y-45534819D02*
X134021428Y-45677676D01*
X134021428Y-45677676D02*
X134116666Y-45772914D01*
X134116666Y-45772914D02*
X134211904Y-45820533D01*
X133259523Y-45630057D02*
X133211904Y-45582438D01*
X133211904Y-45582438D02*
X133116666Y-45534819D01*
X133116666Y-45534819D02*
X132878571Y-45534819D01*
X132878571Y-45534819D02*
X132783333Y-45582438D01*
X132783333Y-45582438D02*
X132735714Y-45630057D01*
X132735714Y-45630057D02*
X132688095Y-45725295D01*
X132688095Y-45725295D02*
X132688095Y-45820533D01*
X132688095Y-45820533D02*
X132735714Y-45963390D01*
X132735714Y-45963390D02*
X133307142Y-46534819D01*
X133307142Y-46534819D02*
X132688095Y-46534819D01*
D11*
%TO.C,PWM_IN1*%
X121500000Y-37275000D02*
X122000000Y-37275000D01*
X121500000Y-38675000D02*
X122000000Y-38675000D01*
X122000000Y-36475000D02*
X122200000Y-36475000D01*
X122000000Y-37275000D02*
X122000000Y-36475000D01*
X122000000Y-39275000D02*
X122000000Y-38675000D01*
X122200000Y-39475000D02*
X122000000Y-39275000D01*
X124800000Y-36475000D02*
X125000000Y-36475000D01*
X125000000Y-36475000D02*
X125000000Y-37275000D01*
X125000000Y-38675000D02*
X125000000Y-39475000D01*
X125000000Y-39475000D02*
X124800000Y-39475000D01*
%TO.C,Post_Filter1*%
X140275000Y-34800000D02*
X141075000Y-34800000D01*
X140275000Y-35000000D02*
X140275000Y-34800000D01*
X140275000Y-37800000D02*
X140275000Y-37600000D01*
X141075000Y-37800000D02*
X140275000Y-37800000D01*
X141075000Y-38300000D02*
X141075000Y-37800000D01*
X142475000Y-34800000D02*
X143275000Y-34800000D01*
X142475000Y-38300000D02*
X142475000Y-37800000D01*
X143075000Y-37800000D02*
X142475000Y-37800000D01*
X143275000Y-34800000D02*
X143275000Y-35000000D01*
X143275000Y-37600000D02*
X143075000Y-37800000D01*
%TO.C,C2*%
X129938748Y-43665000D02*
X130461252Y-43665000D01*
X129938748Y-45135000D02*
X130461252Y-45135000D01*
%TO.C,R3*%
X124827064Y-45465000D02*
X124372936Y-45465000D01*
X124827064Y-46935000D02*
X124372936Y-46935000D01*
%TO.C,C11*%
X130020000Y-37834252D02*
X130020000Y-40665748D01*
X135240000Y-37834252D02*
X135240000Y-40665748D01*
%TO.C,Pre_Filter1*%
X136810000Y-40300000D02*
X137610000Y-40300000D01*
X136810000Y-40500000D02*
X136810000Y-40300000D01*
X136810000Y-43300000D02*
X136810000Y-43100000D01*
X137610000Y-43300000D02*
X136810000Y-43300000D01*
X137610000Y-43800000D02*
X137610000Y-43300000D01*
X139010000Y-40300000D02*
X139810000Y-40300000D01*
X139010000Y-43800000D02*
X139010000Y-43300000D01*
X139610000Y-43300000D02*
X139010000Y-43300000D01*
X139810000Y-40300000D02*
X139810000Y-40500000D01*
X139810000Y-43100000D02*
X139610000Y-43300000D01*
%TO.C,C12*%
X134211252Y-43665000D02*
X133688748Y-43665000D01*
X134211252Y-45135000D02*
X133688748Y-45135000D01*
%TD*%
M02*
