%TF.GenerationSoftware,KiCad,Pcbnew,8.0.5*%
%TF.CreationDate,2024-10-10T12:36:06+02:00*%
%TF.ProjectId,MosTest_GanFet,4d6f7354-6573-4745-9f47-616e4665742e,rev?*%
%TF.SameCoordinates,Original*%
%TF.FileFunction,Paste,Top*%
%TF.FilePolarity,Positive*%
%FSLAX46Y46*%
G04 Gerber Fmt 4.6, Leading zero omitted, Abs format (unit mm)*
G04 Created by KiCad (PCBNEW 8.0.5) date 2024-10-10 12:36:06*
%MOMM*%
%LPD*%
G01*
G04 APERTURE LIST*
G04 Aperture macros list*
%AMRoundRect*
0 Rectangle with rounded corners*
0 $1 Rounding radius*
0 $2 $3 $4 $5 $6 $7 $8 $9 X,Y pos of 4 corners*
0 Add a 4 corners polygon primitive as box body*
4,1,4,$2,$3,$4,$5,$6,$7,$8,$9,$2,$3,0*
0 Add four circle primitives for the rounded corners*
1,1,$1+$1,$2,$3*
1,1,$1+$1,$4,$5*
1,1,$1+$1,$6,$7*
1,1,$1+$1,$8,$9*
0 Add four rect primitives between the rounded corners*
20,1,$1+$1,$2,$3,$4,$5,0*
20,1,$1+$1,$4,$5,$6,$7,0*
20,1,$1+$1,$6,$7,$8,$9,0*
20,1,$1+$1,$8,$9,$2,$3,0*%
G04 Aperture macros list end*
%ADD10C,0.100000*%
%ADD11C,0.010000*%
%ADD12C,0.050000*%
%ADD13RoundRect,0.135000X0.135000X0.185000X-0.135000X0.185000X-0.135000X-0.185000X0.135000X-0.185000X0*%
%ADD14RoundRect,0.112500X-0.237500X0.112500X-0.237500X-0.112500X0.237500X-0.112500X0.237500X0.112500X0*%
%ADD15RoundRect,0.250000X-0.450000X0.262500X-0.450000X-0.262500X0.450000X-0.262500X0.450000X0.262500X0*%
%ADD16RoundRect,0.135000X-0.135000X-0.185000X0.135000X-0.185000X0.135000X0.185000X-0.135000X0.185000X0*%
%ADD17R,1.500000X1.200000*%
%ADD18RoundRect,0.140000X0.140000X0.170000X-0.140000X0.170000X-0.140000X-0.170000X0.140000X-0.170000X0*%
%ADD19RoundRect,0.140000X0.170000X-0.140000X0.170000X0.140000X-0.170000X0.140000X-0.170000X-0.140000X0*%
%ADD20RoundRect,0.140000X-0.140000X-0.170000X0.140000X-0.170000X0.140000X0.170000X-0.140000X0.170000X0*%
%ADD21RoundRect,0.135000X0.185000X-0.135000X0.185000X0.135000X-0.185000X0.135000X-0.185000X-0.135000X0*%
G04 APERTURE END LIST*
%TO.C,R9*%
D10*
X147400000Y-33200000D02*
X145400000Y-33200000D01*
X145400000Y-34850000D01*
X147400000Y-34850000D01*
X147400000Y-33200000D01*
G36*
X147400000Y-33200000D02*
G01*
X145400000Y-33200000D01*
X145400000Y-34850000D01*
X147400000Y-34850000D01*
X147400000Y-33200000D01*
G37*
X147400000Y-39850000D02*
X145400000Y-39850000D01*
X145400000Y-41500000D01*
X147400000Y-41500000D01*
X147400000Y-39850000D01*
G36*
X147400000Y-39850000D02*
G01*
X145400000Y-39850000D01*
X145400000Y-41500000D01*
X147400000Y-41500000D01*
X147400000Y-39850000D01*
G37*
%TO.C,Q1*%
D11*
X127641523Y-46726954D02*
X127518477Y-46726954D01*
X127518477Y-46850000D01*
X127641523Y-46850000D01*
X127641523Y-46726954D01*
G36*
X127641523Y-46726954D02*
G01*
X127518477Y-46726954D01*
X127518477Y-46850000D01*
X127641523Y-46850000D01*
X127641523Y-46726954D01*
G37*
X127672500Y-46050000D02*
X127487500Y-46050000D01*
X127487500Y-46330000D01*
X127672500Y-46330000D01*
X127672500Y-46050000D01*
G36*
X127672500Y-46050000D02*
G01*
X127487500Y-46050000D01*
X127487500Y-46330000D01*
X127672500Y-46330000D01*
X127672500Y-46050000D01*
G37*
X127970000Y-45100000D02*
X127570000Y-45100000D01*
X127570000Y-45280000D01*
X127970000Y-45280000D01*
X127970000Y-45100000D01*
G36*
X127970000Y-45100000D02*
G01*
X127570000Y-45100000D01*
X127570000Y-45280000D01*
X127970000Y-45280000D01*
X127970000Y-45100000D01*
G37*
X127970000Y-45500000D02*
X127570000Y-45500000D01*
X127570000Y-45680000D01*
X127970000Y-45680000D01*
X127970000Y-45500000D01*
G36*
X127970000Y-45500000D02*
G01*
X127570000Y-45500000D01*
X127570000Y-45680000D01*
X127970000Y-45680000D01*
X127970000Y-45500000D01*
G37*
X128021523Y-46730861D02*
X127898477Y-46730861D01*
X127898477Y-46853907D01*
X128021523Y-46853907D01*
X128021523Y-46730861D01*
G36*
X128021523Y-46730861D02*
G01*
X127898477Y-46730861D01*
X127898477Y-46853907D01*
X128021523Y-46853907D01*
X128021523Y-46730861D01*
G37*
X128050000Y-46050000D02*
X127865000Y-46050000D01*
X127865000Y-46330000D01*
X128050000Y-46330000D01*
X128050000Y-46050000D01*
G36*
X128050000Y-46050000D02*
G01*
X127865000Y-46050000D01*
X127865000Y-46330000D01*
X128050000Y-46330000D01*
X128050000Y-46050000D01*
G37*
%TO.C,R4*%
D10*
X152400000Y-33200000D02*
X150400000Y-33200000D01*
X150400000Y-34850000D01*
X152400000Y-34850000D01*
X152400000Y-33200000D01*
G36*
X152400000Y-33200000D02*
G01*
X150400000Y-33200000D01*
X150400000Y-34850000D01*
X152400000Y-34850000D01*
X152400000Y-33200000D01*
G37*
X152400000Y-39850000D02*
X150400000Y-39850000D01*
X150400000Y-41500000D01*
X152400000Y-41500000D01*
X152400000Y-39850000D01*
G36*
X152400000Y-39850000D02*
G01*
X150400000Y-39850000D01*
X150400000Y-41500000D01*
X152400000Y-41500000D01*
X152400000Y-39850000D01*
G37*
%TO.C,Q2*%
D11*
X121571523Y-46726954D02*
X121448477Y-46726954D01*
X121448477Y-46850000D01*
X121571523Y-46850000D01*
X121571523Y-46726954D01*
G36*
X121571523Y-46726954D02*
G01*
X121448477Y-46726954D01*
X121448477Y-46850000D01*
X121571523Y-46850000D01*
X121571523Y-46726954D01*
G37*
X121602500Y-46050000D02*
X121417500Y-46050000D01*
X121417500Y-46330000D01*
X121602500Y-46330000D01*
X121602500Y-46050000D01*
G36*
X121602500Y-46050000D02*
G01*
X121417500Y-46050000D01*
X121417500Y-46330000D01*
X121602500Y-46330000D01*
X121602500Y-46050000D01*
G37*
X121900000Y-45100000D02*
X121500000Y-45100000D01*
X121500000Y-45280000D01*
X121900000Y-45280000D01*
X121900000Y-45100000D01*
G36*
X121900000Y-45100000D02*
G01*
X121500000Y-45100000D01*
X121500000Y-45280000D01*
X121900000Y-45280000D01*
X121900000Y-45100000D01*
G37*
X121900000Y-45500000D02*
X121500000Y-45500000D01*
X121500000Y-45680000D01*
X121900000Y-45680000D01*
X121900000Y-45500000D01*
G36*
X121900000Y-45500000D02*
G01*
X121500000Y-45500000D01*
X121500000Y-45680000D01*
X121900000Y-45680000D01*
X121900000Y-45500000D01*
G37*
X121951523Y-46730861D02*
X121828477Y-46730861D01*
X121828477Y-46853907D01*
X121951523Y-46853907D01*
X121951523Y-46730861D01*
G36*
X121951523Y-46730861D02*
G01*
X121828477Y-46730861D01*
X121828477Y-46853907D01*
X121951523Y-46853907D01*
X121951523Y-46730861D01*
G37*
X121980000Y-46050000D02*
X121795000Y-46050000D01*
X121795000Y-46330000D01*
X121980000Y-46330000D01*
X121980000Y-46050000D01*
G36*
X121980000Y-46050000D02*
G01*
X121795000Y-46050000D01*
X121795000Y-46330000D01*
X121980000Y-46330000D01*
X121980000Y-46050000D01*
G37*
%TO.C,U1*%
D12*
X122525000Y-41900000D02*
X122900000Y-41900000D01*
X122900000Y-42100000D01*
X122525000Y-42100000D01*
X122525000Y-41900000D01*
G36*
X122525000Y-41900000D02*
G01*
X122900000Y-41900000D01*
X122900000Y-42100000D01*
X122525000Y-42100000D01*
X122525000Y-41900000D01*
G37*
X122537500Y-40900000D02*
X122912500Y-40900000D01*
X122912500Y-41100000D01*
X122537500Y-41100000D01*
X122537500Y-40900000D01*
G36*
X122537500Y-40900000D02*
G01*
X122912500Y-40900000D01*
X122912500Y-41100000D01*
X122537500Y-41100000D01*
X122537500Y-40900000D01*
G37*
X122537500Y-41400000D02*
X122912500Y-41400000D01*
X122912500Y-41600000D01*
X122537500Y-41600000D01*
X122537500Y-41400000D01*
G36*
X122537500Y-41400000D02*
G01*
X122912500Y-41400000D01*
X122912500Y-41600000D01*
X122537500Y-41600000D01*
X122537500Y-41400000D01*
G37*
X122537500Y-42400000D02*
X122912500Y-42400000D01*
X122912500Y-42600000D01*
X122537500Y-42600000D01*
X122537500Y-42400000D01*
G36*
X122537500Y-42400000D02*
G01*
X122912500Y-42400000D01*
X122912500Y-42600000D01*
X122537500Y-42600000D01*
X122537500Y-42400000D01*
G37*
X122537500Y-42900000D02*
X122912500Y-42900000D01*
X122912500Y-43100000D01*
X122537500Y-43100000D01*
X122537500Y-42900000D01*
G36*
X122537500Y-42900000D02*
G01*
X122912500Y-42900000D01*
X122912500Y-43100000D01*
X122537500Y-43100000D01*
X122537500Y-42900000D01*
G37*
X123362500Y-40325000D02*
X123562500Y-40325000D01*
X123562500Y-40700000D01*
X123362500Y-40700000D01*
X123362500Y-40325000D01*
G36*
X123362500Y-40325000D02*
G01*
X123562500Y-40325000D01*
X123562500Y-40700000D01*
X123362500Y-40700000D01*
X123362500Y-40325000D01*
G37*
X123362500Y-43312500D02*
X123562500Y-43312500D01*
X123562500Y-43687500D01*
X123362500Y-43687500D01*
X123362500Y-43312500D01*
G36*
X123362500Y-43312500D02*
G01*
X123562500Y-43312500D01*
X123562500Y-43687500D01*
X123362500Y-43687500D01*
X123362500Y-43312500D01*
G37*
X123862500Y-40325000D02*
X124062500Y-40325000D01*
X124062500Y-40700000D01*
X123862500Y-40700000D01*
X123862500Y-40325000D01*
G36*
X123862500Y-40325000D02*
G01*
X124062500Y-40325000D01*
X124062500Y-40700000D01*
X123862500Y-40700000D01*
X123862500Y-40325000D01*
G37*
X123862500Y-43312500D02*
X124062500Y-43312500D01*
X124062500Y-43687500D01*
X123862500Y-43687500D01*
X123862500Y-43312500D01*
G36*
X123862500Y-43312500D02*
G01*
X124062500Y-43312500D01*
X124062500Y-43687500D01*
X123862500Y-43687500D01*
X123862500Y-43312500D01*
G37*
X124362500Y-40325000D02*
X124562500Y-40325000D01*
X124562500Y-40700000D01*
X124362500Y-40700000D01*
X124362500Y-40325000D01*
G36*
X124362500Y-40325000D02*
G01*
X124562500Y-40325000D01*
X124562500Y-40700000D01*
X124362500Y-40700000D01*
X124362500Y-40325000D01*
G37*
X124362500Y-43312500D02*
X124562500Y-43312500D01*
X124562500Y-43687500D01*
X124362500Y-43687500D01*
X124362500Y-43312500D01*
G36*
X124362500Y-43312500D02*
G01*
X124562500Y-43312500D01*
X124562500Y-43687500D01*
X124362500Y-43687500D01*
X124362500Y-43312500D01*
G37*
X125362500Y-43312500D02*
X125562500Y-43312500D01*
X125562500Y-43687500D01*
X125362500Y-43687500D01*
X125362500Y-43312500D01*
G36*
X125362500Y-43312500D02*
G01*
X125562500Y-43312500D01*
X125562500Y-43687500D01*
X125362500Y-43687500D01*
X125362500Y-43312500D01*
G37*
X125862500Y-40325000D02*
X126062500Y-40325000D01*
X126062500Y-40700000D01*
X125862500Y-40700000D01*
X125862500Y-40325000D01*
G36*
X125862500Y-40325000D02*
G01*
X126062500Y-40325000D01*
X126062500Y-40700000D01*
X125862500Y-40700000D01*
X125862500Y-40325000D01*
G37*
X125862500Y-43312500D02*
X126062500Y-43312500D01*
X126062500Y-43687500D01*
X125862500Y-43687500D01*
X125862500Y-43312500D01*
G36*
X125862500Y-43312500D02*
G01*
X126062500Y-43312500D01*
X126062500Y-43687500D01*
X125862500Y-43687500D01*
X125862500Y-43312500D01*
G37*
X126512500Y-41900000D02*
X126887500Y-41900000D01*
X126887500Y-42100000D01*
X126512500Y-42100000D01*
X126512500Y-41900000D01*
G36*
X126512500Y-41900000D02*
G01*
X126887500Y-41900000D01*
X126887500Y-42100000D01*
X126512500Y-42100000D01*
X126512500Y-41900000D01*
G37*
X126525000Y-40900000D02*
X126900000Y-40900000D01*
X126900000Y-41100000D01*
X126525000Y-41100000D01*
X126525000Y-40900000D01*
G36*
X126525000Y-40900000D02*
G01*
X126900000Y-40900000D01*
X126900000Y-41100000D01*
X126525000Y-41100000D01*
X126525000Y-40900000D01*
G37*
X126525000Y-41400000D02*
X126900000Y-41400000D01*
X126900000Y-41600000D01*
X126525000Y-41600000D01*
X126525000Y-41400000D01*
G36*
X126525000Y-41400000D02*
G01*
X126900000Y-41400000D01*
X126900000Y-41600000D01*
X126525000Y-41600000D01*
X126525000Y-41400000D01*
G37*
X126525000Y-42400000D02*
X126900000Y-42400000D01*
X126900000Y-42600000D01*
X126525000Y-42600000D01*
X126525000Y-42400000D01*
G36*
X126525000Y-42400000D02*
G01*
X126900000Y-42400000D01*
X126900000Y-42600000D01*
X126525000Y-42600000D01*
X126525000Y-42400000D01*
G37*
X126525000Y-42900000D02*
X126900000Y-42900000D01*
X126900000Y-43100000D01*
X126525000Y-43100000D01*
X126525000Y-42900000D01*
G36*
X126525000Y-42900000D02*
G01*
X126900000Y-42900000D01*
X126900000Y-43100000D01*
X126525000Y-43100000D01*
X126525000Y-42900000D01*
G37*
D11*
X124527500Y-41775000D02*
X123397500Y-41775000D01*
X123397500Y-41175000D01*
X124527500Y-41175000D01*
X124527500Y-41775000D01*
G36*
X124527500Y-41775000D02*
G01*
X123397500Y-41775000D01*
X123397500Y-41175000D01*
X124527500Y-41175000D01*
X124527500Y-41775000D01*
G37*
X124527500Y-42825000D02*
X123397500Y-42825000D01*
X123397500Y-42225000D01*
X124527500Y-42225000D01*
X124527500Y-42825000D01*
G36*
X124527500Y-42825000D02*
G01*
X123397500Y-42825000D01*
X123397500Y-42225000D01*
X124527500Y-42225000D01*
X124527500Y-42825000D01*
G37*
X126042500Y-41775000D02*
X125332500Y-41775000D01*
X125332500Y-41175000D01*
X126042500Y-41175000D01*
X126042500Y-41775000D01*
G36*
X126042500Y-41775000D02*
G01*
X125332500Y-41775000D01*
X125332500Y-41175000D01*
X126042500Y-41175000D01*
X126042500Y-41775000D01*
G37*
X126042500Y-42825000D02*
X125332500Y-42825000D01*
X125332500Y-42225000D01*
X126042500Y-42225000D01*
X126042500Y-42825000D01*
G36*
X126042500Y-42825000D02*
G01*
X125332500Y-42825000D01*
X125332500Y-42225000D01*
X126042500Y-42225000D01*
X126042500Y-42825000D01*
G37*
%TD*%
D13*
%TO.C,R5*%
X143210000Y-38500000D03*
X142190000Y-38500000D03*
%TD*%
D14*
%TO.C,D2*%
X129510000Y-38150000D03*
X129510000Y-39450000D03*
X131510000Y-38800000D03*
%TD*%
D13*
%TO.C,R8*%
X137910000Y-43200000D03*
X136890000Y-43200000D03*
%TD*%
D15*
%TO.C,R6*%
X119000000Y-39087500D03*
X119000000Y-40912500D03*
%TD*%
D16*
%TO.C,RdtH1*%
X117892500Y-44000000D03*
X118912500Y-44000000D03*
%TD*%
D17*
%TO.C,L1*%
X140150000Y-45255000D03*
X142850000Y-45255000D03*
%TD*%
%TO.C,L5*%
X146150000Y-45255000D03*
X148850000Y-45255000D03*
%TD*%
D18*
%TO.C,C3*%
X121480000Y-42500000D03*
X120520000Y-42500000D03*
%TD*%
D19*
%TO.C,C1*%
X128000000Y-42480000D03*
X128000000Y-41520000D03*
%TD*%
D16*
%TO.C,RdtL1*%
X117980000Y-42500000D03*
X119000000Y-42500000D03*
%TD*%
D20*
%TO.C,C4*%
X120540000Y-41000000D03*
X121500000Y-41000000D03*
%TD*%
D21*
%TO.C,R1*%
X122200000Y-39610000D03*
X122200000Y-38590000D03*
%TD*%
D14*
%TO.C,D1*%
X129500000Y-41300000D03*
X129500000Y-42600000D03*
X131500000Y-41950000D03*
%TD*%
M02*
