%TF.GenerationSoftware,KiCad,Pcbnew,8.0.5*%
%TF.CreationDate,2024-10-10T12:36:06+02:00*%
%TF.ProjectId,MosTest_GanFet,4d6f7354-6573-4745-9f47-616e4665742e,rev?*%
%TF.SameCoordinates,Original*%
%TF.FileFunction,Legend,Top*%
%TF.FilePolarity,Positive*%
%FSLAX46Y46*%
G04 Gerber Fmt 4.6, Leading zero omitted, Abs format (unit mm)*
G04 Created by KiCad (PCBNEW 8.0.5) date 2024-10-10 12:36:06*
%MOMM*%
%LPD*%
G01*
G04 APERTURE LIST*
%ADD10C,0.150000*%
%ADD11C,0.100000*%
%ADD12C,0.120000*%
%ADD13C,0.127000*%
G04 APERTURE END LIST*
D10*
X142533333Y-40124819D02*
X142200000Y-39648628D01*
X141961905Y-40124819D02*
X141961905Y-39124819D01*
X141961905Y-39124819D02*
X142342857Y-39124819D01*
X142342857Y-39124819D02*
X142438095Y-39172438D01*
X142438095Y-39172438D02*
X142485714Y-39220057D01*
X142485714Y-39220057D02*
X142533333Y-39315295D01*
X142533333Y-39315295D02*
X142533333Y-39458152D01*
X142533333Y-39458152D02*
X142485714Y-39553390D01*
X142485714Y-39553390D02*
X142438095Y-39601009D01*
X142438095Y-39601009D02*
X142342857Y-39648628D01*
X142342857Y-39648628D02*
X141961905Y-39648628D01*
X143438095Y-39124819D02*
X142961905Y-39124819D01*
X142961905Y-39124819D02*
X142914286Y-39601009D01*
X142914286Y-39601009D02*
X142961905Y-39553390D01*
X142961905Y-39553390D02*
X143057143Y-39505771D01*
X143057143Y-39505771D02*
X143295238Y-39505771D01*
X143295238Y-39505771D02*
X143390476Y-39553390D01*
X143390476Y-39553390D02*
X143438095Y-39601009D01*
X143438095Y-39601009D02*
X143485714Y-39696247D01*
X143485714Y-39696247D02*
X143485714Y-39934342D01*
X143485714Y-39934342D02*
X143438095Y-40029580D01*
X143438095Y-40029580D02*
X143390476Y-40077200D01*
X143390476Y-40077200D02*
X143295238Y-40124819D01*
X143295238Y-40124819D02*
X143057143Y-40124819D01*
X143057143Y-40124819D02*
X142961905Y-40077200D01*
X142961905Y-40077200D02*
X142914286Y-40029580D01*
X117785714Y-22183009D02*
X118119047Y-22183009D01*
X118261904Y-22706819D02*
X117785714Y-22706819D01*
X117785714Y-22706819D02*
X117785714Y-21706819D01*
X117785714Y-21706819D02*
X118261904Y-21706819D01*
X118690476Y-22706819D02*
X118690476Y-21706819D01*
X118690476Y-21706819D02*
X119261904Y-22706819D01*
X119261904Y-22706819D02*
X119261904Y-21706819D01*
X120261904Y-22706819D02*
X119690476Y-22706819D01*
X119976190Y-22706819D02*
X119976190Y-21706819D01*
X119976190Y-21706819D02*
X119880952Y-21849676D01*
X119880952Y-21849676D02*
X119785714Y-21944914D01*
X119785714Y-21944914D02*
X119690476Y-21992533D01*
X132161904Y-20302438D02*
X132066666Y-20254819D01*
X132066666Y-20254819D02*
X131923809Y-20254819D01*
X131923809Y-20254819D02*
X131780952Y-20302438D01*
X131780952Y-20302438D02*
X131685714Y-20397676D01*
X131685714Y-20397676D02*
X131638095Y-20492914D01*
X131638095Y-20492914D02*
X131590476Y-20683390D01*
X131590476Y-20683390D02*
X131590476Y-20826247D01*
X131590476Y-20826247D02*
X131638095Y-21016723D01*
X131638095Y-21016723D02*
X131685714Y-21111961D01*
X131685714Y-21111961D02*
X131780952Y-21207200D01*
X131780952Y-21207200D02*
X131923809Y-21254819D01*
X131923809Y-21254819D02*
X132019047Y-21254819D01*
X132019047Y-21254819D02*
X132161904Y-21207200D01*
X132161904Y-21207200D02*
X132209523Y-21159580D01*
X132209523Y-21159580D02*
X132209523Y-20826247D01*
X132209523Y-20826247D02*
X132019047Y-20826247D01*
X132638095Y-21254819D02*
X132638095Y-20254819D01*
X132638095Y-20254819D02*
X133209523Y-21254819D01*
X133209523Y-21254819D02*
X133209523Y-20254819D01*
X133685714Y-21254819D02*
X133685714Y-20254819D01*
X133685714Y-20254819D02*
X133923809Y-20254819D01*
X133923809Y-20254819D02*
X134066666Y-20302438D01*
X134066666Y-20302438D02*
X134161904Y-20397676D01*
X134161904Y-20397676D02*
X134209523Y-20492914D01*
X134209523Y-20492914D02*
X134257142Y-20683390D01*
X134257142Y-20683390D02*
X134257142Y-20826247D01*
X134257142Y-20826247D02*
X134209523Y-21016723D01*
X134209523Y-21016723D02*
X134161904Y-21111961D01*
X134161904Y-21111961D02*
X134066666Y-21207200D01*
X134066666Y-21207200D02*
X133923809Y-21254819D01*
X133923809Y-21254819D02*
X133685714Y-21254819D01*
X135209523Y-21254819D02*
X134638095Y-21254819D01*
X134923809Y-21254819D02*
X134923809Y-20254819D01*
X134923809Y-20254819D02*
X134828571Y-20397676D01*
X134828571Y-20397676D02*
X134733333Y-20492914D01*
X134733333Y-20492914D02*
X134638095Y-20540533D01*
X132471905Y-38964819D02*
X132471905Y-37964819D01*
X132471905Y-37964819D02*
X132710000Y-37964819D01*
X132710000Y-37964819D02*
X132852857Y-38012438D01*
X132852857Y-38012438D02*
X132948095Y-38107676D01*
X132948095Y-38107676D02*
X132995714Y-38202914D01*
X132995714Y-38202914D02*
X133043333Y-38393390D01*
X133043333Y-38393390D02*
X133043333Y-38536247D01*
X133043333Y-38536247D02*
X132995714Y-38726723D01*
X132995714Y-38726723D02*
X132948095Y-38821961D01*
X132948095Y-38821961D02*
X132852857Y-38917200D01*
X132852857Y-38917200D02*
X132710000Y-38964819D01*
X132710000Y-38964819D02*
X132471905Y-38964819D01*
X133424286Y-38060057D02*
X133471905Y-38012438D01*
X133471905Y-38012438D02*
X133567143Y-37964819D01*
X133567143Y-37964819D02*
X133805238Y-37964819D01*
X133805238Y-37964819D02*
X133900476Y-38012438D01*
X133900476Y-38012438D02*
X133948095Y-38060057D01*
X133948095Y-38060057D02*
X133995714Y-38155295D01*
X133995714Y-38155295D02*
X133995714Y-38250533D01*
X133995714Y-38250533D02*
X133948095Y-38393390D01*
X133948095Y-38393390D02*
X133376667Y-38964819D01*
X133376667Y-38964819D02*
X133995714Y-38964819D01*
X137233333Y-44824819D02*
X136900000Y-44348628D01*
X136661905Y-44824819D02*
X136661905Y-43824819D01*
X136661905Y-43824819D02*
X137042857Y-43824819D01*
X137042857Y-43824819D02*
X137138095Y-43872438D01*
X137138095Y-43872438D02*
X137185714Y-43920057D01*
X137185714Y-43920057D02*
X137233333Y-44015295D01*
X137233333Y-44015295D02*
X137233333Y-44158152D01*
X137233333Y-44158152D02*
X137185714Y-44253390D01*
X137185714Y-44253390D02*
X137138095Y-44301009D01*
X137138095Y-44301009D02*
X137042857Y-44348628D01*
X137042857Y-44348628D02*
X136661905Y-44348628D01*
X137804762Y-44253390D02*
X137709524Y-44205771D01*
X137709524Y-44205771D02*
X137661905Y-44158152D01*
X137661905Y-44158152D02*
X137614286Y-44062914D01*
X137614286Y-44062914D02*
X137614286Y-44015295D01*
X137614286Y-44015295D02*
X137661905Y-43920057D01*
X137661905Y-43920057D02*
X137709524Y-43872438D01*
X137709524Y-43872438D02*
X137804762Y-43824819D01*
X137804762Y-43824819D02*
X137995238Y-43824819D01*
X137995238Y-43824819D02*
X138090476Y-43872438D01*
X138090476Y-43872438D02*
X138138095Y-43920057D01*
X138138095Y-43920057D02*
X138185714Y-44015295D01*
X138185714Y-44015295D02*
X138185714Y-44062914D01*
X138185714Y-44062914D02*
X138138095Y-44158152D01*
X138138095Y-44158152D02*
X138090476Y-44205771D01*
X138090476Y-44205771D02*
X137995238Y-44253390D01*
X137995238Y-44253390D02*
X137804762Y-44253390D01*
X137804762Y-44253390D02*
X137709524Y-44301009D01*
X137709524Y-44301009D02*
X137661905Y-44348628D01*
X137661905Y-44348628D02*
X137614286Y-44443866D01*
X137614286Y-44443866D02*
X137614286Y-44634342D01*
X137614286Y-44634342D02*
X137661905Y-44729580D01*
X137661905Y-44729580D02*
X137709524Y-44777200D01*
X137709524Y-44777200D02*
X137804762Y-44824819D01*
X137804762Y-44824819D02*
X137995238Y-44824819D01*
X137995238Y-44824819D02*
X138090476Y-44777200D01*
X138090476Y-44777200D02*
X138138095Y-44729580D01*
X138138095Y-44729580D02*
X138185714Y-44634342D01*
X138185714Y-44634342D02*
X138185714Y-44443866D01*
X138185714Y-44443866D02*
X138138095Y-44348628D01*
X138138095Y-44348628D02*
X138090476Y-44301009D01*
X138090476Y-44301009D02*
X137995238Y-44253390D01*
X87763095Y-22254819D02*
X87763095Y-21254819D01*
X87763095Y-21731009D02*
X88334523Y-21731009D01*
X88334523Y-22254819D02*
X88334523Y-21254819D01*
X89286904Y-21254819D02*
X88810714Y-21254819D01*
X88810714Y-21254819D02*
X88763095Y-21731009D01*
X88763095Y-21731009D02*
X88810714Y-21683390D01*
X88810714Y-21683390D02*
X88905952Y-21635771D01*
X88905952Y-21635771D02*
X89144047Y-21635771D01*
X89144047Y-21635771D02*
X89239285Y-21683390D01*
X89239285Y-21683390D02*
X89286904Y-21731009D01*
X89286904Y-21731009D02*
X89334523Y-21826247D01*
X89334523Y-21826247D02*
X89334523Y-22064342D01*
X89334523Y-22064342D02*
X89286904Y-22159580D01*
X89286904Y-22159580D02*
X89239285Y-22207200D01*
X89239285Y-22207200D02*
X89144047Y-22254819D01*
X89144047Y-22254819D02*
X88905952Y-22254819D01*
X88905952Y-22254819D02*
X88810714Y-22207200D01*
X88810714Y-22207200D02*
X88763095Y-22159580D01*
X113271428Y-44424819D02*
X112938095Y-43948628D01*
X112700000Y-44424819D02*
X112700000Y-43424819D01*
X112700000Y-43424819D02*
X113080952Y-43424819D01*
X113080952Y-43424819D02*
X113176190Y-43472438D01*
X113176190Y-43472438D02*
X113223809Y-43520057D01*
X113223809Y-43520057D02*
X113271428Y-43615295D01*
X113271428Y-43615295D02*
X113271428Y-43758152D01*
X113271428Y-43758152D02*
X113223809Y-43853390D01*
X113223809Y-43853390D02*
X113176190Y-43901009D01*
X113176190Y-43901009D02*
X113080952Y-43948628D01*
X113080952Y-43948628D02*
X112700000Y-43948628D01*
X114128571Y-44424819D02*
X114128571Y-43424819D01*
X114128571Y-44377200D02*
X114033333Y-44424819D01*
X114033333Y-44424819D02*
X113842857Y-44424819D01*
X113842857Y-44424819D02*
X113747619Y-44377200D01*
X113747619Y-44377200D02*
X113700000Y-44329580D01*
X113700000Y-44329580D02*
X113652381Y-44234342D01*
X113652381Y-44234342D02*
X113652381Y-43948628D01*
X113652381Y-43948628D02*
X113700000Y-43853390D01*
X113700000Y-43853390D02*
X113747619Y-43805771D01*
X113747619Y-43805771D02*
X113842857Y-43758152D01*
X113842857Y-43758152D02*
X114033333Y-43758152D01*
X114033333Y-43758152D02*
X114128571Y-43805771D01*
X114461905Y-43758152D02*
X114842857Y-43758152D01*
X114604762Y-43424819D02*
X114604762Y-44281961D01*
X114604762Y-44281961D02*
X114652381Y-44377200D01*
X114652381Y-44377200D02*
X114747619Y-44424819D01*
X114747619Y-44424819D02*
X114842857Y-44424819D01*
X115176191Y-44424819D02*
X115176191Y-43424819D01*
X115176191Y-43901009D02*
X115747619Y-43901009D01*
X115747619Y-44424819D02*
X115747619Y-43424819D01*
X116747619Y-44424819D02*
X116176191Y-44424819D01*
X116461905Y-44424819D02*
X116461905Y-43424819D01*
X116461905Y-43424819D02*
X116366667Y-43567676D01*
X116366667Y-43567676D02*
X116271429Y-43662914D01*
X116271429Y-43662914D02*
X116176191Y-43710533D01*
D11*
X146442580Y-37183333D02*
X146918771Y-36850000D01*
X146442580Y-36611905D02*
X147442580Y-36611905D01*
X147442580Y-36611905D02*
X147442580Y-36992857D01*
X147442580Y-36992857D02*
X147394961Y-37088095D01*
X147394961Y-37088095D02*
X147347342Y-37135714D01*
X147347342Y-37135714D02*
X147252104Y-37183333D01*
X147252104Y-37183333D02*
X147109247Y-37183333D01*
X147109247Y-37183333D02*
X147014009Y-37135714D01*
X147014009Y-37135714D02*
X146966390Y-37088095D01*
X146966390Y-37088095D02*
X146918771Y-36992857D01*
X146918771Y-36992857D02*
X146918771Y-36611905D01*
X146442580Y-37659524D02*
X146442580Y-37850000D01*
X146442580Y-37850000D02*
X146490200Y-37945238D01*
X146490200Y-37945238D02*
X146537819Y-37992857D01*
X146537819Y-37992857D02*
X146680676Y-38088095D01*
X146680676Y-38088095D02*
X146871152Y-38135714D01*
X146871152Y-38135714D02*
X147252104Y-38135714D01*
X147252104Y-38135714D02*
X147347342Y-38088095D01*
X147347342Y-38088095D02*
X147394961Y-38040476D01*
X147394961Y-38040476D02*
X147442580Y-37945238D01*
X147442580Y-37945238D02*
X147442580Y-37754762D01*
X147442580Y-37754762D02*
X147394961Y-37659524D01*
X147394961Y-37659524D02*
X147347342Y-37611905D01*
X147347342Y-37611905D02*
X147252104Y-37564286D01*
X147252104Y-37564286D02*
X147014009Y-37564286D01*
X147014009Y-37564286D02*
X146918771Y-37611905D01*
X146918771Y-37611905D02*
X146871152Y-37659524D01*
X146871152Y-37659524D02*
X146823533Y-37754762D01*
X146823533Y-37754762D02*
X146823533Y-37945238D01*
X146823533Y-37945238D02*
X146871152Y-38040476D01*
X146871152Y-38040476D02*
X146918771Y-38088095D01*
X146918771Y-38088095D02*
X147014009Y-38135714D01*
D10*
X141333333Y-43185819D02*
X140857143Y-43185819D01*
X140857143Y-43185819D02*
X140857143Y-42185819D01*
X142190476Y-43185819D02*
X141619048Y-43185819D01*
X141904762Y-43185819D02*
X141904762Y-42185819D01*
X141904762Y-42185819D02*
X141809524Y-42328676D01*
X141809524Y-42328676D02*
X141714286Y-42423914D01*
X141714286Y-42423914D02*
X141619048Y-42471533D01*
D11*
X127717342Y-45094761D02*
X127764961Y-44999523D01*
X127764961Y-44999523D02*
X127860200Y-44904285D01*
X127860200Y-44904285D02*
X128003057Y-44761428D01*
X128003057Y-44761428D02*
X128050676Y-44666190D01*
X128050676Y-44666190D02*
X128050676Y-44570952D01*
X127812580Y-44618571D02*
X127860200Y-44523333D01*
X127860200Y-44523333D02*
X127955438Y-44428095D01*
X127955438Y-44428095D02*
X128145914Y-44380476D01*
X128145914Y-44380476D02*
X128479247Y-44380476D01*
X128479247Y-44380476D02*
X128669723Y-44428095D01*
X128669723Y-44428095D02*
X128764961Y-44523333D01*
X128764961Y-44523333D02*
X128812580Y-44618571D01*
X128812580Y-44618571D02*
X128812580Y-44809047D01*
X128812580Y-44809047D02*
X128764961Y-44904285D01*
X128764961Y-44904285D02*
X128669723Y-44999523D01*
X128669723Y-44999523D02*
X128479247Y-45047142D01*
X128479247Y-45047142D02*
X128145914Y-45047142D01*
X128145914Y-45047142D02*
X127955438Y-44999523D01*
X127955438Y-44999523D02*
X127860200Y-44904285D01*
X127860200Y-44904285D02*
X127812580Y-44809047D01*
X127812580Y-44809047D02*
X127812580Y-44618571D01*
X127812580Y-45999523D02*
X127812580Y-45428095D01*
X127812580Y-45713809D02*
X128812580Y-45713809D01*
X128812580Y-45713809D02*
X128669723Y-45618571D01*
X128669723Y-45618571D02*
X128574485Y-45523333D01*
X128574485Y-45523333D02*
X128526866Y-45428095D01*
X151442580Y-37183333D02*
X151918771Y-36850000D01*
X151442580Y-36611905D02*
X152442580Y-36611905D01*
X152442580Y-36611905D02*
X152442580Y-36992857D01*
X152442580Y-36992857D02*
X152394961Y-37088095D01*
X152394961Y-37088095D02*
X152347342Y-37135714D01*
X152347342Y-37135714D02*
X152252104Y-37183333D01*
X152252104Y-37183333D02*
X152109247Y-37183333D01*
X152109247Y-37183333D02*
X152014009Y-37135714D01*
X152014009Y-37135714D02*
X151966390Y-37088095D01*
X151966390Y-37088095D02*
X151918771Y-36992857D01*
X151918771Y-36992857D02*
X151918771Y-36611905D01*
X152109247Y-38040476D02*
X151442580Y-38040476D01*
X152490200Y-37802381D02*
X151775914Y-37564286D01*
X151775914Y-37564286D02*
X151775914Y-38183333D01*
D10*
X120833333Y-44019580D02*
X120785714Y-44067200D01*
X120785714Y-44067200D02*
X120642857Y-44114819D01*
X120642857Y-44114819D02*
X120547619Y-44114819D01*
X120547619Y-44114819D02*
X120404762Y-44067200D01*
X120404762Y-44067200D02*
X120309524Y-43971961D01*
X120309524Y-43971961D02*
X120261905Y-43876723D01*
X120261905Y-43876723D02*
X120214286Y-43686247D01*
X120214286Y-43686247D02*
X120214286Y-43543390D01*
X120214286Y-43543390D02*
X120261905Y-43352914D01*
X120261905Y-43352914D02*
X120309524Y-43257676D01*
X120309524Y-43257676D02*
X120404762Y-43162438D01*
X120404762Y-43162438D02*
X120547619Y-43114819D01*
X120547619Y-43114819D02*
X120642857Y-43114819D01*
X120642857Y-43114819D02*
X120785714Y-43162438D01*
X120785714Y-43162438D02*
X120833333Y-43210057D01*
X121166667Y-43114819D02*
X121785714Y-43114819D01*
X121785714Y-43114819D02*
X121452381Y-43495771D01*
X121452381Y-43495771D02*
X121595238Y-43495771D01*
X121595238Y-43495771D02*
X121690476Y-43543390D01*
X121690476Y-43543390D02*
X121738095Y-43591009D01*
X121738095Y-43591009D02*
X121785714Y-43686247D01*
X121785714Y-43686247D02*
X121785714Y-43924342D01*
X121785714Y-43924342D02*
X121738095Y-44019580D01*
X121738095Y-44019580D02*
X121690476Y-44067200D01*
X121690476Y-44067200D02*
X121595238Y-44114819D01*
X121595238Y-44114819D02*
X121309524Y-44114819D01*
X121309524Y-44114819D02*
X121214286Y-44067200D01*
X121214286Y-44067200D02*
X121166667Y-44019580D01*
X142414286Y-20354819D02*
X142747619Y-21354819D01*
X142747619Y-21354819D02*
X143080952Y-20354819D01*
X143414286Y-21354819D02*
X143414286Y-20354819D01*
X143414286Y-20354819D02*
X143652381Y-20354819D01*
X143652381Y-20354819D02*
X143795238Y-20402438D01*
X143795238Y-20402438D02*
X143890476Y-20497676D01*
X143890476Y-20497676D02*
X143938095Y-20592914D01*
X143938095Y-20592914D02*
X143985714Y-20783390D01*
X143985714Y-20783390D02*
X143985714Y-20926247D01*
X143985714Y-20926247D02*
X143938095Y-21116723D01*
X143938095Y-21116723D02*
X143890476Y-21211961D01*
X143890476Y-21211961D02*
X143795238Y-21307200D01*
X143795238Y-21307200D02*
X143652381Y-21354819D01*
X143652381Y-21354819D02*
X143414286Y-21354819D01*
X144414286Y-21354819D02*
X144414286Y-20354819D01*
X144414286Y-20354819D02*
X144652381Y-20354819D01*
X144652381Y-20354819D02*
X144795238Y-20402438D01*
X144795238Y-20402438D02*
X144890476Y-20497676D01*
X144890476Y-20497676D02*
X144938095Y-20592914D01*
X144938095Y-20592914D02*
X144985714Y-20783390D01*
X144985714Y-20783390D02*
X144985714Y-20926247D01*
X144985714Y-20926247D02*
X144938095Y-21116723D01*
X144938095Y-21116723D02*
X144890476Y-21211961D01*
X144890476Y-21211961D02*
X144795238Y-21307200D01*
X144795238Y-21307200D02*
X144652381Y-21354819D01*
X144652381Y-21354819D02*
X144414286Y-21354819D01*
X145319048Y-20354819D02*
X145938095Y-20354819D01*
X145938095Y-20354819D02*
X145604762Y-20735771D01*
X145604762Y-20735771D02*
X145747619Y-20735771D01*
X145747619Y-20735771D02*
X145842857Y-20783390D01*
X145842857Y-20783390D02*
X145890476Y-20831009D01*
X145890476Y-20831009D02*
X145938095Y-20926247D01*
X145938095Y-20926247D02*
X145938095Y-21164342D01*
X145938095Y-21164342D02*
X145890476Y-21259580D01*
X145890476Y-21259580D02*
X145842857Y-21307200D01*
X145842857Y-21307200D02*
X145747619Y-21354819D01*
X145747619Y-21354819D02*
X145461905Y-21354819D01*
X145461905Y-21354819D02*
X145366667Y-21307200D01*
X145366667Y-21307200D02*
X145319048Y-21259580D01*
X146557143Y-20354819D02*
X146652381Y-20354819D01*
X146652381Y-20354819D02*
X146747619Y-20402438D01*
X146747619Y-20402438D02*
X146795238Y-20450057D01*
X146795238Y-20450057D02*
X146842857Y-20545295D01*
X146842857Y-20545295D02*
X146890476Y-20735771D01*
X146890476Y-20735771D02*
X146890476Y-20973866D01*
X146890476Y-20973866D02*
X146842857Y-21164342D01*
X146842857Y-21164342D02*
X146795238Y-21259580D01*
X146795238Y-21259580D02*
X146747619Y-21307200D01*
X146747619Y-21307200D02*
X146652381Y-21354819D01*
X146652381Y-21354819D02*
X146557143Y-21354819D01*
X146557143Y-21354819D02*
X146461905Y-21307200D01*
X146461905Y-21307200D02*
X146414286Y-21259580D01*
X146414286Y-21259580D02*
X146366667Y-21164342D01*
X146366667Y-21164342D02*
X146319048Y-20973866D01*
X146319048Y-20973866D02*
X146319048Y-20735771D01*
X146319048Y-20735771D02*
X146366667Y-20545295D01*
X146366667Y-20545295D02*
X146414286Y-20450057D01*
X146414286Y-20450057D02*
X146461905Y-20402438D01*
X146461905Y-20402438D02*
X146557143Y-20354819D01*
X128279580Y-43766666D02*
X128327200Y-43814285D01*
X128327200Y-43814285D02*
X128374819Y-43957142D01*
X128374819Y-43957142D02*
X128374819Y-44052380D01*
X128374819Y-44052380D02*
X128327200Y-44195237D01*
X128327200Y-44195237D02*
X128231961Y-44290475D01*
X128231961Y-44290475D02*
X128136723Y-44338094D01*
X128136723Y-44338094D02*
X127946247Y-44385713D01*
X127946247Y-44385713D02*
X127803390Y-44385713D01*
X127803390Y-44385713D02*
X127612914Y-44338094D01*
X127612914Y-44338094D02*
X127517676Y-44290475D01*
X127517676Y-44290475D02*
X127422438Y-44195237D01*
X127422438Y-44195237D02*
X127374819Y-44052380D01*
X127374819Y-44052380D02*
X127374819Y-43957142D01*
X127374819Y-43957142D02*
X127422438Y-43814285D01*
X127422438Y-43814285D02*
X127470057Y-43766666D01*
X128374819Y-42814285D02*
X128374819Y-43385713D01*
X128374819Y-43099999D02*
X127374819Y-43099999D01*
X127374819Y-43099999D02*
X127517676Y-43195237D01*
X127517676Y-43195237D02*
X127612914Y-43290475D01*
X127612914Y-43290475D02*
X127660533Y-43385713D01*
X87708095Y-31484819D02*
X87708095Y-30484819D01*
X87708095Y-30961009D02*
X88279523Y-30961009D01*
X88279523Y-31484819D02*
X88279523Y-30484819D01*
X89184285Y-30484819D02*
X88993809Y-30484819D01*
X88993809Y-30484819D02*
X88898571Y-30532438D01*
X88898571Y-30532438D02*
X88850952Y-30580057D01*
X88850952Y-30580057D02*
X88755714Y-30722914D01*
X88755714Y-30722914D02*
X88708095Y-30913390D01*
X88708095Y-30913390D02*
X88708095Y-31294342D01*
X88708095Y-31294342D02*
X88755714Y-31389580D01*
X88755714Y-31389580D02*
X88803333Y-31437200D01*
X88803333Y-31437200D02*
X88898571Y-31484819D01*
X88898571Y-31484819D02*
X89089047Y-31484819D01*
X89089047Y-31484819D02*
X89184285Y-31437200D01*
X89184285Y-31437200D02*
X89231904Y-31389580D01*
X89231904Y-31389580D02*
X89279523Y-31294342D01*
X89279523Y-31294342D02*
X89279523Y-31056247D01*
X89279523Y-31056247D02*
X89231904Y-30961009D01*
X89231904Y-30961009D02*
X89184285Y-30913390D01*
X89184285Y-30913390D02*
X89089047Y-30865771D01*
X89089047Y-30865771D02*
X88898571Y-30865771D01*
X88898571Y-30865771D02*
X88803333Y-30913390D01*
X88803333Y-30913390D02*
X88755714Y-30961009D01*
X88755714Y-30961009D02*
X88708095Y-31056247D01*
X97488095Y-22104819D02*
X97488095Y-21104819D01*
X97488095Y-21581009D02*
X98059523Y-21581009D01*
X98059523Y-22104819D02*
X98059523Y-21104819D01*
X98678571Y-21533390D02*
X98583333Y-21485771D01*
X98583333Y-21485771D02*
X98535714Y-21438152D01*
X98535714Y-21438152D02*
X98488095Y-21342914D01*
X98488095Y-21342914D02*
X98488095Y-21295295D01*
X98488095Y-21295295D02*
X98535714Y-21200057D01*
X98535714Y-21200057D02*
X98583333Y-21152438D01*
X98583333Y-21152438D02*
X98678571Y-21104819D01*
X98678571Y-21104819D02*
X98869047Y-21104819D01*
X98869047Y-21104819D02*
X98964285Y-21152438D01*
X98964285Y-21152438D02*
X99011904Y-21200057D01*
X99011904Y-21200057D02*
X99059523Y-21295295D01*
X99059523Y-21295295D02*
X99059523Y-21342914D01*
X99059523Y-21342914D02*
X99011904Y-21438152D01*
X99011904Y-21438152D02*
X98964285Y-21485771D01*
X98964285Y-21485771D02*
X98869047Y-21533390D01*
X98869047Y-21533390D02*
X98678571Y-21533390D01*
X98678571Y-21533390D02*
X98583333Y-21581009D01*
X98583333Y-21581009D02*
X98535714Y-21628628D01*
X98535714Y-21628628D02*
X98488095Y-21723866D01*
X98488095Y-21723866D02*
X98488095Y-21914342D01*
X98488095Y-21914342D02*
X98535714Y-22009580D01*
X98535714Y-22009580D02*
X98583333Y-22057200D01*
X98583333Y-22057200D02*
X98678571Y-22104819D01*
X98678571Y-22104819D02*
X98869047Y-22104819D01*
X98869047Y-22104819D02*
X98964285Y-22057200D01*
X98964285Y-22057200D02*
X99011904Y-22009580D01*
X99011904Y-22009580D02*
X99059523Y-21914342D01*
X99059523Y-21914342D02*
X99059523Y-21723866D01*
X99059523Y-21723866D02*
X99011904Y-21628628D01*
X99011904Y-21628628D02*
X98964285Y-21581009D01*
X98964285Y-21581009D02*
X98869047Y-21533390D01*
X112960475Y-42584819D02*
X112627142Y-42108628D01*
X112389047Y-42584819D02*
X112389047Y-41584819D01*
X112389047Y-41584819D02*
X112769999Y-41584819D01*
X112769999Y-41584819D02*
X112865237Y-41632438D01*
X112865237Y-41632438D02*
X112912856Y-41680057D01*
X112912856Y-41680057D02*
X112960475Y-41775295D01*
X112960475Y-41775295D02*
X112960475Y-41918152D01*
X112960475Y-41918152D02*
X112912856Y-42013390D01*
X112912856Y-42013390D02*
X112865237Y-42061009D01*
X112865237Y-42061009D02*
X112769999Y-42108628D01*
X112769999Y-42108628D02*
X112389047Y-42108628D01*
X113817618Y-42584819D02*
X113817618Y-41584819D01*
X113817618Y-42537200D02*
X113722380Y-42584819D01*
X113722380Y-42584819D02*
X113531904Y-42584819D01*
X113531904Y-42584819D02*
X113436666Y-42537200D01*
X113436666Y-42537200D02*
X113389047Y-42489580D01*
X113389047Y-42489580D02*
X113341428Y-42394342D01*
X113341428Y-42394342D02*
X113341428Y-42108628D01*
X113341428Y-42108628D02*
X113389047Y-42013390D01*
X113389047Y-42013390D02*
X113436666Y-41965771D01*
X113436666Y-41965771D02*
X113531904Y-41918152D01*
X113531904Y-41918152D02*
X113722380Y-41918152D01*
X113722380Y-41918152D02*
X113817618Y-41965771D01*
X114150952Y-41918152D02*
X114531904Y-41918152D01*
X114293809Y-41584819D02*
X114293809Y-42441961D01*
X114293809Y-42441961D02*
X114341428Y-42537200D01*
X114341428Y-42537200D02*
X114436666Y-42584819D01*
X114436666Y-42584819D02*
X114531904Y-42584819D01*
X115341428Y-42584819D02*
X114865238Y-42584819D01*
X114865238Y-42584819D02*
X114865238Y-41584819D01*
X116198571Y-42584819D02*
X115627143Y-42584819D01*
X115912857Y-42584819D02*
X115912857Y-41584819D01*
X115912857Y-41584819D02*
X115817619Y-41727676D01*
X115817619Y-41727676D02*
X115722381Y-41822914D01*
X115722381Y-41822914D02*
X115627143Y-41870533D01*
D11*
X121647342Y-45094761D02*
X121694961Y-44999523D01*
X121694961Y-44999523D02*
X121790200Y-44904285D01*
X121790200Y-44904285D02*
X121933057Y-44761428D01*
X121933057Y-44761428D02*
X121980676Y-44666190D01*
X121980676Y-44666190D02*
X121980676Y-44570952D01*
X121742580Y-44618571D02*
X121790200Y-44523333D01*
X121790200Y-44523333D02*
X121885438Y-44428095D01*
X121885438Y-44428095D02*
X122075914Y-44380476D01*
X122075914Y-44380476D02*
X122409247Y-44380476D01*
X122409247Y-44380476D02*
X122599723Y-44428095D01*
X122599723Y-44428095D02*
X122694961Y-44523333D01*
X122694961Y-44523333D02*
X122742580Y-44618571D01*
X122742580Y-44618571D02*
X122742580Y-44809047D01*
X122742580Y-44809047D02*
X122694961Y-44904285D01*
X122694961Y-44904285D02*
X122599723Y-44999523D01*
X122599723Y-44999523D02*
X122409247Y-45047142D01*
X122409247Y-45047142D02*
X122075914Y-45047142D01*
X122075914Y-45047142D02*
X121885438Y-44999523D01*
X121885438Y-44999523D02*
X121790200Y-44904285D01*
X121790200Y-44904285D02*
X121742580Y-44809047D01*
X121742580Y-44809047D02*
X121742580Y-44618571D01*
X122647342Y-45428095D02*
X122694961Y-45475714D01*
X122694961Y-45475714D02*
X122742580Y-45570952D01*
X122742580Y-45570952D02*
X122742580Y-45809047D01*
X122742580Y-45809047D02*
X122694961Y-45904285D01*
X122694961Y-45904285D02*
X122647342Y-45951904D01*
X122647342Y-45951904D02*
X122552104Y-45999523D01*
X122552104Y-45999523D02*
X122456866Y-45999523D01*
X122456866Y-45999523D02*
X122314009Y-45951904D01*
X122314009Y-45951904D02*
X121742580Y-45380476D01*
X121742580Y-45380476D02*
X121742580Y-45999523D01*
D10*
X120703333Y-42139580D02*
X120655714Y-42187200D01*
X120655714Y-42187200D02*
X120512857Y-42234819D01*
X120512857Y-42234819D02*
X120417619Y-42234819D01*
X120417619Y-42234819D02*
X120274762Y-42187200D01*
X120274762Y-42187200D02*
X120179524Y-42091961D01*
X120179524Y-42091961D02*
X120131905Y-41996723D01*
X120131905Y-41996723D02*
X120084286Y-41806247D01*
X120084286Y-41806247D02*
X120084286Y-41663390D01*
X120084286Y-41663390D02*
X120131905Y-41472914D01*
X120131905Y-41472914D02*
X120179524Y-41377676D01*
X120179524Y-41377676D02*
X120274762Y-41282438D01*
X120274762Y-41282438D02*
X120417619Y-41234819D01*
X120417619Y-41234819D02*
X120512857Y-41234819D01*
X120512857Y-41234819D02*
X120655714Y-41282438D01*
X120655714Y-41282438D02*
X120703333Y-41330057D01*
X121560476Y-41568152D02*
X121560476Y-42234819D01*
X121322381Y-41187200D02*
X121084286Y-41901485D01*
X121084286Y-41901485D02*
X121703333Y-41901485D01*
X121484819Y-39266666D02*
X121008628Y-39599999D01*
X121484819Y-39838094D02*
X120484819Y-39838094D01*
X120484819Y-39838094D02*
X120484819Y-39457142D01*
X120484819Y-39457142D02*
X120532438Y-39361904D01*
X120532438Y-39361904D02*
X120580057Y-39314285D01*
X120580057Y-39314285D02*
X120675295Y-39266666D01*
X120675295Y-39266666D02*
X120818152Y-39266666D01*
X120818152Y-39266666D02*
X120913390Y-39314285D01*
X120913390Y-39314285D02*
X120961009Y-39361904D01*
X120961009Y-39361904D02*
X121008628Y-39457142D01*
X121008628Y-39457142D02*
X121008628Y-39838094D01*
X121484819Y-38314285D02*
X121484819Y-38885713D01*
X121484819Y-38599999D02*
X120484819Y-38599999D01*
X120484819Y-38599999D02*
X120627676Y-38695237D01*
X120627676Y-38695237D02*
X120722914Y-38790475D01*
X120722914Y-38790475D02*
X120770533Y-38885713D01*
X123822380Y-39098276D02*
X123822380Y-39616371D01*
X123822380Y-39616371D02*
X123852857Y-39677323D01*
X123852857Y-39677323D02*
X123883333Y-39707800D01*
X123883333Y-39707800D02*
X123944285Y-39738276D01*
X123944285Y-39738276D02*
X124066190Y-39738276D01*
X124066190Y-39738276D02*
X124127142Y-39707800D01*
X124127142Y-39707800D02*
X124157619Y-39677323D01*
X124157619Y-39677323D02*
X124188095Y-39616371D01*
X124188095Y-39616371D02*
X124188095Y-39098276D01*
X124828095Y-39738276D02*
X124462380Y-39738276D01*
X124645237Y-39738276D02*
X124645237Y-39098276D01*
X124645237Y-39098276D02*
X124584285Y-39189704D01*
X124584285Y-39189704D02*
X124523333Y-39250657D01*
X124523333Y-39250657D02*
X124462380Y-39281133D01*
X132771905Y-41964819D02*
X132771905Y-40964819D01*
X132771905Y-40964819D02*
X133010000Y-40964819D01*
X133010000Y-40964819D02*
X133152857Y-41012438D01*
X133152857Y-41012438D02*
X133248095Y-41107676D01*
X133248095Y-41107676D02*
X133295714Y-41202914D01*
X133295714Y-41202914D02*
X133343333Y-41393390D01*
X133343333Y-41393390D02*
X133343333Y-41536247D01*
X133343333Y-41536247D02*
X133295714Y-41726723D01*
X133295714Y-41726723D02*
X133248095Y-41821961D01*
X133248095Y-41821961D02*
X133152857Y-41917200D01*
X133152857Y-41917200D02*
X133010000Y-41964819D01*
X133010000Y-41964819D02*
X132771905Y-41964819D01*
X134295714Y-41964819D02*
X133724286Y-41964819D01*
X134010000Y-41964819D02*
X134010000Y-40964819D01*
X134010000Y-40964819D02*
X133914762Y-41107676D01*
X133914762Y-41107676D02*
X133819524Y-41202914D01*
X133819524Y-41202914D02*
X133724286Y-41250533D01*
X97288095Y-31974819D02*
X97288095Y-30974819D01*
X97288095Y-31451009D02*
X97859523Y-31451009D01*
X97859523Y-31974819D02*
X97859523Y-30974819D01*
X98240476Y-30974819D02*
X98907142Y-30974819D01*
X98907142Y-30974819D02*
X98478571Y-31974819D01*
X123114286Y-21806819D02*
X123447619Y-22806819D01*
X123447619Y-22806819D02*
X123780952Y-21806819D01*
X124114286Y-22806819D02*
X124114286Y-21806819D01*
X124114286Y-21806819D02*
X124352381Y-21806819D01*
X124352381Y-21806819D02*
X124495238Y-21854438D01*
X124495238Y-21854438D02*
X124590476Y-21949676D01*
X124590476Y-21949676D02*
X124638095Y-22044914D01*
X124638095Y-22044914D02*
X124685714Y-22235390D01*
X124685714Y-22235390D02*
X124685714Y-22378247D01*
X124685714Y-22378247D02*
X124638095Y-22568723D01*
X124638095Y-22568723D02*
X124590476Y-22663961D01*
X124590476Y-22663961D02*
X124495238Y-22759200D01*
X124495238Y-22759200D02*
X124352381Y-22806819D01*
X124352381Y-22806819D02*
X124114286Y-22806819D01*
X125114286Y-22806819D02*
X125114286Y-21806819D01*
X125114286Y-21806819D02*
X125352381Y-21806819D01*
X125352381Y-21806819D02*
X125495238Y-21854438D01*
X125495238Y-21854438D02*
X125590476Y-21949676D01*
X125590476Y-21949676D02*
X125638095Y-22044914D01*
X125638095Y-22044914D02*
X125685714Y-22235390D01*
X125685714Y-22235390D02*
X125685714Y-22378247D01*
X125685714Y-22378247D02*
X125638095Y-22568723D01*
X125638095Y-22568723D02*
X125590476Y-22663961D01*
X125590476Y-22663961D02*
X125495238Y-22759200D01*
X125495238Y-22759200D02*
X125352381Y-22806819D01*
X125352381Y-22806819D02*
X125114286Y-22806819D01*
X126638095Y-22806819D02*
X126066667Y-22806819D01*
X126352381Y-22806819D02*
X126352381Y-21806819D01*
X126352381Y-21806819D02*
X126257143Y-21949676D01*
X126257143Y-21949676D02*
X126161905Y-22044914D01*
X126161905Y-22044914D02*
X126066667Y-22092533D01*
X127257143Y-21806819D02*
X127352381Y-21806819D01*
X127352381Y-21806819D02*
X127447619Y-21854438D01*
X127447619Y-21854438D02*
X127495238Y-21902057D01*
X127495238Y-21902057D02*
X127542857Y-21997295D01*
X127542857Y-21997295D02*
X127590476Y-22187771D01*
X127590476Y-22187771D02*
X127590476Y-22425866D01*
X127590476Y-22425866D02*
X127542857Y-22616342D01*
X127542857Y-22616342D02*
X127495238Y-22711580D01*
X127495238Y-22711580D02*
X127447619Y-22759200D01*
X127447619Y-22759200D02*
X127352381Y-22806819D01*
X127352381Y-22806819D02*
X127257143Y-22806819D01*
X127257143Y-22806819D02*
X127161905Y-22759200D01*
X127161905Y-22759200D02*
X127114286Y-22711580D01*
X127114286Y-22711580D02*
X127066667Y-22616342D01*
X127066667Y-22616342D02*
X127019048Y-22425866D01*
X127019048Y-22425866D02*
X127019048Y-22187771D01*
X127019048Y-22187771D02*
X127066667Y-21997295D01*
X127066667Y-21997295D02*
X127114286Y-21902057D01*
X127114286Y-21902057D02*
X127161905Y-21854438D01*
X127161905Y-21854438D02*
X127257143Y-21806819D01*
D12*
%TO.C,R5*%
X142853641Y-38120000D02*
X142546359Y-38120000D01*
X142853641Y-38880000D02*
X142546359Y-38880000D01*
%TO.C,EN1*%
X120450000Y-24400000D02*
G75*
G02*
X117550000Y-24400000I-1450000J0D01*
G01*
X117550000Y-24400000D02*
G75*
G02*
X120450000Y-24400000I1450000J0D01*
G01*
%TO.C,D2*%
X129830000Y-37640000D02*
X131240000Y-37640000D01*
X129830000Y-39960000D02*
X131240000Y-39960000D01*
X131240000Y-37640000D02*
X131240000Y-38300000D01*
X131240000Y-39300000D02*
X131240000Y-39960000D01*
X129460000Y-37660000D02*
X129220000Y-37330000D01*
X129700000Y-37330000D01*
X129460000Y-37660000D01*
G36*
X129460000Y-37660000D02*
G01*
X129220000Y-37330000D01*
X129700000Y-37330000D01*
X129460000Y-37660000D01*
G37*
%TO.C,R8*%
X137553641Y-42820000D02*
X137246359Y-42820000D01*
X137553641Y-43580000D02*
X137246359Y-43580000D01*
%TO.C,R6*%
X118265000Y-39772936D02*
X118265000Y-40227064D01*
X119735000Y-39772936D02*
X119735000Y-40227064D01*
%TO.C,RdtH1*%
X118248859Y-43620000D02*
X118556141Y-43620000D01*
X118248859Y-44380000D02*
X118556141Y-44380000D01*
%TO.C,R9*%
D11*
X147300000Y-34750000D02*
X145500000Y-34750000D01*
X145500000Y-39950000D01*
X147300000Y-39950000D01*
X147300000Y-34750000D01*
D12*
%TO.C,L1*%
X139876000Y-43631000D02*
X143124000Y-43631000D01*
X139876000Y-44355000D02*
X139876000Y-43631000D01*
X139876000Y-46155000D02*
X139876000Y-46879000D01*
X139876000Y-46879000D02*
X143124000Y-46879000D01*
X143124000Y-43631000D02*
X143124000Y-44355000D01*
X143124000Y-46879000D02*
X143124000Y-46155000D01*
%TO.C,L5*%
X145876000Y-43631000D02*
X149124000Y-43631000D01*
X145876000Y-44355000D02*
X145876000Y-43631000D01*
X145876000Y-46155000D02*
X145876000Y-46879000D01*
X145876000Y-46879000D02*
X149124000Y-46879000D01*
X149124000Y-43631000D02*
X149124000Y-44355000D01*
X149124000Y-46879000D02*
X149124000Y-46155000D01*
%TO.C,R4*%
D11*
X152300000Y-34750000D02*
X150500000Y-34750000D01*
X150500000Y-39950000D01*
X152300000Y-39950000D01*
X152300000Y-34750000D01*
D12*
%TO.C,C3*%
X121107836Y-42140000D02*
X120892164Y-42140000D01*
X121107836Y-42860000D02*
X120892164Y-42860000D01*
%TO.C,C1*%
X127640000Y-42107836D02*
X127640000Y-41892164D01*
X128360000Y-42107836D02*
X128360000Y-41892164D01*
%TO.C,RdtL1*%
X118336359Y-42120000D02*
X118643641Y-42120000D01*
X118336359Y-42880000D02*
X118643641Y-42880000D01*
%TO.C,C4*%
X120912164Y-40640000D02*
X121127836Y-40640000D01*
X120912164Y-41360000D02*
X121127836Y-41360000D01*
%TO.C,R1*%
X121820000Y-39253641D02*
X121820000Y-38946359D01*
X122580000Y-39253641D02*
X122580000Y-38946359D01*
D13*
%TO.C,U1*%
X122712500Y-43500000D02*
X123012500Y-43500000D01*
X123012500Y-40500000D02*
X122712500Y-40500000D01*
X126412500Y-43500000D02*
X126712500Y-43500000D01*
X126712500Y-40500000D02*
X126412500Y-40500000D01*
D10*
X122087500Y-40600000D02*
G75*
G02*
X121937500Y-40600000I-75000J0D01*
G01*
X121937500Y-40600000D02*
G75*
G02*
X122087500Y-40600000I75000J0D01*
G01*
D12*
%TO.C,D1*%
X129820000Y-40790000D02*
X131230000Y-40790000D01*
X129820000Y-43110000D02*
X131230000Y-43110000D01*
X131230000Y-40790000D02*
X131230000Y-41450000D01*
X131230000Y-42450000D02*
X131230000Y-43110000D01*
X129450000Y-40810000D02*
X129210000Y-40480000D01*
X129690000Y-40480000D01*
X129450000Y-40810000D01*
G36*
X129450000Y-40810000D02*
G01*
X129210000Y-40480000D01*
X129690000Y-40480000D01*
X129450000Y-40810000D01*
G37*
%TO.C,VDD10*%
X126850000Y-24500000D02*
G75*
G02*
X123950000Y-24500000I-1450000J0D01*
G01*
X123950000Y-24500000D02*
G75*
G02*
X126850000Y-24500000I1450000J0D01*
G01*
%TD*%
M02*
