%TF.GenerationSoftware,KiCad,Pcbnew,8.0.5*%
%TF.CreationDate,2024-10-10T12:36:00+02:00*%
%TF.ProjectId,MosTest_GanFet,4d6f7354-6573-4745-9f47-616e4665742e,rev?*%
%TF.SameCoordinates,Original*%
%TF.FileFunction,Drillmap*%
%TF.FilePolarity,Positive*%
%FSLAX45Y45*%
G04 Gerber Fmt 4.5, Leading zero omitted, Abs format (unit mm)*
G04 Created by KiCad (PCBNEW 8.0.5) date 2024-10-10 12:36:00*
%MOMM*%
%LPD*%
G01*
G04 APERTURE LIST*
%ADD10C,0.050000*%
%ADD11C,0.200000*%
%ADD12C,0.100000*%
%ADD13C,0.110000*%
%ADD14C,0.120000*%
%ADD15C,0.250000*%
%ADD16C,0.430000*%
G04 APERTURE END LIST*
D10*
X7800000Y-1600000D02*
X16085500Y-1600000D01*
X16085500Y-5140400D01*
X7800000Y-5140400D01*
X7800000Y-1600000D01*
D11*
D12*
X12088500Y-4709500D02*
X12113500Y-4734500D01*
X12113500Y-4709500D02*
X12088500Y-4734500D01*
X12091500Y-4602500D02*
X12116500Y-4627500D01*
X12116500Y-4602500D02*
X12091500Y-4627500D01*
X12093500Y-4546500D02*
X12118500Y-4571500D01*
X12118500Y-4546500D02*
X12093500Y-4571500D01*
X12093500Y-4655500D02*
X12118500Y-4680500D01*
X12118500Y-4655500D02*
X12093500Y-4680500D01*
X12144500Y-4705500D02*
X12169500Y-4730500D01*
X12169500Y-4705500D02*
X12144500Y-4730500D01*
X12195500Y-4705500D02*
X12220500Y-4730500D01*
X12220500Y-4705500D02*
X12195500Y-4730500D01*
X12294500Y-4603500D02*
X12319500Y-4628500D01*
X12319500Y-4603500D02*
X12294500Y-4628500D01*
X12294900Y-4659100D02*
X12319900Y-4684100D01*
X12319900Y-4659100D02*
X12294900Y-4684100D01*
X12296300Y-4547800D02*
X12321300Y-4572800D01*
X12321300Y-4547800D02*
X12296300Y-4572800D01*
X12348924Y-4460566D02*
X12373924Y-4485566D01*
X12373924Y-4460566D02*
X12348924Y-4485566D01*
X12586500Y-4553500D02*
X12611500Y-4578500D01*
X12611500Y-4553500D02*
X12586500Y-4578500D01*
X12586500Y-4603500D02*
X12611500Y-4628500D01*
X12611500Y-4603500D02*
X12586500Y-4628500D01*
X12586500Y-4654500D02*
X12611500Y-4679500D01*
X12611500Y-4654500D02*
X12586500Y-4679500D01*
X12662500Y-4457500D02*
X12687500Y-4482500D01*
X12687500Y-4457500D02*
X12662500Y-4482500D01*
X12672500Y-4721500D02*
X12697500Y-4746500D01*
X12697500Y-4721500D02*
X12672500Y-4746500D01*
X12701500Y-4547500D02*
X12726500Y-4572500D01*
X12726500Y-4547500D02*
X12701500Y-4572500D01*
X12701500Y-4605500D02*
X12726500Y-4630500D01*
X12726500Y-4605500D02*
X12701500Y-4630500D01*
X12701500Y-4665500D02*
X12726500Y-4690500D01*
X12726500Y-4665500D02*
X12701500Y-4690500D01*
X12729500Y-4709500D02*
X12754500Y-4734500D01*
X12754500Y-4709500D02*
X12729500Y-4734500D01*
X12782500Y-4711500D02*
X12807500Y-4736500D01*
X12807500Y-4711500D02*
X12782500Y-4736500D01*
X12828500Y-4599500D02*
X12853500Y-4624500D01*
X12853500Y-4599500D02*
X12828500Y-4624500D01*
X12841500Y-4546500D02*
X12866500Y-4571500D01*
X12866500Y-4546500D02*
X12841500Y-4571500D01*
X12842500Y-4660500D02*
X12867500Y-4685500D01*
X12867500Y-4660500D02*
X12842500Y-4685500D01*
X13075600Y-4453500D02*
X13100600Y-4478500D01*
X13100600Y-4453500D02*
X13075600Y-4478500D01*
X13076900Y-4388100D02*
X13101900Y-4413100D01*
X13101900Y-4388100D02*
X13076900Y-4413100D01*
X13124500Y-4425500D02*
X13149500Y-4450500D01*
X13149500Y-4425500D02*
X13124500Y-4450500D01*
X13126500Y-4478500D02*
X13151500Y-4503500D01*
X13151500Y-4478500D02*
X13126500Y-4503500D01*
X13263200Y-4383700D02*
X13288200Y-4408700D01*
X13288200Y-4383700D02*
X13263200Y-4408700D01*
X13263500Y-4445900D02*
X13288500Y-4470900D01*
X13288500Y-4445900D02*
X13263500Y-4470900D01*
X13310500Y-4407500D02*
X13335500Y-4432500D01*
X13335500Y-4407500D02*
X13310500Y-4432500D01*
X13313500Y-4464500D02*
X13338500Y-4489500D01*
X13338500Y-4464500D02*
X13313500Y-4489500D01*
X12408750Y-4140000D02*
G75*
G02*
X12383750Y-4140000I-12500J0D01*
G01*
X12383750Y-4140000D02*
G75*
G02*
X12408750Y-4140000I12500J0D01*
G01*
X12408750Y-4260000D02*
G75*
G02*
X12383750Y-4260000I-12500J0D01*
G01*
X12383750Y-4260000D02*
G75*
G02*
X12408750Y-4260000I12500J0D01*
G01*
X12581250Y-4140000D02*
G75*
G02*
X12556250Y-4140000I-12500J0D01*
G01*
X12556250Y-4140000D02*
G75*
G02*
X12581250Y-4140000I12500J0D01*
G01*
X12581250Y-4260000D02*
G75*
G02*
X12556250Y-4260000I-12500J0D01*
G01*
X12556250Y-4260000D02*
G75*
G02*
X12581250Y-4260000I12500J0D01*
G01*
X11710000Y-4385000D02*
X11710000Y-4415000D01*
X11695000Y-4400000D02*
X11725000Y-4400000D01*
X11720000Y-4235000D02*
X11720000Y-4265000D01*
X11705000Y-4250000D02*
X11735000Y-4250000D01*
X12010000Y-4235000D02*
X12010000Y-4265000D01*
X11995000Y-4250000D02*
X12025000Y-4250000D01*
X12029000Y-3952000D02*
X12029000Y-3982000D01*
X12014000Y-3967000D02*
X12044000Y-3967000D01*
X12050000Y-4035000D02*
X12050000Y-4065000D01*
X12035000Y-4050000D02*
X12065000Y-4050000D01*
X12171748Y-4154705D02*
X12171748Y-4184705D01*
X12156748Y-4169705D02*
X12186748Y-4169705D01*
X12200000Y-3782500D02*
X12200000Y-3812500D01*
X12185000Y-3797500D02*
X12215000Y-3797500D01*
X12350000Y-3565000D02*
X12350000Y-3595000D01*
X12335000Y-3580000D02*
X12365000Y-3580000D01*
X12370000Y-3865000D02*
X12370000Y-3895000D01*
X12355000Y-3880000D02*
X12385000Y-3880000D01*
X12440000Y-3875000D02*
X12440000Y-3905000D01*
X12425000Y-3890000D02*
X12455000Y-3890000D01*
X12459000Y-4454000D02*
X12459000Y-4484000D01*
X12444000Y-4469000D02*
X12474000Y-4469000D01*
X12540000Y-3885000D02*
X12540000Y-3915000D01*
X12525000Y-3900000D02*
X12555000Y-3900000D01*
X12546250Y-4435000D02*
X12546250Y-4465000D01*
X12531250Y-4450000D02*
X12561250Y-4450000D01*
X12688280Y-3822244D02*
X12688280Y-3852244D01*
X12673280Y-3837244D02*
X12703280Y-3837244D01*
X12759000Y-4043000D02*
X12759000Y-4073000D01*
X12744000Y-4058000D02*
X12774000Y-4058000D01*
X12841000Y-4024000D02*
X12841000Y-4054000D01*
X12826000Y-4039000D02*
X12856000Y-4039000D01*
X12863000Y-4342000D02*
X12863000Y-4372000D01*
X12848000Y-4357000D02*
X12878000Y-4357000D01*
X13034000Y-4102000D02*
X13034000Y-4132000D01*
X13019000Y-4117000D02*
X13049000Y-4117000D01*
X13060000Y-3650500D02*
X13060000Y-3680500D01*
X13045000Y-3665500D02*
X13075000Y-3665500D01*
X13062000Y-3812000D02*
X13062000Y-3842000D01*
X13047000Y-3827000D02*
X13077000Y-3827000D01*
X13074538Y-4025000D02*
X13074538Y-4055000D01*
X13059538Y-4040000D02*
X13089538Y-4040000D01*
X13101000Y-4101000D02*
X13101000Y-4131000D01*
X13086000Y-4116000D02*
X13116000Y-4116000D01*
X13239000Y-4106000D02*
X13239000Y-4136000D01*
X13224000Y-4121000D02*
X13254000Y-4121000D01*
X13263000Y-3655000D02*
X13263000Y-3685000D01*
X13248000Y-3670000D02*
X13278000Y-3670000D01*
X13297000Y-3834000D02*
X13297000Y-3864000D01*
X13282000Y-3849000D02*
X13312000Y-3849000D01*
X13326000Y-4109000D02*
X13326000Y-4139000D01*
X13311000Y-4124000D02*
X13341000Y-4124000D01*
X13403000Y-4109000D02*
X13403000Y-4139000D01*
X13388000Y-4124000D02*
X13418000Y-4124000D01*
X13460000Y-3650500D02*
X13460000Y-3680500D01*
X13445000Y-3665500D02*
X13475000Y-3665500D01*
X13488000Y-4106000D02*
X13488000Y-4136000D01*
X13473000Y-4121000D02*
X13503000Y-4121000D01*
X13560000Y-4445000D02*
X13560000Y-4475000D01*
X13545000Y-4460000D02*
X13575000Y-4460000D01*
X13683000Y-4170000D02*
X13683000Y-4200000D01*
X13668000Y-4185000D02*
X13698000Y-4185000D01*
X13831000Y-4315000D02*
X13831000Y-4345000D01*
X13816000Y-4330000D02*
X13846000Y-4330000D01*
X13986000Y-4167000D02*
X13986000Y-4197000D01*
X13971000Y-4182000D02*
X14001000Y-4182000D01*
X14027500Y-3695000D02*
X14027500Y-3725000D01*
X14012500Y-3710000D02*
X14042500Y-3710000D01*
X14177500Y-3835000D02*
X14177500Y-3865000D01*
X14162500Y-3850000D02*
X14192500Y-3850000D01*
X14327500Y-3695000D02*
X14327500Y-3725000D01*
X14312500Y-3710000D02*
X14342500Y-3710000D01*
X14532178Y-3432678D02*
X14532178Y-3397322D01*
X14496822Y-3397322D01*
X14496822Y-3432678D01*
X14532178Y-3432678D01*
X14662178Y-3312678D02*
X14662178Y-3277322D01*
X14626822Y-3277322D01*
X14626822Y-3312678D01*
X14662178Y-3312678D01*
X14772178Y-3432678D02*
X14772178Y-3397322D01*
X14736822Y-3397322D01*
X14736822Y-3432678D01*
X14772178Y-3432678D01*
X15032178Y-3432678D02*
X15032178Y-3397322D01*
X14996822Y-3397322D01*
X14996822Y-3432678D01*
X15032178Y-3432678D01*
X15162178Y-3312678D02*
X15162178Y-3277322D01*
X15126822Y-3277322D01*
X15126822Y-3312678D01*
X15162178Y-3312678D01*
X15272178Y-3432678D02*
X15272178Y-3397322D01*
X15236822Y-3397322D01*
X15236822Y-3432678D01*
X15272178Y-3432678D01*
D13*
X13750000Y-4580500D02*
X13805000Y-4525500D01*
X13750000Y-4470500D01*
X13695000Y-4525500D01*
X13750000Y-4580500D01*
D14*
X11840000Y-2380000D02*
X11960000Y-2500000D01*
X11960000Y-2380000D02*
X11840000Y-2500000D01*
X11960000Y-2440000D02*
G75*
G02*
X11840000Y-2440000I-60000J0D01*
G01*
X11840000Y-2440000D02*
G75*
G02*
X11960000Y-2440000I60000J0D01*
G01*
X12480000Y-2390000D02*
X12600000Y-2510000D01*
X12600000Y-2390000D02*
X12480000Y-2510000D01*
X12600000Y-2450000D02*
G75*
G02*
X12480000Y-2450000I-60000J0D01*
G01*
X12480000Y-2450000D02*
G75*
G02*
X12600000Y-2450000I60000J0D01*
G01*
D15*
X13215000Y-2305000D02*
X13465000Y-2555000D01*
X13465000Y-2305000D02*
X13215000Y-2555000D01*
X13340000Y-2305000D02*
X13340000Y-2555000D01*
X13215000Y-2430000D02*
X13465000Y-2430000D01*
X14345000Y-2315000D02*
X14595000Y-2565000D01*
X14595000Y-2315000D02*
X14345000Y-2565000D01*
X14470000Y-2315000D02*
X14470000Y-2565000D01*
X14345000Y-2440000D02*
X14595000Y-2440000D01*
D16*
X8632000Y-3363000D02*
X9062000Y-3793000D01*
X9062000Y-3363000D02*
X8632000Y-3793000D01*
X8999029Y-3730029D02*
X8999029Y-3425971D01*
X8694971Y-3425971D01*
X8694971Y-3730029D01*
X8999029Y-3730029D01*
X8637500Y-2440000D02*
X9067500Y-2870000D01*
X9067500Y-2440000D02*
X8637500Y-2870000D01*
X9004529Y-2807029D02*
X9004529Y-2502971D01*
X8700471Y-2502971D01*
X8700471Y-2807029D01*
X9004529Y-2807029D01*
X9590000Y-3412000D02*
X10020000Y-3842000D01*
X10020000Y-3412000D02*
X9590000Y-3842000D01*
X9957029Y-3779029D02*
X9957029Y-3474971D01*
X9652971Y-3474971D01*
X9652971Y-3779029D01*
X9957029Y-3779029D01*
X9610000Y-2425000D02*
X10040000Y-2855000D01*
X10040000Y-2425000D02*
X9610000Y-2855000D01*
X9977029Y-2792029D02*
X9977029Y-2487971D01*
X9672971Y-2487971D01*
X9672971Y-2792029D01*
X9977029Y-2792029D01*
D11*
X8058277Y-5454384D02*
X8058277Y-5254384D01*
X8058277Y-5254384D02*
X8105896Y-5254384D01*
X8105896Y-5254384D02*
X8134467Y-5263908D01*
X8134467Y-5263908D02*
X8153515Y-5282955D01*
X8153515Y-5282955D02*
X8163039Y-5302003D01*
X8163039Y-5302003D02*
X8172562Y-5340098D01*
X8172562Y-5340098D02*
X8172562Y-5368670D01*
X8172562Y-5368670D02*
X8163039Y-5406765D01*
X8163039Y-5406765D02*
X8153515Y-5425812D01*
X8153515Y-5425812D02*
X8134467Y-5444860D01*
X8134467Y-5444860D02*
X8105896Y-5454384D01*
X8105896Y-5454384D02*
X8058277Y-5454384D01*
X8258277Y-5454384D02*
X8258277Y-5321050D01*
X8258277Y-5359146D02*
X8267801Y-5340098D01*
X8267801Y-5340098D02*
X8277324Y-5330574D01*
X8277324Y-5330574D02*
X8296372Y-5321050D01*
X8296372Y-5321050D02*
X8315420Y-5321050D01*
X8382086Y-5454384D02*
X8382086Y-5321050D01*
X8382086Y-5254384D02*
X8372562Y-5263908D01*
X8372562Y-5263908D02*
X8382086Y-5273431D01*
X8382086Y-5273431D02*
X8391610Y-5263908D01*
X8391610Y-5263908D02*
X8382086Y-5254384D01*
X8382086Y-5254384D02*
X8382086Y-5273431D01*
X8505896Y-5454384D02*
X8486848Y-5444860D01*
X8486848Y-5444860D02*
X8477324Y-5425812D01*
X8477324Y-5425812D02*
X8477324Y-5254384D01*
X8610658Y-5454384D02*
X8591610Y-5444860D01*
X8591610Y-5444860D02*
X8582086Y-5425812D01*
X8582086Y-5425812D02*
X8582086Y-5254384D01*
X8839229Y-5454384D02*
X8839229Y-5254384D01*
X8839229Y-5254384D02*
X8905896Y-5397241D01*
X8905896Y-5397241D02*
X8972563Y-5254384D01*
X8972563Y-5254384D02*
X8972563Y-5454384D01*
X9153515Y-5454384D02*
X9153515Y-5349622D01*
X9153515Y-5349622D02*
X9143991Y-5330574D01*
X9143991Y-5330574D02*
X9124944Y-5321050D01*
X9124944Y-5321050D02*
X9086848Y-5321050D01*
X9086848Y-5321050D02*
X9067801Y-5330574D01*
X9153515Y-5444860D02*
X9134467Y-5454384D01*
X9134467Y-5454384D02*
X9086848Y-5454384D01*
X9086848Y-5454384D02*
X9067801Y-5444860D01*
X9067801Y-5444860D02*
X9058277Y-5425812D01*
X9058277Y-5425812D02*
X9058277Y-5406765D01*
X9058277Y-5406765D02*
X9067801Y-5387717D01*
X9067801Y-5387717D02*
X9086848Y-5378193D01*
X9086848Y-5378193D02*
X9134467Y-5378193D01*
X9134467Y-5378193D02*
X9153515Y-5368670D01*
X9248753Y-5321050D02*
X9248753Y-5521050D01*
X9248753Y-5330574D02*
X9267801Y-5321050D01*
X9267801Y-5321050D02*
X9305896Y-5321050D01*
X9305896Y-5321050D02*
X9324944Y-5330574D01*
X9324944Y-5330574D02*
X9334467Y-5340098D01*
X9334467Y-5340098D02*
X9343991Y-5359146D01*
X9343991Y-5359146D02*
X9343991Y-5416289D01*
X9343991Y-5416289D02*
X9334467Y-5435336D01*
X9334467Y-5435336D02*
X9324944Y-5444860D01*
X9324944Y-5444860D02*
X9305896Y-5454384D01*
X9305896Y-5454384D02*
X9267801Y-5454384D01*
X9267801Y-5454384D02*
X9248753Y-5444860D01*
X9429705Y-5435336D02*
X9439229Y-5444860D01*
X9439229Y-5444860D02*
X9429705Y-5454384D01*
X9429705Y-5454384D02*
X9420182Y-5444860D01*
X9420182Y-5444860D02*
X9429705Y-5435336D01*
X9429705Y-5435336D02*
X9429705Y-5454384D01*
X9429705Y-5330574D02*
X9439229Y-5340098D01*
X9439229Y-5340098D02*
X9429705Y-5349622D01*
X9429705Y-5349622D02*
X9420182Y-5340098D01*
X9420182Y-5340098D02*
X9429705Y-5330574D01*
X9429705Y-5330574D02*
X9429705Y-5349622D01*
D12*
X7772500Y-5770400D02*
X7797500Y-5795400D01*
X7797500Y-5770400D02*
X7772500Y-5795400D01*
D11*
X8096372Y-5674384D02*
X8115420Y-5674384D01*
X8115420Y-5674384D02*
X8134467Y-5683908D01*
X8134467Y-5683908D02*
X8143991Y-5693431D01*
X8143991Y-5693431D02*
X8153515Y-5712479D01*
X8153515Y-5712479D02*
X8163039Y-5750574D01*
X8163039Y-5750574D02*
X8163039Y-5798193D01*
X8163039Y-5798193D02*
X8153515Y-5836288D01*
X8153515Y-5836288D02*
X8143991Y-5855336D01*
X8143991Y-5855336D02*
X8134467Y-5864860D01*
X8134467Y-5864860D02*
X8115420Y-5874384D01*
X8115420Y-5874384D02*
X8096372Y-5874384D01*
X8096372Y-5874384D02*
X8077324Y-5864860D01*
X8077324Y-5864860D02*
X8067801Y-5855336D01*
X8067801Y-5855336D02*
X8058277Y-5836288D01*
X8058277Y-5836288D02*
X8048753Y-5798193D01*
X8048753Y-5798193D02*
X8048753Y-5750574D01*
X8048753Y-5750574D02*
X8058277Y-5712479D01*
X8058277Y-5712479D02*
X8067801Y-5693431D01*
X8067801Y-5693431D02*
X8077324Y-5683908D01*
X8077324Y-5683908D02*
X8096372Y-5674384D01*
X8248753Y-5855336D02*
X8258277Y-5864860D01*
X8258277Y-5864860D02*
X8248753Y-5874384D01*
X8248753Y-5874384D02*
X8239229Y-5864860D01*
X8239229Y-5864860D02*
X8248753Y-5855336D01*
X8248753Y-5855336D02*
X8248753Y-5874384D01*
X8334467Y-5693431D02*
X8343991Y-5683908D01*
X8343991Y-5683908D02*
X8363039Y-5674384D01*
X8363039Y-5674384D02*
X8410658Y-5674384D01*
X8410658Y-5674384D02*
X8429705Y-5683908D01*
X8429705Y-5683908D02*
X8439229Y-5693431D01*
X8439229Y-5693431D02*
X8448753Y-5712479D01*
X8448753Y-5712479D02*
X8448753Y-5731527D01*
X8448753Y-5731527D02*
X8439229Y-5760098D01*
X8439229Y-5760098D02*
X8324943Y-5874384D01*
X8324943Y-5874384D02*
X8448753Y-5874384D01*
X8629705Y-5674384D02*
X8534467Y-5674384D01*
X8534467Y-5674384D02*
X8524944Y-5769622D01*
X8524944Y-5769622D02*
X8534467Y-5760098D01*
X8534467Y-5760098D02*
X8553515Y-5750574D01*
X8553515Y-5750574D02*
X8601134Y-5750574D01*
X8601134Y-5750574D02*
X8620182Y-5760098D01*
X8620182Y-5760098D02*
X8629705Y-5769622D01*
X8629705Y-5769622D02*
X8639229Y-5788669D01*
X8639229Y-5788669D02*
X8639229Y-5836288D01*
X8639229Y-5836288D02*
X8629705Y-5855336D01*
X8629705Y-5855336D02*
X8620182Y-5864860D01*
X8620182Y-5864860D02*
X8601134Y-5874384D01*
X8601134Y-5874384D02*
X8553515Y-5874384D01*
X8553515Y-5874384D02*
X8534467Y-5864860D01*
X8534467Y-5864860D02*
X8524944Y-5855336D01*
X8763039Y-5674384D02*
X8782086Y-5674384D01*
X8782086Y-5674384D02*
X8801134Y-5683908D01*
X8801134Y-5683908D02*
X8810658Y-5693431D01*
X8810658Y-5693431D02*
X8820182Y-5712479D01*
X8820182Y-5712479D02*
X8829705Y-5750574D01*
X8829705Y-5750574D02*
X8829705Y-5798193D01*
X8829705Y-5798193D02*
X8820182Y-5836288D01*
X8820182Y-5836288D02*
X8810658Y-5855336D01*
X8810658Y-5855336D02*
X8801134Y-5864860D01*
X8801134Y-5864860D02*
X8782086Y-5874384D01*
X8782086Y-5874384D02*
X8763039Y-5874384D01*
X8763039Y-5874384D02*
X8743991Y-5864860D01*
X8743991Y-5864860D02*
X8734467Y-5855336D01*
X8734467Y-5855336D02*
X8724944Y-5836288D01*
X8724944Y-5836288D02*
X8715420Y-5798193D01*
X8715420Y-5798193D02*
X8715420Y-5750574D01*
X8715420Y-5750574D02*
X8724944Y-5712479D01*
X8724944Y-5712479D02*
X8734467Y-5693431D01*
X8734467Y-5693431D02*
X8743991Y-5683908D01*
X8743991Y-5683908D02*
X8763039Y-5674384D01*
X8915420Y-5874384D02*
X8915420Y-5741050D01*
X8915420Y-5760098D02*
X8924944Y-5750574D01*
X8924944Y-5750574D02*
X8943991Y-5741050D01*
X8943991Y-5741050D02*
X8972563Y-5741050D01*
X8972563Y-5741050D02*
X8991610Y-5750574D01*
X8991610Y-5750574D02*
X9001134Y-5769622D01*
X9001134Y-5769622D02*
X9001134Y-5874384D01*
X9001134Y-5769622D02*
X9010658Y-5750574D01*
X9010658Y-5750574D02*
X9029705Y-5741050D01*
X9029705Y-5741050D02*
X9058277Y-5741050D01*
X9058277Y-5741050D02*
X9077325Y-5750574D01*
X9077325Y-5750574D02*
X9086848Y-5769622D01*
X9086848Y-5769622D02*
X9086848Y-5874384D01*
X9182086Y-5874384D02*
X9182086Y-5741050D01*
X9182086Y-5760098D02*
X9191610Y-5750574D01*
X9191610Y-5750574D02*
X9210658Y-5741050D01*
X9210658Y-5741050D02*
X9239229Y-5741050D01*
X9239229Y-5741050D02*
X9258277Y-5750574D01*
X9258277Y-5750574D02*
X9267801Y-5769622D01*
X9267801Y-5769622D02*
X9267801Y-5874384D01*
X9267801Y-5769622D02*
X9277325Y-5750574D01*
X9277325Y-5750574D02*
X9296372Y-5741050D01*
X9296372Y-5741050D02*
X9324944Y-5741050D01*
X9324944Y-5741050D02*
X9343991Y-5750574D01*
X9343991Y-5750574D02*
X9353515Y-5769622D01*
X9353515Y-5769622D02*
X9353515Y-5874384D01*
X9743991Y-5664860D02*
X9572563Y-5922003D01*
X10001134Y-5674384D02*
X10020182Y-5674384D01*
X10020182Y-5674384D02*
X10039229Y-5683908D01*
X10039229Y-5683908D02*
X10048753Y-5693431D01*
X10048753Y-5693431D02*
X10058277Y-5712479D01*
X10058277Y-5712479D02*
X10067801Y-5750574D01*
X10067801Y-5750574D02*
X10067801Y-5798193D01*
X10067801Y-5798193D02*
X10058277Y-5836288D01*
X10058277Y-5836288D02*
X10048753Y-5855336D01*
X10048753Y-5855336D02*
X10039229Y-5864860D01*
X10039229Y-5864860D02*
X10020182Y-5874384D01*
X10020182Y-5874384D02*
X10001134Y-5874384D01*
X10001134Y-5874384D02*
X9982087Y-5864860D01*
X9982087Y-5864860D02*
X9972563Y-5855336D01*
X9972563Y-5855336D02*
X9963039Y-5836288D01*
X9963039Y-5836288D02*
X9953515Y-5798193D01*
X9953515Y-5798193D02*
X9953515Y-5750574D01*
X9953515Y-5750574D02*
X9963039Y-5712479D01*
X9963039Y-5712479D02*
X9972563Y-5693431D01*
X9972563Y-5693431D02*
X9982087Y-5683908D01*
X9982087Y-5683908D02*
X10001134Y-5674384D01*
X10153515Y-5855336D02*
X10163039Y-5864860D01*
X10163039Y-5864860D02*
X10153515Y-5874384D01*
X10153515Y-5874384D02*
X10143991Y-5864860D01*
X10143991Y-5864860D02*
X10153515Y-5855336D01*
X10153515Y-5855336D02*
X10153515Y-5874384D01*
X10286848Y-5674384D02*
X10305896Y-5674384D01*
X10305896Y-5674384D02*
X10324944Y-5683908D01*
X10324944Y-5683908D02*
X10334468Y-5693431D01*
X10334468Y-5693431D02*
X10343991Y-5712479D01*
X10343991Y-5712479D02*
X10353515Y-5750574D01*
X10353515Y-5750574D02*
X10353515Y-5798193D01*
X10353515Y-5798193D02*
X10343991Y-5836288D01*
X10343991Y-5836288D02*
X10334468Y-5855336D01*
X10334468Y-5855336D02*
X10324944Y-5864860D01*
X10324944Y-5864860D02*
X10305896Y-5874384D01*
X10305896Y-5874384D02*
X10286848Y-5874384D01*
X10286848Y-5874384D02*
X10267801Y-5864860D01*
X10267801Y-5864860D02*
X10258277Y-5855336D01*
X10258277Y-5855336D02*
X10248753Y-5836288D01*
X10248753Y-5836288D02*
X10239229Y-5798193D01*
X10239229Y-5798193D02*
X10239229Y-5750574D01*
X10239229Y-5750574D02*
X10248753Y-5712479D01*
X10248753Y-5712479D02*
X10258277Y-5693431D01*
X10258277Y-5693431D02*
X10267801Y-5683908D01*
X10267801Y-5683908D02*
X10286848Y-5674384D01*
X10477325Y-5674384D02*
X10496372Y-5674384D01*
X10496372Y-5674384D02*
X10515420Y-5683908D01*
X10515420Y-5683908D02*
X10524944Y-5693431D01*
X10524944Y-5693431D02*
X10534468Y-5712479D01*
X10534468Y-5712479D02*
X10543991Y-5750574D01*
X10543991Y-5750574D02*
X10543991Y-5798193D01*
X10543991Y-5798193D02*
X10534468Y-5836288D01*
X10534468Y-5836288D02*
X10524944Y-5855336D01*
X10524944Y-5855336D02*
X10515420Y-5864860D01*
X10515420Y-5864860D02*
X10496372Y-5874384D01*
X10496372Y-5874384D02*
X10477325Y-5874384D01*
X10477325Y-5874384D02*
X10458277Y-5864860D01*
X10458277Y-5864860D02*
X10448753Y-5855336D01*
X10448753Y-5855336D02*
X10439229Y-5836288D01*
X10439229Y-5836288D02*
X10429706Y-5798193D01*
X10429706Y-5798193D02*
X10429706Y-5750574D01*
X10429706Y-5750574D02*
X10439229Y-5712479D01*
X10439229Y-5712479D02*
X10448753Y-5693431D01*
X10448753Y-5693431D02*
X10458277Y-5683908D01*
X10458277Y-5683908D02*
X10477325Y-5674384D01*
X10639229Y-5874384D02*
X10677325Y-5874384D01*
X10677325Y-5874384D02*
X10696372Y-5864860D01*
X10696372Y-5864860D02*
X10705896Y-5855336D01*
X10705896Y-5855336D02*
X10724944Y-5826765D01*
X10724944Y-5826765D02*
X10734468Y-5788669D01*
X10734468Y-5788669D02*
X10734468Y-5712479D01*
X10734468Y-5712479D02*
X10724944Y-5693431D01*
X10724944Y-5693431D02*
X10715420Y-5683908D01*
X10715420Y-5683908D02*
X10696372Y-5674384D01*
X10696372Y-5674384D02*
X10658277Y-5674384D01*
X10658277Y-5674384D02*
X10639229Y-5683908D01*
X10639229Y-5683908D02*
X10629706Y-5693431D01*
X10629706Y-5693431D02*
X10620182Y-5712479D01*
X10620182Y-5712479D02*
X10620182Y-5760098D01*
X10620182Y-5760098D02*
X10629706Y-5779146D01*
X10629706Y-5779146D02*
X10639229Y-5788669D01*
X10639229Y-5788669D02*
X10658277Y-5798193D01*
X10658277Y-5798193D02*
X10696372Y-5798193D01*
X10696372Y-5798193D02*
X10715420Y-5788669D01*
X10715420Y-5788669D02*
X10724944Y-5779146D01*
X10724944Y-5779146D02*
X10734468Y-5760098D01*
X10848753Y-5760098D02*
X10829706Y-5750574D01*
X10829706Y-5750574D02*
X10820182Y-5741050D01*
X10820182Y-5741050D02*
X10810658Y-5722003D01*
X10810658Y-5722003D02*
X10810658Y-5712479D01*
X10810658Y-5712479D02*
X10820182Y-5693431D01*
X10820182Y-5693431D02*
X10829706Y-5683908D01*
X10829706Y-5683908D02*
X10848753Y-5674384D01*
X10848753Y-5674384D02*
X10886849Y-5674384D01*
X10886849Y-5674384D02*
X10905896Y-5683908D01*
X10905896Y-5683908D02*
X10915420Y-5693431D01*
X10915420Y-5693431D02*
X10924944Y-5712479D01*
X10924944Y-5712479D02*
X10924944Y-5722003D01*
X10924944Y-5722003D02*
X10915420Y-5741050D01*
X10915420Y-5741050D02*
X10905896Y-5750574D01*
X10905896Y-5750574D02*
X10886849Y-5760098D01*
X10886849Y-5760098D02*
X10848753Y-5760098D01*
X10848753Y-5760098D02*
X10829706Y-5769622D01*
X10829706Y-5769622D02*
X10820182Y-5779146D01*
X10820182Y-5779146D02*
X10810658Y-5798193D01*
X10810658Y-5798193D02*
X10810658Y-5836288D01*
X10810658Y-5836288D02*
X10820182Y-5855336D01*
X10820182Y-5855336D02*
X10829706Y-5864860D01*
X10829706Y-5864860D02*
X10848753Y-5874384D01*
X10848753Y-5874384D02*
X10886849Y-5874384D01*
X10886849Y-5874384D02*
X10905896Y-5864860D01*
X10905896Y-5864860D02*
X10915420Y-5855336D01*
X10915420Y-5855336D02*
X10924944Y-5836288D01*
X10924944Y-5836288D02*
X10924944Y-5798193D01*
X10924944Y-5798193D02*
X10915420Y-5779146D01*
X10915420Y-5779146D02*
X10905896Y-5769622D01*
X10905896Y-5769622D02*
X10886849Y-5760098D01*
X11001134Y-5674384D02*
X11001134Y-5712479D01*
X11077325Y-5674384D02*
X11077325Y-5712479D01*
X11372563Y-5950574D02*
X11363039Y-5941050D01*
X11363039Y-5941050D02*
X11343991Y-5912479D01*
X11343991Y-5912479D02*
X11334468Y-5893431D01*
X11334468Y-5893431D02*
X11324944Y-5864860D01*
X11324944Y-5864860D02*
X11315420Y-5817241D01*
X11315420Y-5817241D02*
X11315420Y-5779146D01*
X11315420Y-5779146D02*
X11324944Y-5731527D01*
X11324944Y-5731527D02*
X11334468Y-5702955D01*
X11334468Y-5702955D02*
X11343991Y-5683908D01*
X11343991Y-5683908D02*
X11363039Y-5655336D01*
X11363039Y-5655336D02*
X11372563Y-5645812D01*
X11429706Y-5674384D02*
X11553515Y-5674384D01*
X11553515Y-5674384D02*
X11486848Y-5750574D01*
X11486848Y-5750574D02*
X11515420Y-5750574D01*
X11515420Y-5750574D02*
X11534468Y-5760098D01*
X11534468Y-5760098D02*
X11543991Y-5769622D01*
X11543991Y-5769622D02*
X11553515Y-5788669D01*
X11553515Y-5788669D02*
X11553515Y-5836288D01*
X11553515Y-5836288D02*
X11543991Y-5855336D01*
X11543991Y-5855336D02*
X11534468Y-5864860D01*
X11534468Y-5864860D02*
X11515420Y-5874384D01*
X11515420Y-5874384D02*
X11458277Y-5874384D01*
X11458277Y-5874384D02*
X11439229Y-5864860D01*
X11439229Y-5864860D02*
X11429706Y-5855336D01*
X11743991Y-5874384D02*
X11629706Y-5874384D01*
X11686848Y-5874384D02*
X11686848Y-5674384D01*
X11686848Y-5674384D02*
X11667801Y-5702955D01*
X11667801Y-5702955D02*
X11648753Y-5722003D01*
X11648753Y-5722003D02*
X11629706Y-5731527D01*
X11982087Y-5874384D02*
X11982087Y-5674384D01*
X12067801Y-5874384D02*
X12067801Y-5769622D01*
X12067801Y-5769622D02*
X12058277Y-5750574D01*
X12058277Y-5750574D02*
X12039230Y-5741050D01*
X12039230Y-5741050D02*
X12010658Y-5741050D01*
X12010658Y-5741050D02*
X11991610Y-5750574D01*
X11991610Y-5750574D02*
X11982087Y-5760098D01*
X12191610Y-5874384D02*
X12172563Y-5864860D01*
X12172563Y-5864860D02*
X12163039Y-5855336D01*
X12163039Y-5855336D02*
X12153515Y-5836288D01*
X12153515Y-5836288D02*
X12153515Y-5779146D01*
X12153515Y-5779146D02*
X12163039Y-5760098D01*
X12163039Y-5760098D02*
X12172563Y-5750574D01*
X12172563Y-5750574D02*
X12191610Y-5741050D01*
X12191610Y-5741050D02*
X12220182Y-5741050D01*
X12220182Y-5741050D02*
X12239230Y-5750574D01*
X12239230Y-5750574D02*
X12248753Y-5760098D01*
X12248753Y-5760098D02*
X12258277Y-5779146D01*
X12258277Y-5779146D02*
X12258277Y-5836288D01*
X12258277Y-5836288D02*
X12248753Y-5855336D01*
X12248753Y-5855336D02*
X12239230Y-5864860D01*
X12239230Y-5864860D02*
X12220182Y-5874384D01*
X12220182Y-5874384D02*
X12191610Y-5874384D01*
X12372563Y-5874384D02*
X12353515Y-5864860D01*
X12353515Y-5864860D02*
X12343991Y-5845812D01*
X12343991Y-5845812D02*
X12343991Y-5674384D01*
X12524944Y-5864860D02*
X12505896Y-5874384D01*
X12505896Y-5874384D02*
X12467801Y-5874384D01*
X12467801Y-5874384D02*
X12448753Y-5864860D01*
X12448753Y-5864860D02*
X12439230Y-5845812D01*
X12439230Y-5845812D02*
X12439230Y-5769622D01*
X12439230Y-5769622D02*
X12448753Y-5750574D01*
X12448753Y-5750574D02*
X12467801Y-5741050D01*
X12467801Y-5741050D02*
X12505896Y-5741050D01*
X12505896Y-5741050D02*
X12524944Y-5750574D01*
X12524944Y-5750574D02*
X12534468Y-5769622D01*
X12534468Y-5769622D02*
X12534468Y-5788669D01*
X12534468Y-5788669D02*
X12439230Y-5807717D01*
X12610658Y-5864860D02*
X12629706Y-5874384D01*
X12629706Y-5874384D02*
X12667801Y-5874384D01*
X12667801Y-5874384D02*
X12686849Y-5864860D01*
X12686849Y-5864860D02*
X12696372Y-5845812D01*
X12696372Y-5845812D02*
X12696372Y-5836288D01*
X12696372Y-5836288D02*
X12686849Y-5817241D01*
X12686849Y-5817241D02*
X12667801Y-5807717D01*
X12667801Y-5807717D02*
X12639230Y-5807717D01*
X12639230Y-5807717D02*
X12620182Y-5798193D01*
X12620182Y-5798193D02*
X12610658Y-5779146D01*
X12610658Y-5779146D02*
X12610658Y-5769622D01*
X12610658Y-5769622D02*
X12620182Y-5750574D01*
X12620182Y-5750574D02*
X12639230Y-5741050D01*
X12639230Y-5741050D02*
X12667801Y-5741050D01*
X12667801Y-5741050D02*
X12686849Y-5750574D01*
X12763039Y-5950574D02*
X12772563Y-5941050D01*
X12772563Y-5941050D02*
X12791611Y-5912479D01*
X12791611Y-5912479D02*
X12801134Y-5893431D01*
X12801134Y-5893431D02*
X12810658Y-5864860D01*
X12810658Y-5864860D02*
X12820182Y-5817241D01*
X12820182Y-5817241D02*
X12820182Y-5779146D01*
X12820182Y-5779146D02*
X12810658Y-5731527D01*
X12810658Y-5731527D02*
X12801134Y-5702955D01*
X12801134Y-5702955D02*
X12791611Y-5683908D01*
X12791611Y-5683908D02*
X12772563Y-5655336D01*
X12772563Y-5655336D02*
X12763039Y-5645812D01*
D12*
X7797500Y-6046900D02*
G75*
G02*
X7772500Y-6046900I-12500J0D01*
G01*
X7772500Y-6046900D02*
G75*
G02*
X7797500Y-6046900I12500J0D01*
G01*
D11*
X8096372Y-5938384D02*
X8115420Y-5938384D01*
X8115420Y-5938384D02*
X8134467Y-5947908D01*
X8134467Y-5947908D02*
X8143991Y-5957431D01*
X8143991Y-5957431D02*
X8153515Y-5976479D01*
X8153515Y-5976479D02*
X8163039Y-6014574D01*
X8163039Y-6014574D02*
X8163039Y-6062193D01*
X8163039Y-6062193D02*
X8153515Y-6100288D01*
X8153515Y-6100288D02*
X8143991Y-6119336D01*
X8143991Y-6119336D02*
X8134467Y-6128860D01*
X8134467Y-6128860D02*
X8115420Y-6138384D01*
X8115420Y-6138384D02*
X8096372Y-6138384D01*
X8096372Y-6138384D02*
X8077324Y-6128860D01*
X8077324Y-6128860D02*
X8067801Y-6119336D01*
X8067801Y-6119336D02*
X8058277Y-6100288D01*
X8058277Y-6100288D02*
X8048753Y-6062193D01*
X8048753Y-6062193D02*
X8048753Y-6014574D01*
X8048753Y-6014574D02*
X8058277Y-5976479D01*
X8058277Y-5976479D02*
X8067801Y-5957431D01*
X8067801Y-5957431D02*
X8077324Y-5947908D01*
X8077324Y-5947908D02*
X8096372Y-5938384D01*
X8248753Y-6119336D02*
X8258277Y-6128860D01*
X8258277Y-6128860D02*
X8248753Y-6138384D01*
X8248753Y-6138384D02*
X8239229Y-6128860D01*
X8239229Y-6128860D02*
X8248753Y-6119336D01*
X8248753Y-6119336D02*
X8248753Y-6138384D01*
X8334467Y-5957431D02*
X8343991Y-5947908D01*
X8343991Y-5947908D02*
X8363039Y-5938384D01*
X8363039Y-5938384D02*
X8410658Y-5938384D01*
X8410658Y-5938384D02*
X8429705Y-5947908D01*
X8429705Y-5947908D02*
X8439229Y-5957431D01*
X8439229Y-5957431D02*
X8448753Y-5976479D01*
X8448753Y-5976479D02*
X8448753Y-5995527D01*
X8448753Y-5995527D02*
X8439229Y-6024098D01*
X8439229Y-6024098D02*
X8324943Y-6138384D01*
X8324943Y-6138384D02*
X8448753Y-6138384D01*
X8629705Y-5938384D02*
X8534467Y-5938384D01*
X8534467Y-5938384D02*
X8524944Y-6033622D01*
X8524944Y-6033622D02*
X8534467Y-6024098D01*
X8534467Y-6024098D02*
X8553515Y-6014574D01*
X8553515Y-6014574D02*
X8601134Y-6014574D01*
X8601134Y-6014574D02*
X8620182Y-6024098D01*
X8620182Y-6024098D02*
X8629705Y-6033622D01*
X8629705Y-6033622D02*
X8639229Y-6052669D01*
X8639229Y-6052669D02*
X8639229Y-6100288D01*
X8639229Y-6100288D02*
X8629705Y-6119336D01*
X8629705Y-6119336D02*
X8620182Y-6128860D01*
X8620182Y-6128860D02*
X8601134Y-6138384D01*
X8601134Y-6138384D02*
X8553515Y-6138384D01*
X8553515Y-6138384D02*
X8534467Y-6128860D01*
X8534467Y-6128860D02*
X8524944Y-6119336D01*
X8763039Y-5938384D02*
X8782086Y-5938384D01*
X8782086Y-5938384D02*
X8801134Y-5947908D01*
X8801134Y-5947908D02*
X8810658Y-5957431D01*
X8810658Y-5957431D02*
X8820182Y-5976479D01*
X8820182Y-5976479D02*
X8829705Y-6014574D01*
X8829705Y-6014574D02*
X8829705Y-6062193D01*
X8829705Y-6062193D02*
X8820182Y-6100288D01*
X8820182Y-6100288D02*
X8810658Y-6119336D01*
X8810658Y-6119336D02*
X8801134Y-6128860D01*
X8801134Y-6128860D02*
X8782086Y-6138384D01*
X8782086Y-6138384D02*
X8763039Y-6138384D01*
X8763039Y-6138384D02*
X8743991Y-6128860D01*
X8743991Y-6128860D02*
X8734467Y-6119336D01*
X8734467Y-6119336D02*
X8724944Y-6100288D01*
X8724944Y-6100288D02*
X8715420Y-6062193D01*
X8715420Y-6062193D02*
X8715420Y-6014574D01*
X8715420Y-6014574D02*
X8724944Y-5976479D01*
X8724944Y-5976479D02*
X8734467Y-5957431D01*
X8734467Y-5957431D02*
X8743991Y-5947908D01*
X8743991Y-5947908D02*
X8763039Y-5938384D01*
X8915420Y-6138384D02*
X8915420Y-6005050D01*
X8915420Y-6024098D02*
X8924944Y-6014574D01*
X8924944Y-6014574D02*
X8943991Y-6005050D01*
X8943991Y-6005050D02*
X8972563Y-6005050D01*
X8972563Y-6005050D02*
X8991610Y-6014574D01*
X8991610Y-6014574D02*
X9001134Y-6033622D01*
X9001134Y-6033622D02*
X9001134Y-6138384D01*
X9001134Y-6033622D02*
X9010658Y-6014574D01*
X9010658Y-6014574D02*
X9029705Y-6005050D01*
X9029705Y-6005050D02*
X9058277Y-6005050D01*
X9058277Y-6005050D02*
X9077325Y-6014574D01*
X9077325Y-6014574D02*
X9086848Y-6033622D01*
X9086848Y-6033622D02*
X9086848Y-6138384D01*
X9182086Y-6138384D02*
X9182086Y-6005050D01*
X9182086Y-6024098D02*
X9191610Y-6014574D01*
X9191610Y-6014574D02*
X9210658Y-6005050D01*
X9210658Y-6005050D02*
X9239229Y-6005050D01*
X9239229Y-6005050D02*
X9258277Y-6014574D01*
X9258277Y-6014574D02*
X9267801Y-6033622D01*
X9267801Y-6033622D02*
X9267801Y-6138384D01*
X9267801Y-6033622D02*
X9277325Y-6014574D01*
X9277325Y-6014574D02*
X9296372Y-6005050D01*
X9296372Y-6005050D02*
X9324944Y-6005050D01*
X9324944Y-6005050D02*
X9343991Y-6014574D01*
X9343991Y-6014574D02*
X9353515Y-6033622D01*
X9353515Y-6033622D02*
X9353515Y-6138384D01*
X9743991Y-5928860D02*
X9572563Y-6186003D01*
X10001134Y-5938384D02*
X10020182Y-5938384D01*
X10020182Y-5938384D02*
X10039229Y-5947908D01*
X10039229Y-5947908D02*
X10048753Y-5957431D01*
X10048753Y-5957431D02*
X10058277Y-5976479D01*
X10058277Y-5976479D02*
X10067801Y-6014574D01*
X10067801Y-6014574D02*
X10067801Y-6062193D01*
X10067801Y-6062193D02*
X10058277Y-6100288D01*
X10058277Y-6100288D02*
X10048753Y-6119336D01*
X10048753Y-6119336D02*
X10039229Y-6128860D01*
X10039229Y-6128860D02*
X10020182Y-6138384D01*
X10020182Y-6138384D02*
X10001134Y-6138384D01*
X10001134Y-6138384D02*
X9982087Y-6128860D01*
X9982087Y-6128860D02*
X9972563Y-6119336D01*
X9972563Y-6119336D02*
X9963039Y-6100288D01*
X9963039Y-6100288D02*
X9953515Y-6062193D01*
X9953515Y-6062193D02*
X9953515Y-6014574D01*
X9953515Y-6014574D02*
X9963039Y-5976479D01*
X9963039Y-5976479D02*
X9972563Y-5957431D01*
X9972563Y-5957431D02*
X9982087Y-5947908D01*
X9982087Y-5947908D02*
X10001134Y-5938384D01*
X10153515Y-6119336D02*
X10163039Y-6128860D01*
X10163039Y-6128860D02*
X10153515Y-6138384D01*
X10153515Y-6138384D02*
X10143991Y-6128860D01*
X10143991Y-6128860D02*
X10153515Y-6119336D01*
X10153515Y-6119336D02*
X10153515Y-6138384D01*
X10286848Y-5938384D02*
X10305896Y-5938384D01*
X10305896Y-5938384D02*
X10324944Y-5947908D01*
X10324944Y-5947908D02*
X10334468Y-5957431D01*
X10334468Y-5957431D02*
X10343991Y-5976479D01*
X10343991Y-5976479D02*
X10353515Y-6014574D01*
X10353515Y-6014574D02*
X10353515Y-6062193D01*
X10353515Y-6062193D02*
X10343991Y-6100288D01*
X10343991Y-6100288D02*
X10334468Y-6119336D01*
X10334468Y-6119336D02*
X10324944Y-6128860D01*
X10324944Y-6128860D02*
X10305896Y-6138384D01*
X10305896Y-6138384D02*
X10286848Y-6138384D01*
X10286848Y-6138384D02*
X10267801Y-6128860D01*
X10267801Y-6128860D02*
X10258277Y-6119336D01*
X10258277Y-6119336D02*
X10248753Y-6100288D01*
X10248753Y-6100288D02*
X10239229Y-6062193D01*
X10239229Y-6062193D02*
X10239229Y-6014574D01*
X10239229Y-6014574D02*
X10248753Y-5976479D01*
X10248753Y-5976479D02*
X10258277Y-5957431D01*
X10258277Y-5957431D02*
X10267801Y-5947908D01*
X10267801Y-5947908D02*
X10286848Y-5938384D01*
X10477325Y-5938384D02*
X10496372Y-5938384D01*
X10496372Y-5938384D02*
X10515420Y-5947908D01*
X10515420Y-5947908D02*
X10524944Y-5957431D01*
X10524944Y-5957431D02*
X10534468Y-5976479D01*
X10534468Y-5976479D02*
X10543991Y-6014574D01*
X10543991Y-6014574D02*
X10543991Y-6062193D01*
X10543991Y-6062193D02*
X10534468Y-6100288D01*
X10534468Y-6100288D02*
X10524944Y-6119336D01*
X10524944Y-6119336D02*
X10515420Y-6128860D01*
X10515420Y-6128860D02*
X10496372Y-6138384D01*
X10496372Y-6138384D02*
X10477325Y-6138384D01*
X10477325Y-6138384D02*
X10458277Y-6128860D01*
X10458277Y-6128860D02*
X10448753Y-6119336D01*
X10448753Y-6119336D02*
X10439229Y-6100288D01*
X10439229Y-6100288D02*
X10429706Y-6062193D01*
X10429706Y-6062193D02*
X10429706Y-6014574D01*
X10429706Y-6014574D02*
X10439229Y-5976479D01*
X10439229Y-5976479D02*
X10448753Y-5957431D01*
X10448753Y-5957431D02*
X10458277Y-5947908D01*
X10458277Y-5947908D02*
X10477325Y-5938384D01*
X10639229Y-6138384D02*
X10677325Y-6138384D01*
X10677325Y-6138384D02*
X10696372Y-6128860D01*
X10696372Y-6128860D02*
X10705896Y-6119336D01*
X10705896Y-6119336D02*
X10724944Y-6090765D01*
X10724944Y-6090765D02*
X10734468Y-6052669D01*
X10734468Y-6052669D02*
X10734468Y-5976479D01*
X10734468Y-5976479D02*
X10724944Y-5957431D01*
X10724944Y-5957431D02*
X10715420Y-5947908D01*
X10715420Y-5947908D02*
X10696372Y-5938384D01*
X10696372Y-5938384D02*
X10658277Y-5938384D01*
X10658277Y-5938384D02*
X10639229Y-5947908D01*
X10639229Y-5947908D02*
X10629706Y-5957431D01*
X10629706Y-5957431D02*
X10620182Y-5976479D01*
X10620182Y-5976479D02*
X10620182Y-6024098D01*
X10620182Y-6024098D02*
X10629706Y-6043146D01*
X10629706Y-6043146D02*
X10639229Y-6052669D01*
X10639229Y-6052669D02*
X10658277Y-6062193D01*
X10658277Y-6062193D02*
X10696372Y-6062193D01*
X10696372Y-6062193D02*
X10715420Y-6052669D01*
X10715420Y-6052669D02*
X10724944Y-6043146D01*
X10724944Y-6043146D02*
X10734468Y-6024098D01*
X10848753Y-6024098D02*
X10829706Y-6014574D01*
X10829706Y-6014574D02*
X10820182Y-6005050D01*
X10820182Y-6005050D02*
X10810658Y-5986003D01*
X10810658Y-5986003D02*
X10810658Y-5976479D01*
X10810658Y-5976479D02*
X10820182Y-5957431D01*
X10820182Y-5957431D02*
X10829706Y-5947908D01*
X10829706Y-5947908D02*
X10848753Y-5938384D01*
X10848753Y-5938384D02*
X10886849Y-5938384D01*
X10886849Y-5938384D02*
X10905896Y-5947908D01*
X10905896Y-5947908D02*
X10915420Y-5957431D01*
X10915420Y-5957431D02*
X10924944Y-5976479D01*
X10924944Y-5976479D02*
X10924944Y-5986003D01*
X10924944Y-5986003D02*
X10915420Y-6005050D01*
X10915420Y-6005050D02*
X10905896Y-6014574D01*
X10905896Y-6014574D02*
X10886849Y-6024098D01*
X10886849Y-6024098D02*
X10848753Y-6024098D01*
X10848753Y-6024098D02*
X10829706Y-6033622D01*
X10829706Y-6033622D02*
X10820182Y-6043146D01*
X10820182Y-6043146D02*
X10810658Y-6062193D01*
X10810658Y-6062193D02*
X10810658Y-6100288D01*
X10810658Y-6100288D02*
X10820182Y-6119336D01*
X10820182Y-6119336D02*
X10829706Y-6128860D01*
X10829706Y-6128860D02*
X10848753Y-6138384D01*
X10848753Y-6138384D02*
X10886849Y-6138384D01*
X10886849Y-6138384D02*
X10905896Y-6128860D01*
X10905896Y-6128860D02*
X10915420Y-6119336D01*
X10915420Y-6119336D02*
X10924944Y-6100288D01*
X10924944Y-6100288D02*
X10924944Y-6062193D01*
X10924944Y-6062193D02*
X10915420Y-6043146D01*
X10915420Y-6043146D02*
X10905896Y-6033622D01*
X10905896Y-6033622D02*
X10886849Y-6024098D01*
X11001134Y-5938384D02*
X11001134Y-5976479D01*
X11077325Y-5938384D02*
X11077325Y-5976479D01*
X11372563Y-6214574D02*
X11363039Y-6205050D01*
X11363039Y-6205050D02*
X11343991Y-6176479D01*
X11343991Y-6176479D02*
X11334468Y-6157431D01*
X11334468Y-6157431D02*
X11324944Y-6128860D01*
X11324944Y-6128860D02*
X11315420Y-6081241D01*
X11315420Y-6081241D02*
X11315420Y-6043146D01*
X11315420Y-6043146D02*
X11324944Y-5995527D01*
X11324944Y-5995527D02*
X11334468Y-5966955D01*
X11334468Y-5966955D02*
X11343991Y-5947908D01*
X11343991Y-5947908D02*
X11363039Y-5919336D01*
X11363039Y-5919336D02*
X11372563Y-5909812D01*
X11534468Y-6005050D02*
X11534468Y-6138384D01*
X11486848Y-5928860D02*
X11439229Y-6071717D01*
X11439229Y-6071717D02*
X11563039Y-6071717D01*
X11791610Y-6138384D02*
X11791610Y-5938384D01*
X11877325Y-6138384D02*
X11877325Y-6033622D01*
X11877325Y-6033622D02*
X11867801Y-6014574D01*
X11867801Y-6014574D02*
X11848753Y-6005050D01*
X11848753Y-6005050D02*
X11820182Y-6005050D01*
X11820182Y-6005050D02*
X11801134Y-6014574D01*
X11801134Y-6014574D02*
X11791610Y-6024098D01*
X12001134Y-6138384D02*
X11982087Y-6128860D01*
X11982087Y-6128860D02*
X11972563Y-6119336D01*
X11972563Y-6119336D02*
X11963039Y-6100288D01*
X11963039Y-6100288D02*
X11963039Y-6043146D01*
X11963039Y-6043146D02*
X11972563Y-6024098D01*
X11972563Y-6024098D02*
X11982087Y-6014574D01*
X11982087Y-6014574D02*
X12001134Y-6005050D01*
X12001134Y-6005050D02*
X12029706Y-6005050D01*
X12029706Y-6005050D02*
X12048753Y-6014574D01*
X12048753Y-6014574D02*
X12058277Y-6024098D01*
X12058277Y-6024098D02*
X12067801Y-6043146D01*
X12067801Y-6043146D02*
X12067801Y-6100288D01*
X12067801Y-6100288D02*
X12058277Y-6119336D01*
X12058277Y-6119336D02*
X12048753Y-6128860D01*
X12048753Y-6128860D02*
X12029706Y-6138384D01*
X12029706Y-6138384D02*
X12001134Y-6138384D01*
X12182087Y-6138384D02*
X12163039Y-6128860D01*
X12163039Y-6128860D02*
X12153515Y-6109812D01*
X12153515Y-6109812D02*
X12153515Y-5938384D01*
X12334468Y-6128860D02*
X12315420Y-6138384D01*
X12315420Y-6138384D02*
X12277325Y-6138384D01*
X12277325Y-6138384D02*
X12258277Y-6128860D01*
X12258277Y-6128860D02*
X12248753Y-6109812D01*
X12248753Y-6109812D02*
X12248753Y-6033622D01*
X12248753Y-6033622D02*
X12258277Y-6014574D01*
X12258277Y-6014574D02*
X12277325Y-6005050D01*
X12277325Y-6005050D02*
X12315420Y-6005050D01*
X12315420Y-6005050D02*
X12334468Y-6014574D01*
X12334468Y-6014574D02*
X12343991Y-6033622D01*
X12343991Y-6033622D02*
X12343991Y-6052669D01*
X12343991Y-6052669D02*
X12248753Y-6071717D01*
X12420182Y-6128860D02*
X12439230Y-6138384D01*
X12439230Y-6138384D02*
X12477325Y-6138384D01*
X12477325Y-6138384D02*
X12496372Y-6128860D01*
X12496372Y-6128860D02*
X12505896Y-6109812D01*
X12505896Y-6109812D02*
X12505896Y-6100288D01*
X12505896Y-6100288D02*
X12496372Y-6081241D01*
X12496372Y-6081241D02*
X12477325Y-6071717D01*
X12477325Y-6071717D02*
X12448753Y-6071717D01*
X12448753Y-6071717D02*
X12429706Y-6062193D01*
X12429706Y-6062193D02*
X12420182Y-6043146D01*
X12420182Y-6043146D02*
X12420182Y-6033622D01*
X12420182Y-6033622D02*
X12429706Y-6014574D01*
X12429706Y-6014574D02*
X12448753Y-6005050D01*
X12448753Y-6005050D02*
X12477325Y-6005050D01*
X12477325Y-6005050D02*
X12496372Y-6014574D01*
X12572563Y-6214574D02*
X12582087Y-6205050D01*
X12582087Y-6205050D02*
X12601134Y-6176479D01*
X12601134Y-6176479D02*
X12610658Y-6157431D01*
X12610658Y-6157431D02*
X12620182Y-6128860D01*
X12620182Y-6128860D02*
X12629706Y-6081241D01*
X12629706Y-6081241D02*
X12629706Y-6043146D01*
X12629706Y-6043146D02*
X12620182Y-5995527D01*
X12620182Y-5995527D02*
X12610658Y-5966955D01*
X12610658Y-5966955D02*
X12601134Y-5947908D01*
X12601134Y-5947908D02*
X12582087Y-5919336D01*
X12582087Y-5919336D02*
X12572563Y-5909812D01*
D12*
X7782500Y-6295900D02*
X7782500Y-6325900D01*
X7767500Y-6310900D02*
X7797500Y-6310900D01*
D11*
X8096372Y-6202384D02*
X8115420Y-6202384D01*
X8115420Y-6202384D02*
X8134467Y-6211908D01*
X8134467Y-6211908D02*
X8143991Y-6221431D01*
X8143991Y-6221431D02*
X8153515Y-6240479D01*
X8153515Y-6240479D02*
X8163039Y-6278574D01*
X8163039Y-6278574D02*
X8163039Y-6326193D01*
X8163039Y-6326193D02*
X8153515Y-6364288D01*
X8153515Y-6364288D02*
X8143991Y-6383336D01*
X8143991Y-6383336D02*
X8134467Y-6392860D01*
X8134467Y-6392860D02*
X8115420Y-6402384D01*
X8115420Y-6402384D02*
X8096372Y-6402384D01*
X8096372Y-6402384D02*
X8077324Y-6392860D01*
X8077324Y-6392860D02*
X8067801Y-6383336D01*
X8067801Y-6383336D02*
X8058277Y-6364288D01*
X8058277Y-6364288D02*
X8048753Y-6326193D01*
X8048753Y-6326193D02*
X8048753Y-6278574D01*
X8048753Y-6278574D02*
X8058277Y-6240479D01*
X8058277Y-6240479D02*
X8067801Y-6221431D01*
X8067801Y-6221431D02*
X8077324Y-6211908D01*
X8077324Y-6211908D02*
X8096372Y-6202384D01*
X8248753Y-6383336D02*
X8258277Y-6392860D01*
X8258277Y-6392860D02*
X8248753Y-6402384D01*
X8248753Y-6402384D02*
X8239229Y-6392860D01*
X8239229Y-6392860D02*
X8248753Y-6383336D01*
X8248753Y-6383336D02*
X8248753Y-6402384D01*
X8324943Y-6202384D02*
X8448753Y-6202384D01*
X8448753Y-6202384D02*
X8382086Y-6278574D01*
X8382086Y-6278574D02*
X8410658Y-6278574D01*
X8410658Y-6278574D02*
X8429705Y-6288098D01*
X8429705Y-6288098D02*
X8439229Y-6297622D01*
X8439229Y-6297622D02*
X8448753Y-6316669D01*
X8448753Y-6316669D02*
X8448753Y-6364288D01*
X8448753Y-6364288D02*
X8439229Y-6383336D01*
X8439229Y-6383336D02*
X8429705Y-6392860D01*
X8429705Y-6392860D02*
X8410658Y-6402384D01*
X8410658Y-6402384D02*
X8353515Y-6402384D01*
X8353515Y-6402384D02*
X8334467Y-6392860D01*
X8334467Y-6392860D02*
X8324943Y-6383336D01*
X8572563Y-6202384D02*
X8591610Y-6202384D01*
X8591610Y-6202384D02*
X8610658Y-6211908D01*
X8610658Y-6211908D02*
X8620182Y-6221431D01*
X8620182Y-6221431D02*
X8629705Y-6240479D01*
X8629705Y-6240479D02*
X8639229Y-6278574D01*
X8639229Y-6278574D02*
X8639229Y-6326193D01*
X8639229Y-6326193D02*
X8629705Y-6364288D01*
X8629705Y-6364288D02*
X8620182Y-6383336D01*
X8620182Y-6383336D02*
X8610658Y-6392860D01*
X8610658Y-6392860D02*
X8591610Y-6402384D01*
X8591610Y-6402384D02*
X8572563Y-6402384D01*
X8572563Y-6402384D02*
X8553515Y-6392860D01*
X8553515Y-6392860D02*
X8543991Y-6383336D01*
X8543991Y-6383336D02*
X8534467Y-6364288D01*
X8534467Y-6364288D02*
X8524944Y-6326193D01*
X8524944Y-6326193D02*
X8524944Y-6278574D01*
X8524944Y-6278574D02*
X8534467Y-6240479D01*
X8534467Y-6240479D02*
X8543991Y-6221431D01*
X8543991Y-6221431D02*
X8553515Y-6211908D01*
X8553515Y-6211908D02*
X8572563Y-6202384D01*
X8763039Y-6202384D02*
X8782086Y-6202384D01*
X8782086Y-6202384D02*
X8801134Y-6211908D01*
X8801134Y-6211908D02*
X8810658Y-6221431D01*
X8810658Y-6221431D02*
X8820182Y-6240479D01*
X8820182Y-6240479D02*
X8829705Y-6278574D01*
X8829705Y-6278574D02*
X8829705Y-6326193D01*
X8829705Y-6326193D02*
X8820182Y-6364288D01*
X8820182Y-6364288D02*
X8810658Y-6383336D01*
X8810658Y-6383336D02*
X8801134Y-6392860D01*
X8801134Y-6392860D02*
X8782086Y-6402384D01*
X8782086Y-6402384D02*
X8763039Y-6402384D01*
X8763039Y-6402384D02*
X8743991Y-6392860D01*
X8743991Y-6392860D02*
X8734467Y-6383336D01*
X8734467Y-6383336D02*
X8724944Y-6364288D01*
X8724944Y-6364288D02*
X8715420Y-6326193D01*
X8715420Y-6326193D02*
X8715420Y-6278574D01*
X8715420Y-6278574D02*
X8724944Y-6240479D01*
X8724944Y-6240479D02*
X8734467Y-6221431D01*
X8734467Y-6221431D02*
X8743991Y-6211908D01*
X8743991Y-6211908D02*
X8763039Y-6202384D01*
X8915420Y-6402384D02*
X8915420Y-6269050D01*
X8915420Y-6288098D02*
X8924944Y-6278574D01*
X8924944Y-6278574D02*
X8943991Y-6269050D01*
X8943991Y-6269050D02*
X8972563Y-6269050D01*
X8972563Y-6269050D02*
X8991610Y-6278574D01*
X8991610Y-6278574D02*
X9001134Y-6297622D01*
X9001134Y-6297622D02*
X9001134Y-6402384D01*
X9001134Y-6297622D02*
X9010658Y-6278574D01*
X9010658Y-6278574D02*
X9029705Y-6269050D01*
X9029705Y-6269050D02*
X9058277Y-6269050D01*
X9058277Y-6269050D02*
X9077325Y-6278574D01*
X9077325Y-6278574D02*
X9086848Y-6297622D01*
X9086848Y-6297622D02*
X9086848Y-6402384D01*
X9182086Y-6402384D02*
X9182086Y-6269050D01*
X9182086Y-6288098D02*
X9191610Y-6278574D01*
X9191610Y-6278574D02*
X9210658Y-6269050D01*
X9210658Y-6269050D02*
X9239229Y-6269050D01*
X9239229Y-6269050D02*
X9258277Y-6278574D01*
X9258277Y-6278574D02*
X9267801Y-6297622D01*
X9267801Y-6297622D02*
X9267801Y-6402384D01*
X9267801Y-6297622D02*
X9277325Y-6278574D01*
X9277325Y-6278574D02*
X9296372Y-6269050D01*
X9296372Y-6269050D02*
X9324944Y-6269050D01*
X9324944Y-6269050D02*
X9343991Y-6278574D01*
X9343991Y-6278574D02*
X9353515Y-6297622D01*
X9353515Y-6297622D02*
X9353515Y-6402384D01*
X9743991Y-6192860D02*
X9572563Y-6450003D01*
X10001134Y-6202384D02*
X10020182Y-6202384D01*
X10020182Y-6202384D02*
X10039229Y-6211908D01*
X10039229Y-6211908D02*
X10048753Y-6221431D01*
X10048753Y-6221431D02*
X10058277Y-6240479D01*
X10058277Y-6240479D02*
X10067801Y-6278574D01*
X10067801Y-6278574D02*
X10067801Y-6326193D01*
X10067801Y-6326193D02*
X10058277Y-6364288D01*
X10058277Y-6364288D02*
X10048753Y-6383336D01*
X10048753Y-6383336D02*
X10039229Y-6392860D01*
X10039229Y-6392860D02*
X10020182Y-6402384D01*
X10020182Y-6402384D02*
X10001134Y-6402384D01*
X10001134Y-6402384D02*
X9982087Y-6392860D01*
X9982087Y-6392860D02*
X9972563Y-6383336D01*
X9972563Y-6383336D02*
X9963039Y-6364288D01*
X9963039Y-6364288D02*
X9953515Y-6326193D01*
X9953515Y-6326193D02*
X9953515Y-6278574D01*
X9953515Y-6278574D02*
X9963039Y-6240479D01*
X9963039Y-6240479D02*
X9972563Y-6221431D01*
X9972563Y-6221431D02*
X9982087Y-6211908D01*
X9982087Y-6211908D02*
X10001134Y-6202384D01*
X10153515Y-6383336D02*
X10163039Y-6392860D01*
X10163039Y-6392860D02*
X10153515Y-6402384D01*
X10153515Y-6402384D02*
X10143991Y-6392860D01*
X10143991Y-6392860D02*
X10153515Y-6383336D01*
X10153515Y-6383336D02*
X10153515Y-6402384D01*
X10286848Y-6202384D02*
X10305896Y-6202384D01*
X10305896Y-6202384D02*
X10324944Y-6211908D01*
X10324944Y-6211908D02*
X10334468Y-6221431D01*
X10334468Y-6221431D02*
X10343991Y-6240479D01*
X10343991Y-6240479D02*
X10353515Y-6278574D01*
X10353515Y-6278574D02*
X10353515Y-6326193D01*
X10353515Y-6326193D02*
X10343991Y-6364288D01*
X10343991Y-6364288D02*
X10334468Y-6383336D01*
X10334468Y-6383336D02*
X10324944Y-6392860D01*
X10324944Y-6392860D02*
X10305896Y-6402384D01*
X10305896Y-6402384D02*
X10286848Y-6402384D01*
X10286848Y-6402384D02*
X10267801Y-6392860D01*
X10267801Y-6392860D02*
X10258277Y-6383336D01*
X10258277Y-6383336D02*
X10248753Y-6364288D01*
X10248753Y-6364288D02*
X10239229Y-6326193D01*
X10239229Y-6326193D02*
X10239229Y-6278574D01*
X10239229Y-6278574D02*
X10248753Y-6240479D01*
X10248753Y-6240479D02*
X10258277Y-6221431D01*
X10258277Y-6221431D02*
X10267801Y-6211908D01*
X10267801Y-6211908D02*
X10286848Y-6202384D01*
X10543991Y-6402384D02*
X10429706Y-6402384D01*
X10486848Y-6402384D02*
X10486848Y-6202384D01*
X10486848Y-6202384D02*
X10467801Y-6230955D01*
X10467801Y-6230955D02*
X10448753Y-6250003D01*
X10448753Y-6250003D02*
X10429706Y-6259527D01*
X10734468Y-6402384D02*
X10620182Y-6402384D01*
X10677325Y-6402384D02*
X10677325Y-6202384D01*
X10677325Y-6202384D02*
X10658277Y-6230955D01*
X10658277Y-6230955D02*
X10639229Y-6250003D01*
X10639229Y-6250003D02*
X10620182Y-6259527D01*
X10848753Y-6288098D02*
X10829706Y-6278574D01*
X10829706Y-6278574D02*
X10820182Y-6269050D01*
X10820182Y-6269050D02*
X10810658Y-6250003D01*
X10810658Y-6250003D02*
X10810658Y-6240479D01*
X10810658Y-6240479D02*
X10820182Y-6221431D01*
X10820182Y-6221431D02*
X10829706Y-6211908D01*
X10829706Y-6211908D02*
X10848753Y-6202384D01*
X10848753Y-6202384D02*
X10886849Y-6202384D01*
X10886849Y-6202384D02*
X10905896Y-6211908D01*
X10905896Y-6211908D02*
X10915420Y-6221431D01*
X10915420Y-6221431D02*
X10924944Y-6240479D01*
X10924944Y-6240479D02*
X10924944Y-6250003D01*
X10924944Y-6250003D02*
X10915420Y-6269050D01*
X10915420Y-6269050D02*
X10905896Y-6278574D01*
X10905896Y-6278574D02*
X10886849Y-6288098D01*
X10886849Y-6288098D02*
X10848753Y-6288098D01*
X10848753Y-6288098D02*
X10829706Y-6297622D01*
X10829706Y-6297622D02*
X10820182Y-6307146D01*
X10820182Y-6307146D02*
X10810658Y-6326193D01*
X10810658Y-6326193D02*
X10810658Y-6364288D01*
X10810658Y-6364288D02*
X10820182Y-6383336D01*
X10820182Y-6383336D02*
X10829706Y-6392860D01*
X10829706Y-6392860D02*
X10848753Y-6402384D01*
X10848753Y-6402384D02*
X10886849Y-6402384D01*
X10886849Y-6402384D02*
X10905896Y-6392860D01*
X10905896Y-6392860D02*
X10915420Y-6383336D01*
X10915420Y-6383336D02*
X10924944Y-6364288D01*
X10924944Y-6364288D02*
X10924944Y-6326193D01*
X10924944Y-6326193D02*
X10915420Y-6307146D01*
X10915420Y-6307146D02*
X10905896Y-6297622D01*
X10905896Y-6297622D02*
X10886849Y-6288098D01*
X11001134Y-6202384D02*
X11001134Y-6240479D01*
X11077325Y-6202384D02*
X11077325Y-6240479D01*
X11372563Y-6478574D02*
X11363039Y-6469050D01*
X11363039Y-6469050D02*
X11343991Y-6440479D01*
X11343991Y-6440479D02*
X11334468Y-6421431D01*
X11334468Y-6421431D02*
X11324944Y-6392860D01*
X11324944Y-6392860D02*
X11315420Y-6345241D01*
X11315420Y-6345241D02*
X11315420Y-6307146D01*
X11315420Y-6307146D02*
X11324944Y-6259527D01*
X11324944Y-6259527D02*
X11334468Y-6230955D01*
X11334468Y-6230955D02*
X11343991Y-6211908D01*
X11343991Y-6211908D02*
X11363039Y-6183336D01*
X11363039Y-6183336D02*
X11372563Y-6173812D01*
X11429706Y-6202384D02*
X11553515Y-6202384D01*
X11553515Y-6202384D02*
X11486848Y-6278574D01*
X11486848Y-6278574D02*
X11515420Y-6278574D01*
X11515420Y-6278574D02*
X11534468Y-6288098D01*
X11534468Y-6288098D02*
X11543991Y-6297622D01*
X11543991Y-6297622D02*
X11553515Y-6316669D01*
X11553515Y-6316669D02*
X11553515Y-6364288D01*
X11553515Y-6364288D02*
X11543991Y-6383336D01*
X11543991Y-6383336D02*
X11534468Y-6392860D01*
X11534468Y-6392860D02*
X11515420Y-6402384D01*
X11515420Y-6402384D02*
X11458277Y-6402384D01*
X11458277Y-6402384D02*
X11439229Y-6392860D01*
X11439229Y-6392860D02*
X11429706Y-6383336D01*
X11724944Y-6202384D02*
X11686848Y-6202384D01*
X11686848Y-6202384D02*
X11667801Y-6211908D01*
X11667801Y-6211908D02*
X11658277Y-6221431D01*
X11658277Y-6221431D02*
X11639229Y-6250003D01*
X11639229Y-6250003D02*
X11629706Y-6288098D01*
X11629706Y-6288098D02*
X11629706Y-6364288D01*
X11629706Y-6364288D02*
X11639229Y-6383336D01*
X11639229Y-6383336D02*
X11648753Y-6392860D01*
X11648753Y-6392860D02*
X11667801Y-6402384D01*
X11667801Y-6402384D02*
X11705896Y-6402384D01*
X11705896Y-6402384D02*
X11724944Y-6392860D01*
X11724944Y-6392860D02*
X11734468Y-6383336D01*
X11734468Y-6383336D02*
X11743991Y-6364288D01*
X11743991Y-6364288D02*
X11743991Y-6316669D01*
X11743991Y-6316669D02*
X11734468Y-6297622D01*
X11734468Y-6297622D02*
X11724944Y-6288098D01*
X11724944Y-6288098D02*
X11705896Y-6278574D01*
X11705896Y-6278574D02*
X11667801Y-6278574D01*
X11667801Y-6278574D02*
X11648753Y-6288098D01*
X11648753Y-6288098D02*
X11639229Y-6297622D01*
X11639229Y-6297622D02*
X11629706Y-6316669D01*
X11982087Y-6402384D02*
X11982087Y-6202384D01*
X12067801Y-6402384D02*
X12067801Y-6297622D01*
X12067801Y-6297622D02*
X12058277Y-6278574D01*
X12058277Y-6278574D02*
X12039230Y-6269050D01*
X12039230Y-6269050D02*
X12010658Y-6269050D01*
X12010658Y-6269050D02*
X11991610Y-6278574D01*
X11991610Y-6278574D02*
X11982087Y-6288098D01*
X12191610Y-6402384D02*
X12172563Y-6392860D01*
X12172563Y-6392860D02*
X12163039Y-6383336D01*
X12163039Y-6383336D02*
X12153515Y-6364288D01*
X12153515Y-6364288D02*
X12153515Y-6307146D01*
X12153515Y-6307146D02*
X12163039Y-6288098D01*
X12163039Y-6288098D02*
X12172563Y-6278574D01*
X12172563Y-6278574D02*
X12191610Y-6269050D01*
X12191610Y-6269050D02*
X12220182Y-6269050D01*
X12220182Y-6269050D02*
X12239230Y-6278574D01*
X12239230Y-6278574D02*
X12248753Y-6288098D01*
X12248753Y-6288098D02*
X12258277Y-6307146D01*
X12258277Y-6307146D02*
X12258277Y-6364288D01*
X12258277Y-6364288D02*
X12248753Y-6383336D01*
X12248753Y-6383336D02*
X12239230Y-6392860D01*
X12239230Y-6392860D02*
X12220182Y-6402384D01*
X12220182Y-6402384D02*
X12191610Y-6402384D01*
X12372563Y-6402384D02*
X12353515Y-6392860D01*
X12353515Y-6392860D02*
X12343991Y-6373812D01*
X12343991Y-6373812D02*
X12343991Y-6202384D01*
X12524944Y-6392860D02*
X12505896Y-6402384D01*
X12505896Y-6402384D02*
X12467801Y-6402384D01*
X12467801Y-6402384D02*
X12448753Y-6392860D01*
X12448753Y-6392860D02*
X12439230Y-6373812D01*
X12439230Y-6373812D02*
X12439230Y-6297622D01*
X12439230Y-6297622D02*
X12448753Y-6278574D01*
X12448753Y-6278574D02*
X12467801Y-6269050D01*
X12467801Y-6269050D02*
X12505896Y-6269050D01*
X12505896Y-6269050D02*
X12524944Y-6278574D01*
X12524944Y-6278574D02*
X12534468Y-6297622D01*
X12534468Y-6297622D02*
X12534468Y-6316669D01*
X12534468Y-6316669D02*
X12439230Y-6335717D01*
X12610658Y-6392860D02*
X12629706Y-6402384D01*
X12629706Y-6402384D02*
X12667801Y-6402384D01*
X12667801Y-6402384D02*
X12686849Y-6392860D01*
X12686849Y-6392860D02*
X12696372Y-6373812D01*
X12696372Y-6373812D02*
X12696372Y-6364288D01*
X12696372Y-6364288D02*
X12686849Y-6345241D01*
X12686849Y-6345241D02*
X12667801Y-6335717D01*
X12667801Y-6335717D02*
X12639230Y-6335717D01*
X12639230Y-6335717D02*
X12620182Y-6326193D01*
X12620182Y-6326193D02*
X12610658Y-6307146D01*
X12610658Y-6307146D02*
X12610658Y-6297622D01*
X12610658Y-6297622D02*
X12620182Y-6278574D01*
X12620182Y-6278574D02*
X12639230Y-6269050D01*
X12639230Y-6269050D02*
X12667801Y-6269050D01*
X12667801Y-6269050D02*
X12686849Y-6278574D01*
X12763039Y-6478574D02*
X12772563Y-6469050D01*
X12772563Y-6469050D02*
X12791611Y-6440479D01*
X12791611Y-6440479D02*
X12801134Y-6421431D01*
X12801134Y-6421431D02*
X12810658Y-6392860D01*
X12810658Y-6392860D02*
X12820182Y-6345241D01*
X12820182Y-6345241D02*
X12820182Y-6307146D01*
X12820182Y-6307146D02*
X12810658Y-6259527D01*
X12810658Y-6259527D02*
X12801134Y-6230955D01*
X12801134Y-6230955D02*
X12791611Y-6211908D01*
X12791611Y-6211908D02*
X12772563Y-6183336D01*
X12772563Y-6183336D02*
X12763039Y-6173812D01*
D12*
X7790178Y-6592578D02*
X7790178Y-6557222D01*
X7754822Y-6557222D01*
X7754822Y-6592578D01*
X7790178Y-6592578D01*
D11*
X8096372Y-6466384D02*
X8115420Y-6466384D01*
X8115420Y-6466384D02*
X8134467Y-6475908D01*
X8134467Y-6475908D02*
X8143991Y-6485431D01*
X8143991Y-6485431D02*
X8153515Y-6504479D01*
X8153515Y-6504479D02*
X8163039Y-6542574D01*
X8163039Y-6542574D02*
X8163039Y-6590193D01*
X8163039Y-6590193D02*
X8153515Y-6628288D01*
X8153515Y-6628288D02*
X8143991Y-6647336D01*
X8143991Y-6647336D02*
X8134467Y-6656860D01*
X8134467Y-6656860D02*
X8115420Y-6666384D01*
X8115420Y-6666384D02*
X8096372Y-6666384D01*
X8096372Y-6666384D02*
X8077324Y-6656860D01*
X8077324Y-6656860D02*
X8067801Y-6647336D01*
X8067801Y-6647336D02*
X8058277Y-6628288D01*
X8058277Y-6628288D02*
X8048753Y-6590193D01*
X8048753Y-6590193D02*
X8048753Y-6542574D01*
X8048753Y-6542574D02*
X8058277Y-6504479D01*
X8058277Y-6504479D02*
X8067801Y-6485431D01*
X8067801Y-6485431D02*
X8077324Y-6475908D01*
X8077324Y-6475908D02*
X8096372Y-6466384D01*
X8248753Y-6647336D02*
X8258277Y-6656860D01*
X8258277Y-6656860D02*
X8248753Y-6666384D01*
X8248753Y-6666384D02*
X8239229Y-6656860D01*
X8239229Y-6656860D02*
X8248753Y-6647336D01*
X8248753Y-6647336D02*
X8248753Y-6666384D01*
X8439229Y-6466384D02*
X8343991Y-6466384D01*
X8343991Y-6466384D02*
X8334467Y-6561622D01*
X8334467Y-6561622D02*
X8343991Y-6552098D01*
X8343991Y-6552098D02*
X8363039Y-6542574D01*
X8363039Y-6542574D02*
X8410658Y-6542574D01*
X8410658Y-6542574D02*
X8429705Y-6552098D01*
X8429705Y-6552098D02*
X8439229Y-6561622D01*
X8439229Y-6561622D02*
X8448753Y-6580669D01*
X8448753Y-6580669D02*
X8448753Y-6628288D01*
X8448753Y-6628288D02*
X8439229Y-6647336D01*
X8439229Y-6647336D02*
X8429705Y-6656860D01*
X8429705Y-6656860D02*
X8410658Y-6666384D01*
X8410658Y-6666384D02*
X8363039Y-6666384D01*
X8363039Y-6666384D02*
X8343991Y-6656860D01*
X8343991Y-6656860D02*
X8334467Y-6647336D01*
X8572563Y-6466384D02*
X8591610Y-6466384D01*
X8591610Y-6466384D02*
X8610658Y-6475908D01*
X8610658Y-6475908D02*
X8620182Y-6485431D01*
X8620182Y-6485431D02*
X8629705Y-6504479D01*
X8629705Y-6504479D02*
X8639229Y-6542574D01*
X8639229Y-6542574D02*
X8639229Y-6590193D01*
X8639229Y-6590193D02*
X8629705Y-6628288D01*
X8629705Y-6628288D02*
X8620182Y-6647336D01*
X8620182Y-6647336D02*
X8610658Y-6656860D01*
X8610658Y-6656860D02*
X8591610Y-6666384D01*
X8591610Y-6666384D02*
X8572563Y-6666384D01*
X8572563Y-6666384D02*
X8553515Y-6656860D01*
X8553515Y-6656860D02*
X8543991Y-6647336D01*
X8543991Y-6647336D02*
X8534467Y-6628288D01*
X8534467Y-6628288D02*
X8524944Y-6590193D01*
X8524944Y-6590193D02*
X8524944Y-6542574D01*
X8524944Y-6542574D02*
X8534467Y-6504479D01*
X8534467Y-6504479D02*
X8543991Y-6485431D01*
X8543991Y-6485431D02*
X8553515Y-6475908D01*
X8553515Y-6475908D02*
X8572563Y-6466384D01*
X8763039Y-6466384D02*
X8782086Y-6466384D01*
X8782086Y-6466384D02*
X8801134Y-6475908D01*
X8801134Y-6475908D02*
X8810658Y-6485431D01*
X8810658Y-6485431D02*
X8820182Y-6504479D01*
X8820182Y-6504479D02*
X8829705Y-6542574D01*
X8829705Y-6542574D02*
X8829705Y-6590193D01*
X8829705Y-6590193D02*
X8820182Y-6628288D01*
X8820182Y-6628288D02*
X8810658Y-6647336D01*
X8810658Y-6647336D02*
X8801134Y-6656860D01*
X8801134Y-6656860D02*
X8782086Y-6666384D01*
X8782086Y-6666384D02*
X8763039Y-6666384D01*
X8763039Y-6666384D02*
X8743991Y-6656860D01*
X8743991Y-6656860D02*
X8734467Y-6647336D01*
X8734467Y-6647336D02*
X8724944Y-6628288D01*
X8724944Y-6628288D02*
X8715420Y-6590193D01*
X8715420Y-6590193D02*
X8715420Y-6542574D01*
X8715420Y-6542574D02*
X8724944Y-6504479D01*
X8724944Y-6504479D02*
X8734467Y-6485431D01*
X8734467Y-6485431D02*
X8743991Y-6475908D01*
X8743991Y-6475908D02*
X8763039Y-6466384D01*
X8915420Y-6666384D02*
X8915420Y-6533050D01*
X8915420Y-6552098D02*
X8924944Y-6542574D01*
X8924944Y-6542574D02*
X8943991Y-6533050D01*
X8943991Y-6533050D02*
X8972563Y-6533050D01*
X8972563Y-6533050D02*
X8991610Y-6542574D01*
X8991610Y-6542574D02*
X9001134Y-6561622D01*
X9001134Y-6561622D02*
X9001134Y-6666384D01*
X9001134Y-6561622D02*
X9010658Y-6542574D01*
X9010658Y-6542574D02*
X9029705Y-6533050D01*
X9029705Y-6533050D02*
X9058277Y-6533050D01*
X9058277Y-6533050D02*
X9077325Y-6542574D01*
X9077325Y-6542574D02*
X9086848Y-6561622D01*
X9086848Y-6561622D02*
X9086848Y-6666384D01*
X9182086Y-6666384D02*
X9182086Y-6533050D01*
X9182086Y-6552098D02*
X9191610Y-6542574D01*
X9191610Y-6542574D02*
X9210658Y-6533050D01*
X9210658Y-6533050D02*
X9239229Y-6533050D01*
X9239229Y-6533050D02*
X9258277Y-6542574D01*
X9258277Y-6542574D02*
X9267801Y-6561622D01*
X9267801Y-6561622D02*
X9267801Y-6666384D01*
X9267801Y-6561622D02*
X9277325Y-6542574D01*
X9277325Y-6542574D02*
X9296372Y-6533050D01*
X9296372Y-6533050D02*
X9324944Y-6533050D01*
X9324944Y-6533050D02*
X9343991Y-6542574D01*
X9343991Y-6542574D02*
X9353515Y-6561622D01*
X9353515Y-6561622D02*
X9353515Y-6666384D01*
X9743991Y-6456860D02*
X9572563Y-6714003D01*
X10001134Y-6466384D02*
X10020182Y-6466384D01*
X10020182Y-6466384D02*
X10039229Y-6475908D01*
X10039229Y-6475908D02*
X10048753Y-6485431D01*
X10048753Y-6485431D02*
X10058277Y-6504479D01*
X10058277Y-6504479D02*
X10067801Y-6542574D01*
X10067801Y-6542574D02*
X10067801Y-6590193D01*
X10067801Y-6590193D02*
X10058277Y-6628288D01*
X10058277Y-6628288D02*
X10048753Y-6647336D01*
X10048753Y-6647336D02*
X10039229Y-6656860D01*
X10039229Y-6656860D02*
X10020182Y-6666384D01*
X10020182Y-6666384D02*
X10001134Y-6666384D01*
X10001134Y-6666384D02*
X9982087Y-6656860D01*
X9982087Y-6656860D02*
X9972563Y-6647336D01*
X9972563Y-6647336D02*
X9963039Y-6628288D01*
X9963039Y-6628288D02*
X9953515Y-6590193D01*
X9953515Y-6590193D02*
X9953515Y-6542574D01*
X9953515Y-6542574D02*
X9963039Y-6504479D01*
X9963039Y-6504479D02*
X9972563Y-6485431D01*
X9972563Y-6485431D02*
X9982087Y-6475908D01*
X9982087Y-6475908D02*
X10001134Y-6466384D01*
X10153515Y-6647336D02*
X10163039Y-6656860D01*
X10163039Y-6656860D02*
X10153515Y-6666384D01*
X10153515Y-6666384D02*
X10143991Y-6656860D01*
X10143991Y-6656860D02*
X10153515Y-6647336D01*
X10153515Y-6647336D02*
X10153515Y-6666384D01*
X10286848Y-6466384D02*
X10305896Y-6466384D01*
X10305896Y-6466384D02*
X10324944Y-6475908D01*
X10324944Y-6475908D02*
X10334468Y-6485431D01*
X10334468Y-6485431D02*
X10343991Y-6504479D01*
X10343991Y-6504479D02*
X10353515Y-6542574D01*
X10353515Y-6542574D02*
X10353515Y-6590193D01*
X10353515Y-6590193D02*
X10343991Y-6628288D01*
X10343991Y-6628288D02*
X10334468Y-6647336D01*
X10334468Y-6647336D02*
X10324944Y-6656860D01*
X10324944Y-6656860D02*
X10305896Y-6666384D01*
X10305896Y-6666384D02*
X10286848Y-6666384D01*
X10286848Y-6666384D02*
X10267801Y-6656860D01*
X10267801Y-6656860D02*
X10258277Y-6647336D01*
X10258277Y-6647336D02*
X10248753Y-6628288D01*
X10248753Y-6628288D02*
X10239229Y-6590193D01*
X10239229Y-6590193D02*
X10239229Y-6542574D01*
X10239229Y-6542574D02*
X10248753Y-6504479D01*
X10248753Y-6504479D02*
X10258277Y-6485431D01*
X10258277Y-6485431D02*
X10267801Y-6475908D01*
X10267801Y-6475908D02*
X10286848Y-6466384D01*
X10543991Y-6666384D02*
X10429706Y-6666384D01*
X10486848Y-6666384D02*
X10486848Y-6466384D01*
X10486848Y-6466384D02*
X10467801Y-6494955D01*
X10467801Y-6494955D02*
X10448753Y-6514003D01*
X10448753Y-6514003D02*
X10429706Y-6523527D01*
X10639229Y-6666384D02*
X10677325Y-6666384D01*
X10677325Y-6666384D02*
X10696372Y-6656860D01*
X10696372Y-6656860D02*
X10705896Y-6647336D01*
X10705896Y-6647336D02*
X10724944Y-6618765D01*
X10724944Y-6618765D02*
X10734468Y-6580669D01*
X10734468Y-6580669D02*
X10734468Y-6504479D01*
X10734468Y-6504479D02*
X10724944Y-6485431D01*
X10724944Y-6485431D02*
X10715420Y-6475908D01*
X10715420Y-6475908D02*
X10696372Y-6466384D01*
X10696372Y-6466384D02*
X10658277Y-6466384D01*
X10658277Y-6466384D02*
X10639229Y-6475908D01*
X10639229Y-6475908D02*
X10629706Y-6485431D01*
X10629706Y-6485431D02*
X10620182Y-6504479D01*
X10620182Y-6504479D02*
X10620182Y-6552098D01*
X10620182Y-6552098D02*
X10629706Y-6571146D01*
X10629706Y-6571146D02*
X10639229Y-6580669D01*
X10639229Y-6580669D02*
X10658277Y-6590193D01*
X10658277Y-6590193D02*
X10696372Y-6590193D01*
X10696372Y-6590193D02*
X10715420Y-6580669D01*
X10715420Y-6580669D02*
X10724944Y-6571146D01*
X10724944Y-6571146D02*
X10734468Y-6552098D01*
X10801134Y-6466384D02*
X10934468Y-6466384D01*
X10934468Y-6466384D02*
X10848753Y-6666384D01*
X11001134Y-6466384D02*
X11001134Y-6504479D01*
X11077325Y-6466384D02*
X11077325Y-6504479D01*
X11372563Y-6742574D02*
X11363039Y-6733050D01*
X11363039Y-6733050D02*
X11343991Y-6704479D01*
X11343991Y-6704479D02*
X11334468Y-6685431D01*
X11334468Y-6685431D02*
X11324944Y-6656860D01*
X11324944Y-6656860D02*
X11315420Y-6609241D01*
X11315420Y-6609241D02*
X11315420Y-6571146D01*
X11315420Y-6571146D02*
X11324944Y-6523527D01*
X11324944Y-6523527D02*
X11334468Y-6494955D01*
X11334468Y-6494955D02*
X11343991Y-6475908D01*
X11343991Y-6475908D02*
X11363039Y-6447336D01*
X11363039Y-6447336D02*
X11372563Y-6437812D01*
X11534468Y-6466384D02*
X11496372Y-6466384D01*
X11496372Y-6466384D02*
X11477325Y-6475908D01*
X11477325Y-6475908D02*
X11467801Y-6485431D01*
X11467801Y-6485431D02*
X11448753Y-6514003D01*
X11448753Y-6514003D02*
X11439229Y-6552098D01*
X11439229Y-6552098D02*
X11439229Y-6628288D01*
X11439229Y-6628288D02*
X11448753Y-6647336D01*
X11448753Y-6647336D02*
X11458277Y-6656860D01*
X11458277Y-6656860D02*
X11477325Y-6666384D01*
X11477325Y-6666384D02*
X11515420Y-6666384D01*
X11515420Y-6666384D02*
X11534468Y-6656860D01*
X11534468Y-6656860D02*
X11543991Y-6647336D01*
X11543991Y-6647336D02*
X11553515Y-6628288D01*
X11553515Y-6628288D02*
X11553515Y-6580669D01*
X11553515Y-6580669D02*
X11543991Y-6561622D01*
X11543991Y-6561622D02*
X11534468Y-6552098D01*
X11534468Y-6552098D02*
X11515420Y-6542574D01*
X11515420Y-6542574D02*
X11477325Y-6542574D01*
X11477325Y-6542574D02*
X11458277Y-6552098D01*
X11458277Y-6552098D02*
X11448753Y-6561622D01*
X11448753Y-6561622D02*
X11439229Y-6580669D01*
X11791610Y-6666384D02*
X11791610Y-6466384D01*
X11877325Y-6666384D02*
X11877325Y-6561622D01*
X11877325Y-6561622D02*
X11867801Y-6542574D01*
X11867801Y-6542574D02*
X11848753Y-6533050D01*
X11848753Y-6533050D02*
X11820182Y-6533050D01*
X11820182Y-6533050D02*
X11801134Y-6542574D01*
X11801134Y-6542574D02*
X11791610Y-6552098D01*
X12001134Y-6666384D02*
X11982087Y-6656860D01*
X11982087Y-6656860D02*
X11972563Y-6647336D01*
X11972563Y-6647336D02*
X11963039Y-6628288D01*
X11963039Y-6628288D02*
X11963039Y-6571146D01*
X11963039Y-6571146D02*
X11972563Y-6552098D01*
X11972563Y-6552098D02*
X11982087Y-6542574D01*
X11982087Y-6542574D02*
X12001134Y-6533050D01*
X12001134Y-6533050D02*
X12029706Y-6533050D01*
X12029706Y-6533050D02*
X12048753Y-6542574D01*
X12048753Y-6542574D02*
X12058277Y-6552098D01*
X12058277Y-6552098D02*
X12067801Y-6571146D01*
X12067801Y-6571146D02*
X12067801Y-6628288D01*
X12067801Y-6628288D02*
X12058277Y-6647336D01*
X12058277Y-6647336D02*
X12048753Y-6656860D01*
X12048753Y-6656860D02*
X12029706Y-6666384D01*
X12029706Y-6666384D02*
X12001134Y-6666384D01*
X12182087Y-6666384D02*
X12163039Y-6656860D01*
X12163039Y-6656860D02*
X12153515Y-6637812D01*
X12153515Y-6637812D02*
X12153515Y-6466384D01*
X12334468Y-6656860D02*
X12315420Y-6666384D01*
X12315420Y-6666384D02*
X12277325Y-6666384D01*
X12277325Y-6666384D02*
X12258277Y-6656860D01*
X12258277Y-6656860D02*
X12248753Y-6637812D01*
X12248753Y-6637812D02*
X12248753Y-6561622D01*
X12248753Y-6561622D02*
X12258277Y-6542574D01*
X12258277Y-6542574D02*
X12277325Y-6533050D01*
X12277325Y-6533050D02*
X12315420Y-6533050D01*
X12315420Y-6533050D02*
X12334468Y-6542574D01*
X12334468Y-6542574D02*
X12343991Y-6561622D01*
X12343991Y-6561622D02*
X12343991Y-6580669D01*
X12343991Y-6580669D02*
X12248753Y-6599717D01*
X12420182Y-6656860D02*
X12439230Y-6666384D01*
X12439230Y-6666384D02*
X12477325Y-6666384D01*
X12477325Y-6666384D02*
X12496372Y-6656860D01*
X12496372Y-6656860D02*
X12505896Y-6637812D01*
X12505896Y-6637812D02*
X12505896Y-6628288D01*
X12505896Y-6628288D02*
X12496372Y-6609241D01*
X12496372Y-6609241D02*
X12477325Y-6599717D01*
X12477325Y-6599717D02*
X12448753Y-6599717D01*
X12448753Y-6599717D02*
X12429706Y-6590193D01*
X12429706Y-6590193D02*
X12420182Y-6571146D01*
X12420182Y-6571146D02*
X12420182Y-6561622D01*
X12420182Y-6561622D02*
X12429706Y-6542574D01*
X12429706Y-6542574D02*
X12448753Y-6533050D01*
X12448753Y-6533050D02*
X12477325Y-6533050D01*
X12477325Y-6533050D02*
X12496372Y-6542574D01*
X12572563Y-6742574D02*
X12582087Y-6733050D01*
X12582087Y-6733050D02*
X12601134Y-6704479D01*
X12601134Y-6704479D02*
X12610658Y-6685431D01*
X12610658Y-6685431D02*
X12620182Y-6656860D01*
X12620182Y-6656860D02*
X12629706Y-6609241D01*
X12629706Y-6609241D02*
X12629706Y-6571146D01*
X12629706Y-6571146D02*
X12620182Y-6523527D01*
X12620182Y-6523527D02*
X12610658Y-6494955D01*
X12610658Y-6494955D02*
X12601134Y-6475908D01*
X12601134Y-6475908D02*
X12582087Y-6447336D01*
X12582087Y-6447336D02*
X12572563Y-6437812D01*
D13*
X7742500Y-6893900D02*
X7797500Y-6838900D01*
X7742500Y-6783900D01*
X7687500Y-6838900D01*
X7742500Y-6893900D01*
D11*
X8163039Y-6930384D02*
X8048753Y-6930384D01*
X8105896Y-6930384D02*
X8105896Y-6730384D01*
X8105896Y-6730384D02*
X8086848Y-6758955D01*
X8086848Y-6758955D02*
X8067801Y-6778003D01*
X8067801Y-6778003D02*
X8048753Y-6787527D01*
X8248753Y-6911336D02*
X8258277Y-6920860D01*
X8258277Y-6920860D02*
X8248753Y-6930384D01*
X8248753Y-6930384D02*
X8239229Y-6920860D01*
X8239229Y-6920860D02*
X8248753Y-6911336D01*
X8248753Y-6911336D02*
X8248753Y-6930384D01*
X8448753Y-6930384D02*
X8334467Y-6930384D01*
X8391610Y-6930384D02*
X8391610Y-6730384D01*
X8391610Y-6730384D02*
X8372562Y-6758955D01*
X8372562Y-6758955D02*
X8353515Y-6778003D01*
X8353515Y-6778003D02*
X8334467Y-6787527D01*
X8572563Y-6730384D02*
X8591610Y-6730384D01*
X8591610Y-6730384D02*
X8610658Y-6739908D01*
X8610658Y-6739908D02*
X8620182Y-6749431D01*
X8620182Y-6749431D02*
X8629705Y-6768479D01*
X8629705Y-6768479D02*
X8639229Y-6806574D01*
X8639229Y-6806574D02*
X8639229Y-6854193D01*
X8639229Y-6854193D02*
X8629705Y-6892288D01*
X8629705Y-6892288D02*
X8620182Y-6911336D01*
X8620182Y-6911336D02*
X8610658Y-6920860D01*
X8610658Y-6920860D02*
X8591610Y-6930384D01*
X8591610Y-6930384D02*
X8572563Y-6930384D01*
X8572563Y-6930384D02*
X8553515Y-6920860D01*
X8553515Y-6920860D02*
X8543991Y-6911336D01*
X8543991Y-6911336D02*
X8534467Y-6892288D01*
X8534467Y-6892288D02*
X8524944Y-6854193D01*
X8524944Y-6854193D02*
X8524944Y-6806574D01*
X8524944Y-6806574D02*
X8534467Y-6768479D01*
X8534467Y-6768479D02*
X8543991Y-6749431D01*
X8543991Y-6749431D02*
X8553515Y-6739908D01*
X8553515Y-6739908D02*
X8572563Y-6730384D01*
X8763039Y-6730384D02*
X8782086Y-6730384D01*
X8782086Y-6730384D02*
X8801134Y-6739908D01*
X8801134Y-6739908D02*
X8810658Y-6749431D01*
X8810658Y-6749431D02*
X8820182Y-6768479D01*
X8820182Y-6768479D02*
X8829705Y-6806574D01*
X8829705Y-6806574D02*
X8829705Y-6854193D01*
X8829705Y-6854193D02*
X8820182Y-6892288D01*
X8820182Y-6892288D02*
X8810658Y-6911336D01*
X8810658Y-6911336D02*
X8801134Y-6920860D01*
X8801134Y-6920860D02*
X8782086Y-6930384D01*
X8782086Y-6930384D02*
X8763039Y-6930384D01*
X8763039Y-6930384D02*
X8743991Y-6920860D01*
X8743991Y-6920860D02*
X8734467Y-6911336D01*
X8734467Y-6911336D02*
X8724944Y-6892288D01*
X8724944Y-6892288D02*
X8715420Y-6854193D01*
X8715420Y-6854193D02*
X8715420Y-6806574D01*
X8715420Y-6806574D02*
X8724944Y-6768479D01*
X8724944Y-6768479D02*
X8734467Y-6749431D01*
X8734467Y-6749431D02*
X8743991Y-6739908D01*
X8743991Y-6739908D02*
X8763039Y-6730384D01*
X8915420Y-6930384D02*
X8915420Y-6797050D01*
X8915420Y-6816098D02*
X8924944Y-6806574D01*
X8924944Y-6806574D02*
X8943991Y-6797050D01*
X8943991Y-6797050D02*
X8972563Y-6797050D01*
X8972563Y-6797050D02*
X8991610Y-6806574D01*
X8991610Y-6806574D02*
X9001134Y-6825622D01*
X9001134Y-6825622D02*
X9001134Y-6930384D01*
X9001134Y-6825622D02*
X9010658Y-6806574D01*
X9010658Y-6806574D02*
X9029705Y-6797050D01*
X9029705Y-6797050D02*
X9058277Y-6797050D01*
X9058277Y-6797050D02*
X9077325Y-6806574D01*
X9077325Y-6806574D02*
X9086848Y-6825622D01*
X9086848Y-6825622D02*
X9086848Y-6930384D01*
X9182086Y-6930384D02*
X9182086Y-6797050D01*
X9182086Y-6816098D02*
X9191610Y-6806574D01*
X9191610Y-6806574D02*
X9210658Y-6797050D01*
X9210658Y-6797050D02*
X9239229Y-6797050D01*
X9239229Y-6797050D02*
X9258277Y-6806574D01*
X9258277Y-6806574D02*
X9267801Y-6825622D01*
X9267801Y-6825622D02*
X9267801Y-6930384D01*
X9267801Y-6825622D02*
X9277325Y-6806574D01*
X9277325Y-6806574D02*
X9296372Y-6797050D01*
X9296372Y-6797050D02*
X9324944Y-6797050D01*
X9324944Y-6797050D02*
X9343991Y-6806574D01*
X9343991Y-6806574D02*
X9353515Y-6825622D01*
X9353515Y-6825622D02*
X9353515Y-6930384D01*
X9743991Y-6720860D02*
X9572563Y-6978003D01*
X10001134Y-6730384D02*
X10020182Y-6730384D01*
X10020182Y-6730384D02*
X10039229Y-6739908D01*
X10039229Y-6739908D02*
X10048753Y-6749431D01*
X10048753Y-6749431D02*
X10058277Y-6768479D01*
X10058277Y-6768479D02*
X10067801Y-6806574D01*
X10067801Y-6806574D02*
X10067801Y-6854193D01*
X10067801Y-6854193D02*
X10058277Y-6892288D01*
X10058277Y-6892288D02*
X10048753Y-6911336D01*
X10048753Y-6911336D02*
X10039229Y-6920860D01*
X10039229Y-6920860D02*
X10020182Y-6930384D01*
X10020182Y-6930384D02*
X10001134Y-6930384D01*
X10001134Y-6930384D02*
X9982087Y-6920860D01*
X9982087Y-6920860D02*
X9972563Y-6911336D01*
X9972563Y-6911336D02*
X9963039Y-6892288D01*
X9963039Y-6892288D02*
X9953515Y-6854193D01*
X9953515Y-6854193D02*
X9953515Y-6806574D01*
X9953515Y-6806574D02*
X9963039Y-6768479D01*
X9963039Y-6768479D02*
X9972563Y-6749431D01*
X9972563Y-6749431D02*
X9982087Y-6739908D01*
X9982087Y-6739908D02*
X10001134Y-6730384D01*
X10153515Y-6911336D02*
X10163039Y-6920860D01*
X10163039Y-6920860D02*
X10153515Y-6930384D01*
X10153515Y-6930384D02*
X10143991Y-6920860D01*
X10143991Y-6920860D02*
X10153515Y-6911336D01*
X10153515Y-6911336D02*
X10153515Y-6930384D01*
X10286848Y-6730384D02*
X10305896Y-6730384D01*
X10305896Y-6730384D02*
X10324944Y-6739908D01*
X10324944Y-6739908D02*
X10334468Y-6749431D01*
X10334468Y-6749431D02*
X10343991Y-6768479D01*
X10343991Y-6768479D02*
X10353515Y-6806574D01*
X10353515Y-6806574D02*
X10353515Y-6854193D01*
X10353515Y-6854193D02*
X10343991Y-6892288D01*
X10343991Y-6892288D02*
X10334468Y-6911336D01*
X10334468Y-6911336D02*
X10324944Y-6920860D01*
X10324944Y-6920860D02*
X10305896Y-6930384D01*
X10305896Y-6930384D02*
X10286848Y-6930384D01*
X10286848Y-6930384D02*
X10267801Y-6920860D01*
X10267801Y-6920860D02*
X10258277Y-6911336D01*
X10258277Y-6911336D02*
X10248753Y-6892288D01*
X10248753Y-6892288D02*
X10239229Y-6854193D01*
X10239229Y-6854193D02*
X10239229Y-6806574D01*
X10239229Y-6806574D02*
X10248753Y-6768479D01*
X10248753Y-6768479D02*
X10258277Y-6749431D01*
X10258277Y-6749431D02*
X10267801Y-6739908D01*
X10267801Y-6739908D02*
X10286848Y-6730384D01*
X10524944Y-6797050D02*
X10524944Y-6930384D01*
X10477325Y-6720860D02*
X10429706Y-6863717D01*
X10429706Y-6863717D02*
X10553515Y-6863717D01*
X10610658Y-6730384D02*
X10734468Y-6730384D01*
X10734468Y-6730384D02*
X10667801Y-6806574D01*
X10667801Y-6806574D02*
X10696372Y-6806574D01*
X10696372Y-6806574D02*
X10715420Y-6816098D01*
X10715420Y-6816098D02*
X10724944Y-6825622D01*
X10724944Y-6825622D02*
X10734468Y-6844669D01*
X10734468Y-6844669D02*
X10734468Y-6892288D01*
X10734468Y-6892288D02*
X10724944Y-6911336D01*
X10724944Y-6911336D02*
X10715420Y-6920860D01*
X10715420Y-6920860D02*
X10696372Y-6930384D01*
X10696372Y-6930384D02*
X10639229Y-6930384D01*
X10639229Y-6930384D02*
X10620182Y-6920860D01*
X10620182Y-6920860D02*
X10610658Y-6911336D01*
X10801134Y-6730384D02*
X10924944Y-6730384D01*
X10924944Y-6730384D02*
X10858277Y-6806574D01*
X10858277Y-6806574D02*
X10886849Y-6806574D01*
X10886849Y-6806574D02*
X10905896Y-6816098D01*
X10905896Y-6816098D02*
X10915420Y-6825622D01*
X10915420Y-6825622D02*
X10924944Y-6844669D01*
X10924944Y-6844669D02*
X10924944Y-6892288D01*
X10924944Y-6892288D02*
X10915420Y-6911336D01*
X10915420Y-6911336D02*
X10905896Y-6920860D01*
X10905896Y-6920860D02*
X10886849Y-6930384D01*
X10886849Y-6930384D02*
X10829706Y-6930384D01*
X10829706Y-6930384D02*
X10810658Y-6920860D01*
X10810658Y-6920860D02*
X10801134Y-6911336D01*
X11001134Y-6730384D02*
X11001134Y-6768479D01*
X11077325Y-6730384D02*
X11077325Y-6768479D01*
X11372563Y-7006574D02*
X11363039Y-6997050D01*
X11363039Y-6997050D02*
X11343991Y-6968479D01*
X11343991Y-6968479D02*
X11334468Y-6949431D01*
X11334468Y-6949431D02*
X11324944Y-6920860D01*
X11324944Y-6920860D02*
X11315420Y-6873241D01*
X11315420Y-6873241D02*
X11315420Y-6835146D01*
X11315420Y-6835146D02*
X11324944Y-6787527D01*
X11324944Y-6787527D02*
X11334468Y-6758955D01*
X11334468Y-6758955D02*
X11343991Y-6739908D01*
X11343991Y-6739908D02*
X11363039Y-6711336D01*
X11363039Y-6711336D02*
X11372563Y-6701812D01*
X11553515Y-6930384D02*
X11439229Y-6930384D01*
X11496372Y-6930384D02*
X11496372Y-6730384D01*
X11496372Y-6730384D02*
X11477325Y-6758955D01*
X11477325Y-6758955D02*
X11458277Y-6778003D01*
X11458277Y-6778003D02*
X11439229Y-6787527D01*
X11791610Y-6930384D02*
X11791610Y-6730384D01*
X11877325Y-6930384D02*
X11877325Y-6825622D01*
X11877325Y-6825622D02*
X11867801Y-6806574D01*
X11867801Y-6806574D02*
X11848753Y-6797050D01*
X11848753Y-6797050D02*
X11820182Y-6797050D01*
X11820182Y-6797050D02*
X11801134Y-6806574D01*
X11801134Y-6806574D02*
X11791610Y-6816098D01*
X12001134Y-6930384D02*
X11982087Y-6920860D01*
X11982087Y-6920860D02*
X11972563Y-6911336D01*
X11972563Y-6911336D02*
X11963039Y-6892288D01*
X11963039Y-6892288D02*
X11963039Y-6835146D01*
X11963039Y-6835146D02*
X11972563Y-6816098D01*
X11972563Y-6816098D02*
X11982087Y-6806574D01*
X11982087Y-6806574D02*
X12001134Y-6797050D01*
X12001134Y-6797050D02*
X12029706Y-6797050D01*
X12029706Y-6797050D02*
X12048753Y-6806574D01*
X12048753Y-6806574D02*
X12058277Y-6816098D01*
X12058277Y-6816098D02*
X12067801Y-6835146D01*
X12067801Y-6835146D02*
X12067801Y-6892288D01*
X12067801Y-6892288D02*
X12058277Y-6911336D01*
X12058277Y-6911336D02*
X12048753Y-6920860D01*
X12048753Y-6920860D02*
X12029706Y-6930384D01*
X12029706Y-6930384D02*
X12001134Y-6930384D01*
X12182087Y-6930384D02*
X12163039Y-6920860D01*
X12163039Y-6920860D02*
X12153515Y-6901812D01*
X12153515Y-6901812D02*
X12153515Y-6730384D01*
X12334468Y-6920860D02*
X12315420Y-6930384D01*
X12315420Y-6930384D02*
X12277325Y-6930384D01*
X12277325Y-6930384D02*
X12258277Y-6920860D01*
X12258277Y-6920860D02*
X12248753Y-6901812D01*
X12248753Y-6901812D02*
X12248753Y-6825622D01*
X12248753Y-6825622D02*
X12258277Y-6806574D01*
X12258277Y-6806574D02*
X12277325Y-6797050D01*
X12277325Y-6797050D02*
X12315420Y-6797050D01*
X12315420Y-6797050D02*
X12334468Y-6806574D01*
X12334468Y-6806574D02*
X12343991Y-6825622D01*
X12343991Y-6825622D02*
X12343991Y-6844669D01*
X12343991Y-6844669D02*
X12248753Y-6863717D01*
X12410658Y-7006574D02*
X12420182Y-6997050D01*
X12420182Y-6997050D02*
X12439230Y-6968479D01*
X12439230Y-6968479D02*
X12448753Y-6949431D01*
X12448753Y-6949431D02*
X12458277Y-6920860D01*
X12458277Y-6920860D02*
X12467801Y-6873241D01*
X12467801Y-6873241D02*
X12467801Y-6835146D01*
X12467801Y-6835146D02*
X12458277Y-6787527D01*
X12458277Y-6787527D02*
X12448753Y-6758955D01*
X12448753Y-6758955D02*
X12439230Y-6739908D01*
X12439230Y-6739908D02*
X12420182Y-6711336D01*
X12420182Y-6711336D02*
X12410658Y-6701812D01*
D14*
X7677500Y-7042900D02*
X7797500Y-7162900D01*
X7797500Y-7042900D02*
X7677500Y-7162900D01*
X7797500Y-7102900D02*
G75*
G02*
X7677500Y-7102900I-60000J0D01*
G01*
X7677500Y-7102900D02*
G75*
G02*
X7797500Y-7102900I60000J0D01*
G01*
D11*
X8163039Y-7194384D02*
X8048753Y-7194384D01*
X8105896Y-7194384D02*
X8105896Y-6994384D01*
X8105896Y-6994384D02*
X8086848Y-7022955D01*
X8086848Y-7022955D02*
X8067801Y-7042003D01*
X8067801Y-7042003D02*
X8048753Y-7051527D01*
X8248753Y-7175336D02*
X8258277Y-7184860D01*
X8258277Y-7184860D02*
X8248753Y-7194384D01*
X8248753Y-7194384D02*
X8239229Y-7184860D01*
X8239229Y-7184860D02*
X8248753Y-7175336D01*
X8248753Y-7175336D02*
X8248753Y-7194384D01*
X8334467Y-7013431D02*
X8343991Y-7003908D01*
X8343991Y-7003908D02*
X8363039Y-6994384D01*
X8363039Y-6994384D02*
X8410658Y-6994384D01*
X8410658Y-6994384D02*
X8429705Y-7003908D01*
X8429705Y-7003908D02*
X8439229Y-7013431D01*
X8439229Y-7013431D02*
X8448753Y-7032479D01*
X8448753Y-7032479D02*
X8448753Y-7051527D01*
X8448753Y-7051527D02*
X8439229Y-7080098D01*
X8439229Y-7080098D02*
X8324943Y-7194384D01*
X8324943Y-7194384D02*
X8448753Y-7194384D01*
X8572563Y-6994384D02*
X8591610Y-6994384D01*
X8591610Y-6994384D02*
X8610658Y-7003908D01*
X8610658Y-7003908D02*
X8620182Y-7013431D01*
X8620182Y-7013431D02*
X8629705Y-7032479D01*
X8629705Y-7032479D02*
X8639229Y-7070574D01*
X8639229Y-7070574D02*
X8639229Y-7118193D01*
X8639229Y-7118193D02*
X8629705Y-7156288D01*
X8629705Y-7156288D02*
X8620182Y-7175336D01*
X8620182Y-7175336D02*
X8610658Y-7184860D01*
X8610658Y-7184860D02*
X8591610Y-7194384D01*
X8591610Y-7194384D02*
X8572563Y-7194384D01*
X8572563Y-7194384D02*
X8553515Y-7184860D01*
X8553515Y-7184860D02*
X8543991Y-7175336D01*
X8543991Y-7175336D02*
X8534467Y-7156288D01*
X8534467Y-7156288D02*
X8524944Y-7118193D01*
X8524944Y-7118193D02*
X8524944Y-7070574D01*
X8524944Y-7070574D02*
X8534467Y-7032479D01*
X8534467Y-7032479D02*
X8543991Y-7013431D01*
X8543991Y-7013431D02*
X8553515Y-7003908D01*
X8553515Y-7003908D02*
X8572563Y-6994384D01*
X8763039Y-6994384D02*
X8782086Y-6994384D01*
X8782086Y-6994384D02*
X8801134Y-7003908D01*
X8801134Y-7003908D02*
X8810658Y-7013431D01*
X8810658Y-7013431D02*
X8820182Y-7032479D01*
X8820182Y-7032479D02*
X8829705Y-7070574D01*
X8829705Y-7070574D02*
X8829705Y-7118193D01*
X8829705Y-7118193D02*
X8820182Y-7156288D01*
X8820182Y-7156288D02*
X8810658Y-7175336D01*
X8810658Y-7175336D02*
X8801134Y-7184860D01*
X8801134Y-7184860D02*
X8782086Y-7194384D01*
X8782086Y-7194384D02*
X8763039Y-7194384D01*
X8763039Y-7194384D02*
X8743991Y-7184860D01*
X8743991Y-7184860D02*
X8734467Y-7175336D01*
X8734467Y-7175336D02*
X8724944Y-7156288D01*
X8724944Y-7156288D02*
X8715420Y-7118193D01*
X8715420Y-7118193D02*
X8715420Y-7070574D01*
X8715420Y-7070574D02*
X8724944Y-7032479D01*
X8724944Y-7032479D02*
X8734467Y-7013431D01*
X8734467Y-7013431D02*
X8743991Y-7003908D01*
X8743991Y-7003908D02*
X8763039Y-6994384D01*
X8915420Y-7194384D02*
X8915420Y-7061050D01*
X8915420Y-7080098D02*
X8924944Y-7070574D01*
X8924944Y-7070574D02*
X8943991Y-7061050D01*
X8943991Y-7061050D02*
X8972563Y-7061050D01*
X8972563Y-7061050D02*
X8991610Y-7070574D01*
X8991610Y-7070574D02*
X9001134Y-7089622D01*
X9001134Y-7089622D02*
X9001134Y-7194384D01*
X9001134Y-7089622D02*
X9010658Y-7070574D01*
X9010658Y-7070574D02*
X9029705Y-7061050D01*
X9029705Y-7061050D02*
X9058277Y-7061050D01*
X9058277Y-7061050D02*
X9077325Y-7070574D01*
X9077325Y-7070574D02*
X9086848Y-7089622D01*
X9086848Y-7089622D02*
X9086848Y-7194384D01*
X9182086Y-7194384D02*
X9182086Y-7061050D01*
X9182086Y-7080098D02*
X9191610Y-7070574D01*
X9191610Y-7070574D02*
X9210658Y-7061050D01*
X9210658Y-7061050D02*
X9239229Y-7061050D01*
X9239229Y-7061050D02*
X9258277Y-7070574D01*
X9258277Y-7070574D02*
X9267801Y-7089622D01*
X9267801Y-7089622D02*
X9267801Y-7194384D01*
X9267801Y-7089622D02*
X9277325Y-7070574D01*
X9277325Y-7070574D02*
X9296372Y-7061050D01*
X9296372Y-7061050D02*
X9324944Y-7061050D01*
X9324944Y-7061050D02*
X9343991Y-7070574D01*
X9343991Y-7070574D02*
X9353515Y-7089622D01*
X9353515Y-7089622D02*
X9353515Y-7194384D01*
X9743991Y-6984860D02*
X9572563Y-7242003D01*
X10001134Y-6994384D02*
X10020182Y-6994384D01*
X10020182Y-6994384D02*
X10039229Y-7003908D01*
X10039229Y-7003908D02*
X10048753Y-7013431D01*
X10048753Y-7013431D02*
X10058277Y-7032479D01*
X10058277Y-7032479D02*
X10067801Y-7070574D01*
X10067801Y-7070574D02*
X10067801Y-7118193D01*
X10067801Y-7118193D02*
X10058277Y-7156288D01*
X10058277Y-7156288D02*
X10048753Y-7175336D01*
X10048753Y-7175336D02*
X10039229Y-7184860D01*
X10039229Y-7184860D02*
X10020182Y-7194384D01*
X10020182Y-7194384D02*
X10001134Y-7194384D01*
X10001134Y-7194384D02*
X9982087Y-7184860D01*
X9982087Y-7184860D02*
X9972563Y-7175336D01*
X9972563Y-7175336D02*
X9963039Y-7156288D01*
X9963039Y-7156288D02*
X9953515Y-7118193D01*
X9953515Y-7118193D02*
X9953515Y-7070574D01*
X9953515Y-7070574D02*
X9963039Y-7032479D01*
X9963039Y-7032479D02*
X9972563Y-7013431D01*
X9972563Y-7013431D02*
X9982087Y-7003908D01*
X9982087Y-7003908D02*
X10001134Y-6994384D01*
X10153515Y-7175336D02*
X10163039Y-7184860D01*
X10163039Y-7184860D02*
X10153515Y-7194384D01*
X10153515Y-7194384D02*
X10143991Y-7184860D01*
X10143991Y-7184860D02*
X10153515Y-7175336D01*
X10153515Y-7175336D02*
X10153515Y-7194384D01*
X10286848Y-6994384D02*
X10305896Y-6994384D01*
X10305896Y-6994384D02*
X10324944Y-7003908D01*
X10324944Y-7003908D02*
X10334468Y-7013431D01*
X10334468Y-7013431D02*
X10343991Y-7032479D01*
X10343991Y-7032479D02*
X10353515Y-7070574D01*
X10353515Y-7070574D02*
X10353515Y-7118193D01*
X10353515Y-7118193D02*
X10343991Y-7156288D01*
X10343991Y-7156288D02*
X10334468Y-7175336D01*
X10334468Y-7175336D02*
X10324944Y-7184860D01*
X10324944Y-7184860D02*
X10305896Y-7194384D01*
X10305896Y-7194384D02*
X10286848Y-7194384D01*
X10286848Y-7194384D02*
X10267801Y-7184860D01*
X10267801Y-7184860D02*
X10258277Y-7175336D01*
X10258277Y-7175336D02*
X10248753Y-7156288D01*
X10248753Y-7156288D02*
X10239229Y-7118193D01*
X10239229Y-7118193D02*
X10239229Y-7070574D01*
X10239229Y-7070574D02*
X10248753Y-7032479D01*
X10248753Y-7032479D02*
X10258277Y-7013431D01*
X10258277Y-7013431D02*
X10267801Y-7003908D01*
X10267801Y-7003908D02*
X10286848Y-6994384D01*
X10524944Y-7061050D02*
X10524944Y-7194384D01*
X10477325Y-6984860D02*
X10429706Y-7127717D01*
X10429706Y-7127717D02*
X10553515Y-7127717D01*
X10610658Y-6994384D02*
X10743991Y-6994384D01*
X10743991Y-6994384D02*
X10658277Y-7194384D01*
X10810658Y-7013431D02*
X10820182Y-7003908D01*
X10820182Y-7003908D02*
X10839229Y-6994384D01*
X10839229Y-6994384D02*
X10886849Y-6994384D01*
X10886849Y-6994384D02*
X10905896Y-7003908D01*
X10905896Y-7003908D02*
X10915420Y-7013431D01*
X10915420Y-7013431D02*
X10924944Y-7032479D01*
X10924944Y-7032479D02*
X10924944Y-7051527D01*
X10924944Y-7051527D02*
X10915420Y-7080098D01*
X10915420Y-7080098D02*
X10801134Y-7194384D01*
X10801134Y-7194384D02*
X10924944Y-7194384D01*
X11001134Y-6994384D02*
X11001134Y-7032479D01*
X11077325Y-6994384D02*
X11077325Y-7032479D01*
X11372563Y-7270574D02*
X11363039Y-7261050D01*
X11363039Y-7261050D02*
X11343991Y-7232479D01*
X11343991Y-7232479D02*
X11334468Y-7213431D01*
X11334468Y-7213431D02*
X11324944Y-7184860D01*
X11324944Y-7184860D02*
X11315420Y-7137241D01*
X11315420Y-7137241D02*
X11315420Y-7099146D01*
X11315420Y-7099146D02*
X11324944Y-7051527D01*
X11324944Y-7051527D02*
X11334468Y-7022955D01*
X11334468Y-7022955D02*
X11343991Y-7003908D01*
X11343991Y-7003908D02*
X11363039Y-6975336D01*
X11363039Y-6975336D02*
X11372563Y-6965812D01*
X11439229Y-7013431D02*
X11448753Y-7003908D01*
X11448753Y-7003908D02*
X11467801Y-6994384D01*
X11467801Y-6994384D02*
X11515420Y-6994384D01*
X11515420Y-6994384D02*
X11534468Y-7003908D01*
X11534468Y-7003908D02*
X11543991Y-7013431D01*
X11543991Y-7013431D02*
X11553515Y-7032479D01*
X11553515Y-7032479D02*
X11553515Y-7051527D01*
X11553515Y-7051527D02*
X11543991Y-7080098D01*
X11543991Y-7080098D02*
X11429706Y-7194384D01*
X11429706Y-7194384D02*
X11553515Y-7194384D01*
X11791610Y-7194384D02*
X11791610Y-6994384D01*
X11877325Y-7194384D02*
X11877325Y-7089622D01*
X11877325Y-7089622D02*
X11867801Y-7070574D01*
X11867801Y-7070574D02*
X11848753Y-7061050D01*
X11848753Y-7061050D02*
X11820182Y-7061050D01*
X11820182Y-7061050D02*
X11801134Y-7070574D01*
X11801134Y-7070574D02*
X11791610Y-7080098D01*
X12001134Y-7194384D02*
X11982087Y-7184860D01*
X11982087Y-7184860D02*
X11972563Y-7175336D01*
X11972563Y-7175336D02*
X11963039Y-7156288D01*
X11963039Y-7156288D02*
X11963039Y-7099146D01*
X11963039Y-7099146D02*
X11972563Y-7080098D01*
X11972563Y-7080098D02*
X11982087Y-7070574D01*
X11982087Y-7070574D02*
X12001134Y-7061050D01*
X12001134Y-7061050D02*
X12029706Y-7061050D01*
X12029706Y-7061050D02*
X12048753Y-7070574D01*
X12048753Y-7070574D02*
X12058277Y-7080098D01*
X12058277Y-7080098D02*
X12067801Y-7099146D01*
X12067801Y-7099146D02*
X12067801Y-7156288D01*
X12067801Y-7156288D02*
X12058277Y-7175336D01*
X12058277Y-7175336D02*
X12048753Y-7184860D01*
X12048753Y-7184860D02*
X12029706Y-7194384D01*
X12029706Y-7194384D02*
X12001134Y-7194384D01*
X12182087Y-7194384D02*
X12163039Y-7184860D01*
X12163039Y-7184860D02*
X12153515Y-7165812D01*
X12153515Y-7165812D02*
X12153515Y-6994384D01*
X12334468Y-7184860D02*
X12315420Y-7194384D01*
X12315420Y-7194384D02*
X12277325Y-7194384D01*
X12277325Y-7194384D02*
X12258277Y-7184860D01*
X12258277Y-7184860D02*
X12248753Y-7165812D01*
X12248753Y-7165812D02*
X12248753Y-7089622D01*
X12248753Y-7089622D02*
X12258277Y-7070574D01*
X12258277Y-7070574D02*
X12277325Y-7061050D01*
X12277325Y-7061050D02*
X12315420Y-7061050D01*
X12315420Y-7061050D02*
X12334468Y-7070574D01*
X12334468Y-7070574D02*
X12343991Y-7089622D01*
X12343991Y-7089622D02*
X12343991Y-7108669D01*
X12343991Y-7108669D02*
X12248753Y-7127717D01*
X12420182Y-7184860D02*
X12439230Y-7194384D01*
X12439230Y-7194384D02*
X12477325Y-7194384D01*
X12477325Y-7194384D02*
X12496372Y-7184860D01*
X12496372Y-7184860D02*
X12505896Y-7165812D01*
X12505896Y-7165812D02*
X12505896Y-7156288D01*
X12505896Y-7156288D02*
X12496372Y-7137241D01*
X12496372Y-7137241D02*
X12477325Y-7127717D01*
X12477325Y-7127717D02*
X12448753Y-7127717D01*
X12448753Y-7127717D02*
X12429706Y-7118193D01*
X12429706Y-7118193D02*
X12420182Y-7099146D01*
X12420182Y-7099146D02*
X12420182Y-7089622D01*
X12420182Y-7089622D02*
X12429706Y-7070574D01*
X12429706Y-7070574D02*
X12448753Y-7061050D01*
X12448753Y-7061050D02*
X12477325Y-7061050D01*
X12477325Y-7061050D02*
X12496372Y-7070574D01*
X12572563Y-7270574D02*
X12582087Y-7261050D01*
X12582087Y-7261050D02*
X12601134Y-7232479D01*
X12601134Y-7232479D02*
X12610658Y-7213431D01*
X12610658Y-7213431D02*
X12620182Y-7184860D01*
X12620182Y-7184860D02*
X12629706Y-7137241D01*
X12629706Y-7137241D02*
X12629706Y-7099146D01*
X12629706Y-7099146D02*
X12620182Y-7051527D01*
X12620182Y-7051527D02*
X12610658Y-7022955D01*
X12610658Y-7022955D02*
X12601134Y-7003908D01*
X12601134Y-7003908D02*
X12582087Y-6975336D01*
X12582087Y-6975336D02*
X12572563Y-6965812D01*
X7597500Y-7266900D02*
X7797500Y-7466900D01*
X7797500Y-7266900D02*
X7597500Y-7466900D01*
X7697500Y-7266900D02*
X7697500Y-7466900D01*
X7597500Y-7366900D02*
X7797500Y-7366900D01*
X8048753Y-7277431D02*
X8058277Y-7267908D01*
X8058277Y-7267908D02*
X8077324Y-7258384D01*
X8077324Y-7258384D02*
X8124943Y-7258384D01*
X8124943Y-7258384D02*
X8143991Y-7267908D01*
X8143991Y-7267908D02*
X8153515Y-7277431D01*
X8153515Y-7277431D02*
X8163039Y-7296479D01*
X8163039Y-7296479D02*
X8163039Y-7315527D01*
X8163039Y-7315527D02*
X8153515Y-7344098D01*
X8153515Y-7344098D02*
X8039229Y-7458384D01*
X8039229Y-7458384D02*
X8163039Y-7458384D01*
X8248753Y-7439336D02*
X8258277Y-7448860D01*
X8258277Y-7448860D02*
X8248753Y-7458384D01*
X8248753Y-7458384D02*
X8239229Y-7448860D01*
X8239229Y-7448860D02*
X8248753Y-7439336D01*
X8248753Y-7439336D02*
X8248753Y-7458384D01*
X8439229Y-7258384D02*
X8343991Y-7258384D01*
X8343991Y-7258384D02*
X8334467Y-7353622D01*
X8334467Y-7353622D02*
X8343991Y-7344098D01*
X8343991Y-7344098D02*
X8363039Y-7334574D01*
X8363039Y-7334574D02*
X8410658Y-7334574D01*
X8410658Y-7334574D02*
X8429705Y-7344098D01*
X8429705Y-7344098D02*
X8439229Y-7353622D01*
X8439229Y-7353622D02*
X8448753Y-7372669D01*
X8448753Y-7372669D02*
X8448753Y-7420288D01*
X8448753Y-7420288D02*
X8439229Y-7439336D01*
X8439229Y-7439336D02*
X8429705Y-7448860D01*
X8429705Y-7448860D02*
X8410658Y-7458384D01*
X8410658Y-7458384D02*
X8363039Y-7458384D01*
X8363039Y-7458384D02*
X8343991Y-7448860D01*
X8343991Y-7448860D02*
X8334467Y-7439336D01*
X8572563Y-7258384D02*
X8591610Y-7258384D01*
X8591610Y-7258384D02*
X8610658Y-7267908D01*
X8610658Y-7267908D02*
X8620182Y-7277431D01*
X8620182Y-7277431D02*
X8629705Y-7296479D01*
X8629705Y-7296479D02*
X8639229Y-7334574D01*
X8639229Y-7334574D02*
X8639229Y-7382193D01*
X8639229Y-7382193D02*
X8629705Y-7420288D01*
X8629705Y-7420288D02*
X8620182Y-7439336D01*
X8620182Y-7439336D02*
X8610658Y-7448860D01*
X8610658Y-7448860D02*
X8591610Y-7458384D01*
X8591610Y-7458384D02*
X8572563Y-7458384D01*
X8572563Y-7458384D02*
X8553515Y-7448860D01*
X8553515Y-7448860D02*
X8543991Y-7439336D01*
X8543991Y-7439336D02*
X8534467Y-7420288D01*
X8534467Y-7420288D02*
X8524944Y-7382193D01*
X8524944Y-7382193D02*
X8524944Y-7334574D01*
X8524944Y-7334574D02*
X8534467Y-7296479D01*
X8534467Y-7296479D02*
X8543991Y-7277431D01*
X8543991Y-7277431D02*
X8553515Y-7267908D01*
X8553515Y-7267908D02*
X8572563Y-7258384D01*
X8763039Y-7258384D02*
X8782086Y-7258384D01*
X8782086Y-7258384D02*
X8801134Y-7267908D01*
X8801134Y-7267908D02*
X8810658Y-7277431D01*
X8810658Y-7277431D02*
X8820182Y-7296479D01*
X8820182Y-7296479D02*
X8829705Y-7334574D01*
X8829705Y-7334574D02*
X8829705Y-7382193D01*
X8829705Y-7382193D02*
X8820182Y-7420288D01*
X8820182Y-7420288D02*
X8810658Y-7439336D01*
X8810658Y-7439336D02*
X8801134Y-7448860D01*
X8801134Y-7448860D02*
X8782086Y-7458384D01*
X8782086Y-7458384D02*
X8763039Y-7458384D01*
X8763039Y-7458384D02*
X8743991Y-7448860D01*
X8743991Y-7448860D02*
X8734467Y-7439336D01*
X8734467Y-7439336D02*
X8724944Y-7420288D01*
X8724944Y-7420288D02*
X8715420Y-7382193D01*
X8715420Y-7382193D02*
X8715420Y-7334574D01*
X8715420Y-7334574D02*
X8724944Y-7296479D01*
X8724944Y-7296479D02*
X8734467Y-7277431D01*
X8734467Y-7277431D02*
X8743991Y-7267908D01*
X8743991Y-7267908D02*
X8763039Y-7258384D01*
X8915420Y-7458384D02*
X8915420Y-7325050D01*
X8915420Y-7344098D02*
X8924944Y-7334574D01*
X8924944Y-7334574D02*
X8943991Y-7325050D01*
X8943991Y-7325050D02*
X8972563Y-7325050D01*
X8972563Y-7325050D02*
X8991610Y-7334574D01*
X8991610Y-7334574D02*
X9001134Y-7353622D01*
X9001134Y-7353622D02*
X9001134Y-7458384D01*
X9001134Y-7353622D02*
X9010658Y-7334574D01*
X9010658Y-7334574D02*
X9029705Y-7325050D01*
X9029705Y-7325050D02*
X9058277Y-7325050D01*
X9058277Y-7325050D02*
X9077325Y-7334574D01*
X9077325Y-7334574D02*
X9086848Y-7353622D01*
X9086848Y-7353622D02*
X9086848Y-7458384D01*
X9182086Y-7458384D02*
X9182086Y-7325050D01*
X9182086Y-7344098D02*
X9191610Y-7334574D01*
X9191610Y-7334574D02*
X9210658Y-7325050D01*
X9210658Y-7325050D02*
X9239229Y-7325050D01*
X9239229Y-7325050D02*
X9258277Y-7334574D01*
X9258277Y-7334574D02*
X9267801Y-7353622D01*
X9267801Y-7353622D02*
X9267801Y-7458384D01*
X9267801Y-7353622D02*
X9277325Y-7334574D01*
X9277325Y-7334574D02*
X9296372Y-7325050D01*
X9296372Y-7325050D02*
X9324944Y-7325050D01*
X9324944Y-7325050D02*
X9343991Y-7334574D01*
X9343991Y-7334574D02*
X9353515Y-7353622D01*
X9353515Y-7353622D02*
X9353515Y-7458384D01*
X9743991Y-7248860D02*
X9572563Y-7506003D01*
X10001134Y-7258384D02*
X10020182Y-7258384D01*
X10020182Y-7258384D02*
X10039229Y-7267908D01*
X10039229Y-7267908D02*
X10048753Y-7277431D01*
X10048753Y-7277431D02*
X10058277Y-7296479D01*
X10058277Y-7296479D02*
X10067801Y-7334574D01*
X10067801Y-7334574D02*
X10067801Y-7382193D01*
X10067801Y-7382193D02*
X10058277Y-7420288D01*
X10058277Y-7420288D02*
X10048753Y-7439336D01*
X10048753Y-7439336D02*
X10039229Y-7448860D01*
X10039229Y-7448860D02*
X10020182Y-7458384D01*
X10020182Y-7458384D02*
X10001134Y-7458384D01*
X10001134Y-7458384D02*
X9982087Y-7448860D01*
X9982087Y-7448860D02*
X9972563Y-7439336D01*
X9972563Y-7439336D02*
X9963039Y-7420288D01*
X9963039Y-7420288D02*
X9953515Y-7382193D01*
X9953515Y-7382193D02*
X9953515Y-7334574D01*
X9953515Y-7334574D02*
X9963039Y-7296479D01*
X9963039Y-7296479D02*
X9972563Y-7277431D01*
X9972563Y-7277431D02*
X9982087Y-7267908D01*
X9982087Y-7267908D02*
X10001134Y-7258384D01*
X10153515Y-7439336D02*
X10163039Y-7448860D01*
X10163039Y-7448860D02*
X10153515Y-7458384D01*
X10153515Y-7458384D02*
X10143991Y-7448860D01*
X10143991Y-7448860D02*
X10153515Y-7439336D01*
X10153515Y-7439336D02*
X10153515Y-7458384D01*
X10286848Y-7258384D02*
X10305896Y-7258384D01*
X10305896Y-7258384D02*
X10324944Y-7267908D01*
X10324944Y-7267908D02*
X10334468Y-7277431D01*
X10334468Y-7277431D02*
X10343991Y-7296479D01*
X10343991Y-7296479D02*
X10353515Y-7334574D01*
X10353515Y-7334574D02*
X10353515Y-7382193D01*
X10353515Y-7382193D02*
X10343991Y-7420288D01*
X10343991Y-7420288D02*
X10334468Y-7439336D01*
X10334468Y-7439336D02*
X10324944Y-7448860D01*
X10324944Y-7448860D02*
X10305896Y-7458384D01*
X10305896Y-7458384D02*
X10286848Y-7458384D01*
X10286848Y-7458384D02*
X10267801Y-7448860D01*
X10267801Y-7448860D02*
X10258277Y-7439336D01*
X10258277Y-7439336D02*
X10248753Y-7420288D01*
X10248753Y-7420288D02*
X10239229Y-7382193D01*
X10239229Y-7382193D02*
X10239229Y-7334574D01*
X10239229Y-7334574D02*
X10248753Y-7296479D01*
X10248753Y-7296479D02*
X10258277Y-7277431D01*
X10258277Y-7277431D02*
X10267801Y-7267908D01*
X10267801Y-7267908D02*
X10286848Y-7258384D01*
X10448753Y-7458384D02*
X10486848Y-7458384D01*
X10486848Y-7458384D02*
X10505896Y-7448860D01*
X10505896Y-7448860D02*
X10515420Y-7439336D01*
X10515420Y-7439336D02*
X10534468Y-7410765D01*
X10534468Y-7410765D02*
X10543991Y-7372669D01*
X10543991Y-7372669D02*
X10543991Y-7296479D01*
X10543991Y-7296479D02*
X10534468Y-7277431D01*
X10534468Y-7277431D02*
X10524944Y-7267908D01*
X10524944Y-7267908D02*
X10505896Y-7258384D01*
X10505896Y-7258384D02*
X10467801Y-7258384D01*
X10467801Y-7258384D02*
X10448753Y-7267908D01*
X10448753Y-7267908D02*
X10439229Y-7277431D01*
X10439229Y-7277431D02*
X10429706Y-7296479D01*
X10429706Y-7296479D02*
X10429706Y-7344098D01*
X10429706Y-7344098D02*
X10439229Y-7363146D01*
X10439229Y-7363146D02*
X10448753Y-7372669D01*
X10448753Y-7372669D02*
X10467801Y-7382193D01*
X10467801Y-7382193D02*
X10505896Y-7382193D01*
X10505896Y-7382193D02*
X10524944Y-7372669D01*
X10524944Y-7372669D02*
X10534468Y-7363146D01*
X10534468Y-7363146D02*
X10543991Y-7344098D01*
X10658277Y-7344098D02*
X10639229Y-7334574D01*
X10639229Y-7334574D02*
X10629706Y-7325050D01*
X10629706Y-7325050D02*
X10620182Y-7306003D01*
X10620182Y-7306003D02*
X10620182Y-7296479D01*
X10620182Y-7296479D02*
X10629706Y-7277431D01*
X10629706Y-7277431D02*
X10639229Y-7267908D01*
X10639229Y-7267908D02*
X10658277Y-7258384D01*
X10658277Y-7258384D02*
X10696372Y-7258384D01*
X10696372Y-7258384D02*
X10715420Y-7267908D01*
X10715420Y-7267908D02*
X10724944Y-7277431D01*
X10724944Y-7277431D02*
X10734468Y-7296479D01*
X10734468Y-7296479D02*
X10734468Y-7306003D01*
X10734468Y-7306003D02*
X10724944Y-7325050D01*
X10724944Y-7325050D02*
X10715420Y-7334574D01*
X10715420Y-7334574D02*
X10696372Y-7344098D01*
X10696372Y-7344098D02*
X10658277Y-7344098D01*
X10658277Y-7344098D02*
X10639229Y-7353622D01*
X10639229Y-7353622D02*
X10629706Y-7363146D01*
X10629706Y-7363146D02*
X10620182Y-7382193D01*
X10620182Y-7382193D02*
X10620182Y-7420288D01*
X10620182Y-7420288D02*
X10629706Y-7439336D01*
X10629706Y-7439336D02*
X10639229Y-7448860D01*
X10639229Y-7448860D02*
X10658277Y-7458384D01*
X10658277Y-7458384D02*
X10696372Y-7458384D01*
X10696372Y-7458384D02*
X10715420Y-7448860D01*
X10715420Y-7448860D02*
X10724944Y-7439336D01*
X10724944Y-7439336D02*
X10734468Y-7420288D01*
X10734468Y-7420288D02*
X10734468Y-7382193D01*
X10734468Y-7382193D02*
X10724944Y-7363146D01*
X10724944Y-7363146D02*
X10715420Y-7353622D01*
X10715420Y-7353622D02*
X10696372Y-7344098D01*
X10905896Y-7325050D02*
X10905896Y-7458384D01*
X10858277Y-7248860D02*
X10810658Y-7391717D01*
X10810658Y-7391717D02*
X10934468Y-7391717D01*
X11001134Y-7258384D02*
X11001134Y-7296479D01*
X11077325Y-7258384D02*
X11077325Y-7296479D01*
X11372563Y-7534574D02*
X11363039Y-7525050D01*
X11363039Y-7525050D02*
X11343991Y-7496479D01*
X11343991Y-7496479D02*
X11334468Y-7477431D01*
X11334468Y-7477431D02*
X11324944Y-7448860D01*
X11324944Y-7448860D02*
X11315420Y-7401241D01*
X11315420Y-7401241D02*
X11315420Y-7363146D01*
X11315420Y-7363146D02*
X11324944Y-7315527D01*
X11324944Y-7315527D02*
X11334468Y-7286955D01*
X11334468Y-7286955D02*
X11343991Y-7267908D01*
X11343991Y-7267908D02*
X11363039Y-7239336D01*
X11363039Y-7239336D02*
X11372563Y-7229812D01*
X11439229Y-7277431D02*
X11448753Y-7267908D01*
X11448753Y-7267908D02*
X11467801Y-7258384D01*
X11467801Y-7258384D02*
X11515420Y-7258384D01*
X11515420Y-7258384D02*
X11534468Y-7267908D01*
X11534468Y-7267908D02*
X11543991Y-7277431D01*
X11543991Y-7277431D02*
X11553515Y-7296479D01*
X11553515Y-7296479D02*
X11553515Y-7315527D01*
X11553515Y-7315527D02*
X11543991Y-7344098D01*
X11543991Y-7344098D02*
X11429706Y-7458384D01*
X11429706Y-7458384D02*
X11553515Y-7458384D01*
X11791610Y-7458384D02*
X11791610Y-7258384D01*
X11877325Y-7458384D02*
X11877325Y-7353622D01*
X11877325Y-7353622D02*
X11867801Y-7334574D01*
X11867801Y-7334574D02*
X11848753Y-7325050D01*
X11848753Y-7325050D02*
X11820182Y-7325050D01*
X11820182Y-7325050D02*
X11801134Y-7334574D01*
X11801134Y-7334574D02*
X11791610Y-7344098D01*
X12001134Y-7458384D02*
X11982087Y-7448860D01*
X11982087Y-7448860D02*
X11972563Y-7439336D01*
X11972563Y-7439336D02*
X11963039Y-7420288D01*
X11963039Y-7420288D02*
X11963039Y-7363146D01*
X11963039Y-7363146D02*
X11972563Y-7344098D01*
X11972563Y-7344098D02*
X11982087Y-7334574D01*
X11982087Y-7334574D02*
X12001134Y-7325050D01*
X12001134Y-7325050D02*
X12029706Y-7325050D01*
X12029706Y-7325050D02*
X12048753Y-7334574D01*
X12048753Y-7334574D02*
X12058277Y-7344098D01*
X12058277Y-7344098D02*
X12067801Y-7363146D01*
X12067801Y-7363146D02*
X12067801Y-7420288D01*
X12067801Y-7420288D02*
X12058277Y-7439336D01*
X12058277Y-7439336D02*
X12048753Y-7448860D01*
X12048753Y-7448860D02*
X12029706Y-7458384D01*
X12029706Y-7458384D02*
X12001134Y-7458384D01*
X12182087Y-7458384D02*
X12163039Y-7448860D01*
X12163039Y-7448860D02*
X12153515Y-7429812D01*
X12153515Y-7429812D02*
X12153515Y-7258384D01*
X12334468Y-7448860D02*
X12315420Y-7458384D01*
X12315420Y-7458384D02*
X12277325Y-7458384D01*
X12277325Y-7458384D02*
X12258277Y-7448860D01*
X12258277Y-7448860D02*
X12248753Y-7429812D01*
X12248753Y-7429812D02*
X12248753Y-7353622D01*
X12248753Y-7353622D02*
X12258277Y-7334574D01*
X12258277Y-7334574D02*
X12277325Y-7325050D01*
X12277325Y-7325050D02*
X12315420Y-7325050D01*
X12315420Y-7325050D02*
X12334468Y-7334574D01*
X12334468Y-7334574D02*
X12343991Y-7353622D01*
X12343991Y-7353622D02*
X12343991Y-7372669D01*
X12343991Y-7372669D02*
X12248753Y-7391717D01*
X12420182Y-7448860D02*
X12439230Y-7458384D01*
X12439230Y-7458384D02*
X12477325Y-7458384D01*
X12477325Y-7458384D02*
X12496372Y-7448860D01*
X12496372Y-7448860D02*
X12505896Y-7429812D01*
X12505896Y-7429812D02*
X12505896Y-7420288D01*
X12505896Y-7420288D02*
X12496372Y-7401241D01*
X12496372Y-7401241D02*
X12477325Y-7391717D01*
X12477325Y-7391717D02*
X12448753Y-7391717D01*
X12448753Y-7391717D02*
X12429706Y-7382193D01*
X12429706Y-7382193D02*
X12420182Y-7363146D01*
X12420182Y-7363146D02*
X12420182Y-7353622D01*
X12420182Y-7353622D02*
X12429706Y-7334574D01*
X12429706Y-7334574D02*
X12448753Y-7325050D01*
X12448753Y-7325050D02*
X12477325Y-7325050D01*
X12477325Y-7325050D02*
X12496372Y-7334574D01*
X12572563Y-7534574D02*
X12582087Y-7525050D01*
X12582087Y-7525050D02*
X12601134Y-7496479D01*
X12601134Y-7496479D02*
X12610658Y-7477431D01*
X12610658Y-7477431D02*
X12620182Y-7448860D01*
X12620182Y-7448860D02*
X12629706Y-7401241D01*
X12629706Y-7401241D02*
X12629706Y-7363146D01*
X12629706Y-7363146D02*
X12620182Y-7315527D01*
X12620182Y-7315527D02*
X12610658Y-7286955D01*
X12610658Y-7286955D02*
X12601134Y-7267908D01*
X12601134Y-7267908D02*
X12582087Y-7239336D01*
X12582087Y-7239336D02*
X12572563Y-7229812D01*
X7597500Y-7586900D02*
X7797500Y-7786900D01*
X7797500Y-7586900D02*
X7597500Y-7786900D01*
X7768211Y-7757611D02*
X7768211Y-7616189D01*
X7626789Y-7616189D01*
X7626789Y-7757611D01*
X7768211Y-7757611D01*
X8143991Y-7645050D02*
X8143991Y-7778384D01*
X8096372Y-7568860D02*
X8048753Y-7711717D01*
X8048753Y-7711717D02*
X8172562Y-7711717D01*
X8248753Y-7759336D02*
X8258277Y-7768860D01*
X8258277Y-7768860D02*
X8248753Y-7778384D01*
X8248753Y-7778384D02*
X8239229Y-7768860D01*
X8239229Y-7768860D02*
X8248753Y-7759336D01*
X8248753Y-7759336D02*
X8248753Y-7778384D01*
X8324943Y-7578384D02*
X8448753Y-7578384D01*
X8448753Y-7578384D02*
X8382086Y-7654574D01*
X8382086Y-7654574D02*
X8410658Y-7654574D01*
X8410658Y-7654574D02*
X8429705Y-7664098D01*
X8429705Y-7664098D02*
X8439229Y-7673622D01*
X8439229Y-7673622D02*
X8448753Y-7692669D01*
X8448753Y-7692669D02*
X8448753Y-7740288D01*
X8448753Y-7740288D02*
X8439229Y-7759336D01*
X8439229Y-7759336D02*
X8429705Y-7768860D01*
X8429705Y-7768860D02*
X8410658Y-7778384D01*
X8410658Y-7778384D02*
X8353515Y-7778384D01*
X8353515Y-7778384D02*
X8334467Y-7768860D01*
X8334467Y-7768860D02*
X8324943Y-7759336D01*
X8572563Y-7578384D02*
X8591610Y-7578384D01*
X8591610Y-7578384D02*
X8610658Y-7587908D01*
X8610658Y-7587908D02*
X8620182Y-7597431D01*
X8620182Y-7597431D02*
X8629705Y-7616479D01*
X8629705Y-7616479D02*
X8639229Y-7654574D01*
X8639229Y-7654574D02*
X8639229Y-7702193D01*
X8639229Y-7702193D02*
X8629705Y-7740288D01*
X8629705Y-7740288D02*
X8620182Y-7759336D01*
X8620182Y-7759336D02*
X8610658Y-7768860D01*
X8610658Y-7768860D02*
X8591610Y-7778384D01*
X8591610Y-7778384D02*
X8572563Y-7778384D01*
X8572563Y-7778384D02*
X8553515Y-7768860D01*
X8553515Y-7768860D02*
X8543991Y-7759336D01*
X8543991Y-7759336D02*
X8534467Y-7740288D01*
X8534467Y-7740288D02*
X8524944Y-7702193D01*
X8524944Y-7702193D02*
X8524944Y-7654574D01*
X8524944Y-7654574D02*
X8534467Y-7616479D01*
X8534467Y-7616479D02*
X8543991Y-7597431D01*
X8543991Y-7597431D02*
X8553515Y-7587908D01*
X8553515Y-7587908D02*
X8572563Y-7578384D01*
X8763039Y-7578384D02*
X8782086Y-7578384D01*
X8782086Y-7578384D02*
X8801134Y-7587908D01*
X8801134Y-7587908D02*
X8810658Y-7597431D01*
X8810658Y-7597431D02*
X8820182Y-7616479D01*
X8820182Y-7616479D02*
X8829705Y-7654574D01*
X8829705Y-7654574D02*
X8829705Y-7702193D01*
X8829705Y-7702193D02*
X8820182Y-7740288D01*
X8820182Y-7740288D02*
X8810658Y-7759336D01*
X8810658Y-7759336D02*
X8801134Y-7768860D01*
X8801134Y-7768860D02*
X8782086Y-7778384D01*
X8782086Y-7778384D02*
X8763039Y-7778384D01*
X8763039Y-7778384D02*
X8743991Y-7768860D01*
X8743991Y-7768860D02*
X8734467Y-7759336D01*
X8734467Y-7759336D02*
X8724944Y-7740288D01*
X8724944Y-7740288D02*
X8715420Y-7702193D01*
X8715420Y-7702193D02*
X8715420Y-7654574D01*
X8715420Y-7654574D02*
X8724944Y-7616479D01*
X8724944Y-7616479D02*
X8734467Y-7597431D01*
X8734467Y-7597431D02*
X8743991Y-7587908D01*
X8743991Y-7587908D02*
X8763039Y-7578384D01*
X8915420Y-7778384D02*
X8915420Y-7645050D01*
X8915420Y-7664098D02*
X8924944Y-7654574D01*
X8924944Y-7654574D02*
X8943991Y-7645050D01*
X8943991Y-7645050D02*
X8972563Y-7645050D01*
X8972563Y-7645050D02*
X8991610Y-7654574D01*
X8991610Y-7654574D02*
X9001134Y-7673622D01*
X9001134Y-7673622D02*
X9001134Y-7778384D01*
X9001134Y-7673622D02*
X9010658Y-7654574D01*
X9010658Y-7654574D02*
X9029705Y-7645050D01*
X9029705Y-7645050D02*
X9058277Y-7645050D01*
X9058277Y-7645050D02*
X9077325Y-7654574D01*
X9077325Y-7654574D02*
X9086848Y-7673622D01*
X9086848Y-7673622D02*
X9086848Y-7778384D01*
X9182086Y-7778384D02*
X9182086Y-7645050D01*
X9182086Y-7664098D02*
X9191610Y-7654574D01*
X9191610Y-7654574D02*
X9210658Y-7645050D01*
X9210658Y-7645050D02*
X9239229Y-7645050D01*
X9239229Y-7645050D02*
X9258277Y-7654574D01*
X9258277Y-7654574D02*
X9267801Y-7673622D01*
X9267801Y-7673622D02*
X9267801Y-7778384D01*
X9267801Y-7673622D02*
X9277325Y-7654574D01*
X9277325Y-7654574D02*
X9296372Y-7645050D01*
X9296372Y-7645050D02*
X9324944Y-7645050D01*
X9324944Y-7645050D02*
X9343991Y-7654574D01*
X9343991Y-7654574D02*
X9353515Y-7673622D01*
X9353515Y-7673622D02*
X9353515Y-7778384D01*
X9743991Y-7568860D02*
X9572563Y-7826003D01*
X10001134Y-7578384D02*
X10020182Y-7578384D01*
X10020182Y-7578384D02*
X10039229Y-7587908D01*
X10039229Y-7587908D02*
X10048753Y-7597431D01*
X10048753Y-7597431D02*
X10058277Y-7616479D01*
X10058277Y-7616479D02*
X10067801Y-7654574D01*
X10067801Y-7654574D02*
X10067801Y-7702193D01*
X10067801Y-7702193D02*
X10058277Y-7740288D01*
X10058277Y-7740288D02*
X10048753Y-7759336D01*
X10048753Y-7759336D02*
X10039229Y-7768860D01*
X10039229Y-7768860D02*
X10020182Y-7778384D01*
X10020182Y-7778384D02*
X10001134Y-7778384D01*
X10001134Y-7778384D02*
X9982087Y-7768860D01*
X9982087Y-7768860D02*
X9972563Y-7759336D01*
X9972563Y-7759336D02*
X9963039Y-7740288D01*
X9963039Y-7740288D02*
X9953515Y-7702193D01*
X9953515Y-7702193D02*
X9953515Y-7654574D01*
X9953515Y-7654574D02*
X9963039Y-7616479D01*
X9963039Y-7616479D02*
X9972563Y-7597431D01*
X9972563Y-7597431D02*
X9982087Y-7587908D01*
X9982087Y-7587908D02*
X10001134Y-7578384D01*
X10153515Y-7759336D02*
X10163039Y-7768860D01*
X10163039Y-7768860D02*
X10153515Y-7778384D01*
X10153515Y-7778384D02*
X10143991Y-7768860D01*
X10143991Y-7768860D02*
X10153515Y-7759336D01*
X10153515Y-7759336D02*
X10153515Y-7778384D01*
X10353515Y-7778384D02*
X10239229Y-7778384D01*
X10296372Y-7778384D02*
X10296372Y-7578384D01*
X10296372Y-7578384D02*
X10277325Y-7606955D01*
X10277325Y-7606955D02*
X10258277Y-7626003D01*
X10258277Y-7626003D02*
X10239229Y-7635527D01*
X10524944Y-7578384D02*
X10486848Y-7578384D01*
X10486848Y-7578384D02*
X10467801Y-7587908D01*
X10467801Y-7587908D02*
X10458277Y-7597431D01*
X10458277Y-7597431D02*
X10439229Y-7626003D01*
X10439229Y-7626003D02*
X10429706Y-7664098D01*
X10429706Y-7664098D02*
X10429706Y-7740288D01*
X10429706Y-7740288D02*
X10439229Y-7759336D01*
X10439229Y-7759336D02*
X10448753Y-7768860D01*
X10448753Y-7768860D02*
X10467801Y-7778384D01*
X10467801Y-7778384D02*
X10505896Y-7778384D01*
X10505896Y-7778384D02*
X10524944Y-7768860D01*
X10524944Y-7768860D02*
X10534468Y-7759336D01*
X10534468Y-7759336D02*
X10543991Y-7740288D01*
X10543991Y-7740288D02*
X10543991Y-7692669D01*
X10543991Y-7692669D02*
X10534468Y-7673622D01*
X10534468Y-7673622D02*
X10524944Y-7664098D01*
X10524944Y-7664098D02*
X10505896Y-7654574D01*
X10505896Y-7654574D02*
X10467801Y-7654574D01*
X10467801Y-7654574D02*
X10448753Y-7664098D01*
X10448753Y-7664098D02*
X10439229Y-7673622D01*
X10439229Y-7673622D02*
X10429706Y-7692669D01*
X10639229Y-7778384D02*
X10677325Y-7778384D01*
X10677325Y-7778384D02*
X10696372Y-7768860D01*
X10696372Y-7768860D02*
X10705896Y-7759336D01*
X10705896Y-7759336D02*
X10724944Y-7730765D01*
X10724944Y-7730765D02*
X10734468Y-7692669D01*
X10734468Y-7692669D02*
X10734468Y-7616479D01*
X10734468Y-7616479D02*
X10724944Y-7597431D01*
X10724944Y-7597431D02*
X10715420Y-7587908D01*
X10715420Y-7587908D02*
X10696372Y-7578384D01*
X10696372Y-7578384D02*
X10658277Y-7578384D01*
X10658277Y-7578384D02*
X10639229Y-7587908D01*
X10639229Y-7587908D02*
X10629706Y-7597431D01*
X10629706Y-7597431D02*
X10620182Y-7616479D01*
X10620182Y-7616479D02*
X10620182Y-7664098D01*
X10620182Y-7664098D02*
X10629706Y-7683146D01*
X10629706Y-7683146D02*
X10639229Y-7692669D01*
X10639229Y-7692669D02*
X10658277Y-7702193D01*
X10658277Y-7702193D02*
X10696372Y-7702193D01*
X10696372Y-7702193D02*
X10715420Y-7692669D01*
X10715420Y-7692669D02*
X10724944Y-7683146D01*
X10724944Y-7683146D02*
X10734468Y-7664098D01*
X10801134Y-7578384D02*
X10924944Y-7578384D01*
X10924944Y-7578384D02*
X10858277Y-7654574D01*
X10858277Y-7654574D02*
X10886849Y-7654574D01*
X10886849Y-7654574D02*
X10905896Y-7664098D01*
X10905896Y-7664098D02*
X10915420Y-7673622D01*
X10915420Y-7673622D02*
X10924944Y-7692669D01*
X10924944Y-7692669D02*
X10924944Y-7740288D01*
X10924944Y-7740288D02*
X10915420Y-7759336D01*
X10915420Y-7759336D02*
X10905896Y-7768860D01*
X10905896Y-7768860D02*
X10886849Y-7778384D01*
X10886849Y-7778384D02*
X10829706Y-7778384D01*
X10829706Y-7778384D02*
X10810658Y-7768860D01*
X10810658Y-7768860D02*
X10801134Y-7759336D01*
X11001134Y-7578384D02*
X11001134Y-7616479D01*
X11077325Y-7578384D02*
X11077325Y-7616479D01*
X11372563Y-7854574D02*
X11363039Y-7845050D01*
X11363039Y-7845050D02*
X11343991Y-7816479D01*
X11343991Y-7816479D02*
X11334468Y-7797431D01*
X11334468Y-7797431D02*
X11324944Y-7768860D01*
X11324944Y-7768860D02*
X11315420Y-7721241D01*
X11315420Y-7721241D02*
X11315420Y-7683146D01*
X11315420Y-7683146D02*
X11324944Y-7635527D01*
X11324944Y-7635527D02*
X11334468Y-7606955D01*
X11334468Y-7606955D02*
X11343991Y-7587908D01*
X11343991Y-7587908D02*
X11363039Y-7559336D01*
X11363039Y-7559336D02*
X11372563Y-7549812D01*
X11534468Y-7645050D02*
X11534468Y-7778384D01*
X11486848Y-7568860D02*
X11439229Y-7711717D01*
X11439229Y-7711717D02*
X11563039Y-7711717D01*
X11791610Y-7778384D02*
X11791610Y-7578384D01*
X11877325Y-7778384D02*
X11877325Y-7673622D01*
X11877325Y-7673622D02*
X11867801Y-7654574D01*
X11867801Y-7654574D02*
X11848753Y-7645050D01*
X11848753Y-7645050D02*
X11820182Y-7645050D01*
X11820182Y-7645050D02*
X11801134Y-7654574D01*
X11801134Y-7654574D02*
X11791610Y-7664098D01*
X12001134Y-7778384D02*
X11982087Y-7768860D01*
X11982087Y-7768860D02*
X11972563Y-7759336D01*
X11972563Y-7759336D02*
X11963039Y-7740288D01*
X11963039Y-7740288D02*
X11963039Y-7683146D01*
X11963039Y-7683146D02*
X11972563Y-7664098D01*
X11972563Y-7664098D02*
X11982087Y-7654574D01*
X11982087Y-7654574D02*
X12001134Y-7645050D01*
X12001134Y-7645050D02*
X12029706Y-7645050D01*
X12029706Y-7645050D02*
X12048753Y-7654574D01*
X12048753Y-7654574D02*
X12058277Y-7664098D01*
X12058277Y-7664098D02*
X12067801Y-7683146D01*
X12067801Y-7683146D02*
X12067801Y-7740288D01*
X12067801Y-7740288D02*
X12058277Y-7759336D01*
X12058277Y-7759336D02*
X12048753Y-7768860D01*
X12048753Y-7768860D02*
X12029706Y-7778384D01*
X12029706Y-7778384D02*
X12001134Y-7778384D01*
X12182087Y-7778384D02*
X12163039Y-7768860D01*
X12163039Y-7768860D02*
X12153515Y-7749812D01*
X12153515Y-7749812D02*
X12153515Y-7578384D01*
X12334468Y-7768860D02*
X12315420Y-7778384D01*
X12315420Y-7778384D02*
X12277325Y-7778384D01*
X12277325Y-7778384D02*
X12258277Y-7768860D01*
X12258277Y-7768860D02*
X12248753Y-7749812D01*
X12248753Y-7749812D02*
X12248753Y-7673622D01*
X12248753Y-7673622D02*
X12258277Y-7654574D01*
X12258277Y-7654574D02*
X12277325Y-7645050D01*
X12277325Y-7645050D02*
X12315420Y-7645050D01*
X12315420Y-7645050D02*
X12334468Y-7654574D01*
X12334468Y-7654574D02*
X12343991Y-7673622D01*
X12343991Y-7673622D02*
X12343991Y-7692669D01*
X12343991Y-7692669D02*
X12248753Y-7711717D01*
X12420182Y-7768860D02*
X12439230Y-7778384D01*
X12439230Y-7778384D02*
X12477325Y-7778384D01*
X12477325Y-7778384D02*
X12496372Y-7768860D01*
X12496372Y-7768860D02*
X12505896Y-7749812D01*
X12505896Y-7749812D02*
X12505896Y-7740288D01*
X12505896Y-7740288D02*
X12496372Y-7721241D01*
X12496372Y-7721241D02*
X12477325Y-7711717D01*
X12477325Y-7711717D02*
X12448753Y-7711717D01*
X12448753Y-7711717D02*
X12429706Y-7702193D01*
X12429706Y-7702193D02*
X12420182Y-7683146D01*
X12420182Y-7683146D02*
X12420182Y-7673622D01*
X12420182Y-7673622D02*
X12429706Y-7654574D01*
X12429706Y-7654574D02*
X12448753Y-7645050D01*
X12448753Y-7645050D02*
X12477325Y-7645050D01*
X12477325Y-7645050D02*
X12496372Y-7654574D01*
X12572563Y-7854574D02*
X12582087Y-7845050D01*
X12582087Y-7845050D02*
X12601134Y-7816479D01*
X12601134Y-7816479D02*
X12610658Y-7797431D01*
X12610658Y-7797431D02*
X12620182Y-7768860D01*
X12620182Y-7768860D02*
X12629706Y-7721241D01*
X12629706Y-7721241D02*
X12629706Y-7683146D01*
X12629706Y-7683146D02*
X12620182Y-7635527D01*
X12620182Y-7635527D02*
X12610658Y-7606955D01*
X12610658Y-7606955D02*
X12601134Y-7587908D01*
X12601134Y-7587908D02*
X12582087Y-7559336D01*
X12582087Y-7559336D02*
X12572563Y-7549812D01*
M02*
