M48
; DRILL file {KiCad 8.0.5} date 2024-10-10T12:35:58+0200
; FORMAT={-:-/ absolute / inch / decimal}
; #@! TF.CreationDate,2024-10-10T12:35:58+02:00
; #@! TF.GenerationSoftware,Kicad,Pcbnew,8.0.5
; #@! TF.FileFunction,Plated,1,4,PTH
FMAT,2
INCH
; #@! TA.AperFunction,Plated,PTH,ViaDrill
T1C0.0098
; #@! TA.AperFunction,Plated,PTH,ComponentDrill
T2C0.0098
; #@! TA.AperFunction,Plated,PTH,ViaDrill
T3C0.0118
; #@! TA.AperFunction,Plated,PTH,ViaDrill
T4C0.0197
; #@! TA.AperFunction,Plated,PTH,ViaDrill
T5C0.0433
; #@! TA.AperFunction,Plated,PTH,ComponentDrill
T6C0.0472
; #@! TA.AperFunction,Plated,PTH,ComponentDrill
T7C0.0984
; #@! TA.AperFunction,Plated,PTH,ComponentDrill
T8C0.1693
%
G90
G05
T1
X4.7642Y-1.8591
X4.7654Y-1.8169
X4.7661Y-1.7949
X4.7661Y-1.8378
X4.7862Y-1.8575
X4.8063Y-1.8575
X4.8453Y-1.8173
X4.8454Y-1.8392
X4.846Y-1.7954
X4.8667Y-1.761
X4.9602Y-1.7976
X4.9602Y-1.8173
X4.9602Y-1.8374
X4.9902Y-1.7598
X4.9941Y-1.8638
X5.0055Y-1.7953
X5.0055Y-1.8181
X5.0055Y-1.8417
X5.0165Y-1.8591
X5.0374Y-1.8598
X5.0555Y-1.8157
X5.0606Y-1.7949
X5.061Y-1.8398
X5.1528Y-1.7583
X5.1533Y-1.7325
X5.172Y-1.7472
X5.1728Y-1.7681
X5.2267Y-1.7308
X5.2268Y-1.7553
X5.2453Y-1.7402
X5.2465Y-1.7626
T2
X4.8804Y-1.6299
X4.8804Y-1.6772
X4.9483Y-1.6299
X4.9483Y-1.6772
T3
X4.6102Y-1.7323
X4.6142Y-1.6732
X4.7283Y-1.6732
X4.7358Y-1.5618
X4.7441Y-1.5945
X4.792Y-1.6416
X4.8031Y-1.4951
X4.8622Y-1.4094
X4.8701Y-1.5276
X4.8976Y-1.5315
X4.9051Y-1.7594
X4.937Y-1.5354
X4.9395Y-1.752
X4.9954Y-1.5107
X5.0232Y-1.5976
X5.0555Y-1.5902
X5.0642Y-1.7154
X5.1315Y-1.6209
X5.1417Y-1.4431
X5.1425Y-1.5067
X5.1475Y-1.5906
X5.1579Y-1.6205
X5.2122Y-1.6224
X5.2217Y-1.4449
X5.235Y-1.5154
X5.2465Y-1.6236
X5.2768Y-1.6236
X5.2992Y-1.4431
X5.3102Y-1.6224
X5.3386Y-1.7559
X5.387Y-1.6476
X5.4453Y-1.7047
X5.5063Y-1.6465
X5.5226Y-1.4606
X5.5817Y-1.5157
X5.6407Y-1.4606
T4
X5.7144Y-1.3445
X5.7656Y-1.2972
X5.8089Y-1.3445
X5.9112Y-1.3445
X5.9624Y-1.2972
X6.0057Y-1.3445
T5
X5.4134Y-1.7817
T6
X4.685Y-0.9606
X4.937Y-0.9646
T7
X5.252Y-0.9567
X5.6969Y-0.9606
T8
X3.4831Y-1.4087
X3.4852Y-1.0453
X3.8602Y-1.428
X3.8681Y-1.0394
M30
